<?xml version="1.0" encoding="UTF-8"?>
<svg width="186px" height="66px" viewBox="0 0 186 66" version="1.1" xmlns="http://www.w3.org/2000/svg" xmlns:xlink="http://www.w3.org/1999/xlink">
    <!-- Generator: sketchtool 53.1 (72631) - https://sketchapp.com -->
    <title>F654E104-D29C-4AEE-BFC5-E606E7AA8D3A@3.00x</title>
    <desc>Created with sketchtool.</desc>
    <defs>
        <linearGradient x1="56.1137659%" y1="11.8042527%" x2="42.9856794%" y2="94.6998124%" id="linearGradient-1">
            <stop stop-color="#000000" offset="0%"></stop>
            <stop stop-color="#FFFFFF" offset="47%"></stop>
            <stop stop-color="#000000" offset="100%"></stop>
        </linearGradient>
    </defs>
    <g id="Slice-1" stroke="none" stroke-width="1" fill="none" fill-rule="evenodd">
        <g id="listViewHover" transform="translate(-70.000000, -10.000000)">
            <g id="colormateLogo" transform="translate(70.000000, 10.000000)">
                <g id="logoNoTagline">
                    <g id="Asset-5-Copy" transform="translate(0.000000, -0.000000)">
                        <g id="Group" fill-rule="nonzero">
                            <path d="M25.9915544,64.0953481 C25.9915544,65.6909811 27.1269157,66.3415084 28.505786,65.5406234 L53.5385233,50.9681986 C54.9143498,50.1673136 56.0375356,48.2065262 56.0344917,46.6108932 L55.9644829,22.0933793 L25.9245894,39.5839712 L25.9915544,64.0953481 Z" id="Path" fill="#F17239"></path>
                            <path d="M27.0112488,39.4827099 L23.0542257,40.0964149 L25.2640709,64.8532738 L26.4450901,65.5467604 C26.5770285,65.626267 26.7387176,65.6374049 26.8801577,65.57673 C27.0215979,65.5160551 27.1257468,65.390878 27.1603982,65.2399079 L30.3655869,50.8423891 L27.0112488,39.4827099 Z" id="Path" fill="#F17239"></path>
                            <path d="M55.9279565,16.7756256 L55.9279565,41.0169724 L20.9235209,41.0169724 L27.6200216,22.9126754 L36.7516135,21.378413 L51.3621606,15.5482157 L54.7104109,15.2413632 C54.7104109,15.2413632 55.9279565,15.5482157 55.9279565,16.7756256" id="Path" fill="#F17239"></path>
                            <path d="M0.815755543,50.5324681 L26.7251256,65.7124608 C26.673527,65.6805016 26.6237335,65.6456711 26.5759763,65.6081309 L26.5333622,65.5682401 C26.5007398,65.540943 26.470214,65.5111956 26.4420463,65.4792529 L26.3963883,65.4270879 C26.3686212,65.3952385 26.3431886,65.3613955 26.3202917,65.3258266 C26.3202917,65.3074155 26.2928969,65.2890043 26.2807215,65.2675246 C26.268546,65.246045 26.2350635,65.187743 26.2137565,65.1447836 C26.1924494,65.1018243 26.1924494,65.1079613 26.1833178,65.0864817 C26.1543007,65.021472 26.1288958,64.9548842 26.1072212,64.8870276 L26.1072212,64.8870276 C26.0853777,64.8164056 26.0670911,64.7447151 26.0524317,64.6722308 C26.0524317,64.6446141 26.0524317,64.6200659 26.0524317,64.5955177 C26.0524317,64.5709695 26.0341685,64.4942564 26.0280808,64.4420914 C26.0145356,64.3290591 26.0074216,64.2153375 26.0067737,64.1014852 L25.9276333,35.1039249 L0,19.9177951 L0.0821843271,48.918424 C0.0829305041,49.0322729 0.0900441445,49.1459888 0.103491375,49.2590302 L0.103491375,49.2958525 C0.103491375,49.3357434 0.118710695,49.3725657 0.124798423,49.409388 C0.130886151,49.4462103 0.124798423,49.4615529 0.124798423,49.4861011 C0.139032837,49.5599889 0.158357449,49.632787 0.182631838,49.7039663 L0.182631838,49.7039663 C0.205318385,49.7728821 0.231738237,49.8404912 0.261772301,49.906489 L0.289167077,49.964791 L0.356132084,50.0844634 C0.371351404,50.1059431 0.38352686,50.1274228 0.39874618,50.1458339 C0.421374767,50.1798318 0.445759275,50.2126079 0.471798915,50.2440267 L0.517456874,50.2992602 L0.608772793,50.3882474 L0.651386889,50.4250697 C0.703156154,50.4653612 0.758131843,50.5012823 0.815755543,50.5324681 L0.815755543,50.5324681 Z" id="Path" fill="#E96830"></path>
                            <path d="M29.5254805,0.426524961 C29.2210941,0.239344942 28.7736461,0.263893141 28.3079349,0.546197432 L1.73500246,16.0054259 C1.66499359,16.0483852 1.59498472,16.0944131 1.52801971,16.1435095 L1.50671266,16.1435095 L1.47931789,16.1649892 C1.38165443,16.2394894 1.28816565,16.3193938 1.1992824,16.4043341 L1.17188763,16.4319508 C1.07718003,16.523912 0.987748346,16.6212398 0.904027598,16.7234607 L0.904027598,16.7234607 C0.818799407,16.8308591 0.73661508,16.941326 0.660518481,17.0548614 L0.645299161,17.0763411 C0.572246426,17.1898765 0.505281418,17.3064804 0.441360275,17.4261529 C0.44236556,17.4353306 0.44236556,17.444592 0.441360275,17.4537696 L0.441360275,17.4752493 C0.413965499,17.5243457 0.392658452,17.5734421 0.36830754,17.625607 L0.3378689,17.6900461 L0.3378689,17.6900461 C0.295254805,17.7882389 0.258728437,17.8833631 0.225245933,17.9968985 L0.200895022,18.0674746 C0.170456382,18.1595304 0.143061606,18.2546546 0.121754559,18.3467104 C0.12043494,18.3538085 0.12043494,18.361092 0.121754559,18.3681901 C0.0979950579,18.4692495 0.0807107862,18.5717454 0.0700088712,18.6750425 L0.0700088712,18.7456186 C0.0408502947,18.8371145 0.017467233,18.9303796 -2.47135645e-15,19.0248544 L-2.47135645e-15,19.9085896 L-2.47135645e-15,24.3917044 L-2.47135645e-15,24.3917044 L-2.47135645e-15,24.5083084 L25.9245894,39.5839712 L25.9245894,34.8737855 L25.9245894,34.8737855 L25.9245894,34.2201897 C25.9247082,34.1237528 25.9308078,34.0274178 25.9428526,33.9317484 C25.9415096,33.9082425 25.9415096,33.8846782 25.9428526,33.8611723 C25.9428526,33.766048 25.9732912,33.6678552 25.9976421,33.5696624 C25.9976421,33.5696624 25.9976421,33.5696624 25.9976421,33.5481827 C26.021993,33.456127 26.0493878,33.3640712 26.0798265,33.268947 L26.1011335,33.2014394 C26.1376599,33.1032466 26.1741862,33.0050538 26.2168003,32.8945869 C26.2266973,32.8694745 26.237873,32.8448937 26.2502828,32.8209423 C26.2715899,32.7718459 26.2959408,32.719681 26.3233356,32.6705846 C26.3302515,32.6546263 26.3383933,32.6392369 26.3476865,32.6245567 C26.4116076,32.5048843 26.4785726,32.3852118 26.5516254,32.2716764 L26.5668447,32.2532652 C26.641819,32.1373234 26.7231135,32.0256623 26.8103538,31.918796 L26.8103538,31.918796 C26.8947307,31.8113487 26.9851821,31.7088946 27.0812577,31.6119435 L27.1086525,31.5843268 C27.1999684,31.4984081 27.2943282,31.4186265 27.388688,31.3449819 L27.4343459,31.3112281 C27.5043548,31.2621317 27.5713198,31.2161038 27.6413287,31.176213 L54.2051295,15.713916 C54.5644348,15.4493972 55.0382536,15.4035138 55.4409383,15.5942435 L29.5254805,0.426524961 Z" id="Path" fill="#F19167"></path>
                            <path d="M54.2051295,15.7231216 C55.1639467,15.1677186 55.9462197,15.6187917 55.9492636,16.7265292 L55.9644829,22.0933793 L25.9245894,39.5839712 L25.9245894,35.1008563 L25.9245894,34.2140526 C25.9908221,32.9849708 26.6340741,31.8612713 27.656548,31.1884871 L54.2051295,15.7231216 Z" id="Path" fill="#F6A988"></path>
                        </g>
                        <polygon id="Path" fill="#B7B8BC" fill-rule="nonzero" points="47.6486465 33.6064847 40.6873296 31.1854186 36.2250251 39.0991443 35.6466909 48.6974902 37.45779 50.8117038 40.9369265 50.8117038 45.8679861 46.1720942 48.309165 40.7070513"></polygon>
                        <polygon id="Path" fill="url(#linearGradient-1)" fill-rule="nonzero" opacity="0.33" style="mix-blend-mode: multiply;" points="47.6486465 33.6064847 40.6873296 31.1854186 36.2250251 39.0991443 35.6466909 48.6974902 37.45779 50.8117038 40.9369265 50.8117038 45.8679861 46.1720942 48.309165 40.7070513"></polygon>
                        <path d="M57.3981428,58.5720033 L57.148546,58.4676735 L48.3213405,54.0275179 L48.3213405,45.9358178 L45.758407,46.2886981 L45.758407,55.3377781 L55.2096046,60.1430881 C55.6600965,60.4345979 57.2246426,61.3889092 58.0038717,61.2538941 C58.9200748,61.1066049 60.6185509,60.0326212 57.3981428,58.5720033 Z" id="Path" fill="#00DBFF" fill-rule="nonzero"></path>
                        <path d="M52.9967155,61.5760892 L53.0241103,61.557678 L43.5272547,56.746231 L43.5272547,48.6545308 L40.9612774,49.0074112 L40.9612774,58.0564911 L50.3242029,62.8464585 C50.9542828,63.2208185 52.068337,63.8130438 52.6831975,63.708714 C53.4746022,63.5736989 54.8504287,62.7421286 52.9967155,61.5760892 Z" id="Path" fill="#FFEC00" fill-rule="nonzero"></path>
                        <path d="M51.0090723,63.0428441 L50.9847214,63.0428441 L41.4939536,58.231397 L41.4939536,50.1274228 L38.9310201,50.4772346 L38.9310201,59.5293831 L48.2909018,64.3193504 C48.9209817,64.6937105 50.0350359,65.2859358 50.6498964,65.1816059 C51.441301,65.0527279 52.8627855,64.2088836 51.0090723,63.0428441 Z" id="Path" fill="#750BFF" fill-rule="nonzero"></path>
                        <path d="M57.8334154,61.5024446 L46.0810566,55.5403007 L46.0810566,47.439395 L43.5272547,47.7922753 L43.5272547,56.8413553 L55.5779122,63.0182959 C55.5779122,63.0182959 57.5138096,64.3254875 58.3995741,64.1720613 C59.2853385,64.018635 61.0446918,62.966131 57.930819,61.557678 L57.8334154,61.5024446 Z" id="Path" fill="#FF0D0D" fill-rule="nonzero"></path>
                        <path d="M35.308822,35.6750405 C35.4914184,35.7739301 35.6755021,35.8764177 35.8628052,35.9784545 C36.9555524,36.5737483 38.1609225,37.1475625 39.8807057,36.8990119 C40.3696557,36.8251658 40.8499723,36.7018007 41.3143656,36.5307889 C41.8168312,36.3436526 42.3370091,36.2089557 42.8667362,36.1288122 C43.6325626,35.9775589 44.4265003,36.0854255 45.1252833,36.4356647 L47.0581369,37.5127169 C46.3598318,37.1609105 45.565367,37.0529723 44.7995899,37.2058644 C44.2701654,37.2890204 43.7501838,37.4246942 43.2472192,37.6109097 C42.7828259,37.7819215 42.3025093,37.9052866 41.8135593,37.9791327 C40.0937762,38.2246147 38.8823183,37.6508005 37.7956589,37.0585752 C36.9565536,36.601266 36.1846024,36.1293193 35.308822,36.0199684 L35.308822,35.6750421 Z" id="Combined-Shape" fill="#007285" fill-rule="nonzero"></path>
                        <path d="M34.9133977,35.8924563 C35.9534255,35.8881245 36.8236315,36.4183055 37.7865273,36.9389028 C38.8762306,37.5280595 40.0846446,38.0895996 41.8044277,37.8594602 C42.2932278,37.7879341 42.7735721,37.6666181 43.2380876,37.4973743 C43.7416423,37.3151744 44.2615301,37.1826079 44.7904583,37.1015346 C48.5344109,36.5706798 48.4826653,40.0565241 48.4796214,40.237567 L35.1901113,48.3814321 L32.5905194,45.4141685 L33.1527517,45.4141685 C34.3435164,45.4141685 35.308822,44.448863 35.308822,43.2580982 L35.308822,37.1372542 C35.308822,36.6735739 35.1624527,36.2440801 34.9133977,35.8924563 Z" id="Combined-Shape" fill="#00D2F5" fill-rule="nonzero"></path>
                        <path d="M35.8536737,40.6962705 C37.0061887,40.5348037 38.7194935,40.8263409 40.993588,41.5708821 C43.2676824,42.3154233 45.1203643,39.4437818 46.5516335,32.9559574 L49.2344552,35.7408188 L49.5510615,41.944216 L43.492217,45.5369095 L35.8536737,45.5369095 L35.8536737,40.6962705 Z" id="Path-3" fill="#3D0685"></path>
                        <path d="M35.2891486,42.9378689 C37.3091852,42.0909561 39.5367491,42.0909561 41.9718402,42.9378689 C44.4069314,43.7847818 46.3347119,41.1023796 47.7551818,34.8906624 L47.7551818,43.6957946 C44.1228374,47.4373493 42.1950569,49.4492788 41.9718402,49.7315831 C41.7486235,50.0138874 39.7092347,50.559062 35.8536737,51.3671068 C34.8816664,49.1168552 34.3956628,47.9917294 34.3956628,47.9917294 C34.3956628,47.9917294 34.6934914,46.3071093 35.2891486,42.9378689 Z" id="Path-2" fill="#700BF5"></path>
                        <g id="Group" transform="translate(30.743026, 28.844134)" fill-rule="nonzero">
                            <path d="M6.36167569,21.1881644 L7.22613306,24.4469379 C7.22613306,24.4469379 11.1831562,23.8332329 11.4875426,23.8332329 C11.791929,23.8332329 15.1401794,21.378413 15.1401794,21.378413 L16.9664977,19.537298 L18.7928161,16.4687731 L20.3147481,14.0139532 L20.3147481,10.6385758 L19.7059753,6.95634595 L18.7928161,6.03578848 L16.9664977,6.64949346 L16.6621113,10.6385758 L16.9664977,14.3208057 L15.7489522,16.7756256 L13.6182474,19.2304456 L8.74806504,22.2989705 L6.36167569,21.1881644 Z" id="Path" fill="#FFFFFF"></path>
                            <path d="M18.5432193,2.12648776 L16.357725,0.819296149 L7.22613306,4.19467354 L4.18226909,10.3317233 C4.18226909,10.3317233 2.66033711,16.1619207 2.66033711,16.4687731 C2.66033711,16.7756256 2.35595071,20.764708 2.35595071,20.764708 L3.49131197,23.9805221 C3.49131197,23.9805221 6.92174666,26.2880528 7.22613306,25.3674954 C7.53051945,24.4469379 5.70420107,21.1881644 5.70420107,21.1881644 L4.79104188,18.6167406 L4.48665549,17.0824781 C4.48665549,17.0824781 3.87788269,14.6276582 4.48665549,14.3208057 C5.09542828,14.0139532 7.53051945,9.10431338 7.53051945,9.10431338 C7.53051945,9.10431338 9.35683783,6.24444817 9.66122423,6.03578848 C9.96561062,5.82712879 12.4007018,4.80837852 12.7050882,4.50152603 C13.0094746,4.19467354 15.7489522,2.96726358 15.7489522,2.96726358 C15.7489522,2.96726358 17.2708841,3.27411607 17.5752705,3.27411607 C17.8796569,3.27411607 18.5432193,2.12648776 18.5432193,2.12648776 Z" id="Path" fill="#FFFFFF"></path>
                            <path d="M18.5858334,15.3426245 L18.6771493,15.1462389 L18.7593336,14.9621274 L18.8141232,14.8271123 C18.8902198,14.6491379 18.9602286,14.4680949 19.0302375,14.2901205 L19.1215534,14.053844 C19.2128694,13.7991565 19.3011414,13.5444689 19.3802819,13.2897813 L17.8309551,12.3692239 L17.7913849,12.3078534 C17.7522827,12.2454928 17.7167141,12.1809505 17.6848496,12.1145363 C17.6848496,12.0838511 17.6513671,12.0562343 17.6391917,12.0255491 C17.5920191,11.9256596 17.5503562,11.8232193 17.5143933,11.7186966 C17.5143933,11.7186966 17.5143933,11.7186966 17.5143933,11.7002854 C17.4792126,11.5917018 17.4507485,11.4810222 17.4291651,11.3688848 C17.4291651,11.3289939 17.4139457,11.2860346 17.407858,11.2461438 C17.3895948,11.154088 17.3774194,11.0651008 17.3652439,10.966908 L17.3652439,10.8687152 C17.3652439,10.7398372 17.3469807,10.6048221 17.3469807,10.4636699 C17.3469807,10.3225178 17.3469807,10.1322692 17.3713317,9.96350035 L17.3713317,9.84689641 C17.3895948,9.67812754 17.4109019,9.50935867 17.4413405,9.3405898 C17.4413405,9.31911012 17.4413405,9.29763045 17.4565598,9.27308225 C17.4839546,9.11965601 17.520481,8.96622976 17.5600512,8.80973499 L17.587446,8.69926809 C17.6361478,8.5274307 17.6878935,8.35866183 17.7426831,8.18989296 L17.7792094,8.09170016 C17.833999,7.94236529 17.8918324,7.79200756 17.9527097,7.640627 L17.989236,7.55163978 C18.0318501,7.45344698 18.080552,7.35525419 18.1262099,7.24478729 C18.1718679,7.13432039 18.2114381,7.05453875 18.2601399,6.95941448 C18.3088418,6.8642902 18.3879822,6.72006953 18.4549472,6.60346559 L18.5523509,6.42549114 C18.6558422,6.25058522 18.7654214,6.07874783 18.8780443,5.90997896 C18.6743322,5.65261473 18.4367503,5.42446392 18.1718679,5.23183496 C18.0858786,5.16855462 17.9964529,5.11016184 17.9040078,5.05692904 L14.9392843,3.32014394 C15.3140098,3.54060575 15.6443991,3.82995685 15.9133208,4.17319387 C15.8006978,4.34196273 15.6911187,4.51380013 15.5876274,4.68870605 L15.4902237,4.86668049 C15.4323903,4.97407886 15.3684692,5.07840871 15.3136796,5.18887561 L15.2954164,5.22262938 L15.1614864,5.5080022 C15.1219162,5.59085237 15.0793021,5.67370254 15.0458196,5.75655271 C15.0374677,5.77127537 15.0303409,5.78667072 15.0245125,5.80258059 L14.9879862,5.89156781 C14.9271089,6.04090269 14.8692755,6.19126041 14.8144859,6.34264097 C14.8144859,6.37639474 14.790135,6.41014852 14.7810034,6.44083377 C14.72317,6.60960264 14.6714243,6.78144003 14.6257664,6.9502089 C14.6257664,6.9870312 14.6075032,7.0238535 14.5953277,7.0606758 C14.5557575,7.21410204 14.522275,7.36752829 14.4918363,7.52709158 C14.4918363,7.54857126 14.4918363,7.57005093 14.4918363,7.5915306 C14.4613977,7.763368 14.4370468,7.92906834 14.4218275,8.09783721 C14.4218275,8.13465951 14.4218275,8.17455034 14.4218275,8.21444116 C14.4218275,8.38321003 14.3974766,8.5519789 14.3974766,8.71767924 C14.3974766,8.88337959 14.3974766,8.99077796 14.4187836,9.11965601 L14.4187836,9.22091733 L14.4187836,9.31911012 C14.4187836,9.38048062 14.4400907,9.4387826 14.4492222,9.49708457 C14.4583538,9.55538654 14.4492222,9.57993474 14.4705293,9.61982556 C14.4948802,9.73336099 14.522275,9.84689641 14.5557575,9.95122625 C14.5547582,9.95835071 14.5547582,9.96558147 14.5557575,9.97270593 C14.5898361,10.0774932 14.6305033,10.1799851 14.677512,10.2795584 L14.72317,10.3685456 C14.7566525,10.4360532 14.790135,10.5004922 14.8297052,10.5649312 L14.8936264,10.6600555 C14.9301528,10.7122204 14.969723,10.7674539 15.0092932,10.8165503 L15.082346,10.8994004 C15.1280039,10.9484968 15.1767057,10.9945247 15.2254076,11.0405526 L15.2954164,11.1019231 C15.3690519,11.1633454 15.4474258,11.2187542 15.529794,11.2676234 L16.3455495,11.7463133 C16.2877161,11.9304248 16.2268388,12.1145363 16.1598738,12.2955793 L16.0685579,12.5318557 C16.0015929,12.7098301 15.9285401,12.8908731 15.8524435,13.0688476 L15.7154697,13.3757 C15.685031,13.4401391 15.6545924,13.5076466 15.6271976,13.5720856 C15.5571887,13.7224434 15.484136,13.8789381 15.4110833,14.0170217 C15.3867323,14.0630496 15.3654253,14.112146 15.3410744,14.1581739 C15.3167235,14.2042018 15.2801971,14.2686408 15.2528023,14.3269428 C15.1523548,14.5171913 15.0488634,14.7074398 14.9484159,14.8946199 C14.902758,14.9744015 14.8571,15.0541832 14.8083982,15.1308963 C14.7109945,15.2965966 14.6135909,15.4561599 14.5040118,15.6187917 C14.45531,15.6955049 14.4066082,15.772218 14.3548625,15.8458626 C14.2331079,16.0330426 14.1083095,16.2140856 13.9774233,16.3951285 C13.9469847,16.4350194 13.9195899,16.4810472 13.8861074,16.5209381 C13.7278265,16.7418719 13.560414,16.9536001 13.3899576,17.1622598 C13.3442996,17.2205617 13.2986417,17.2727267 13.2499398,17.3310286 C13.1251414,17.4813864 12.9942553,17.6378811 12.8633691,17.7790333 L12.6776934,17.9784874 C12.5518804,18.1135025 12.4240381,18.2454491 12.2941666,18.3743271 C12.2332893,18.4326291 12.1754559,18.4939996 12.1145786,18.549233 C11.9410783,18.7149334 11.7645342,18.8744967 11.5879901,19.0279229 L11.5392883,19.0708823 C11.344481,19.2365826 11.1466298,19.3777347 10.9457348,19.5434351 C10.8391996,19.6232167 10.7296205,19.6968613 10.6230852,19.7705059 L10.4587166,19.8871099 C10.2913041,19.9975768 10.1208477,20.1049752 9.9503913,20.1939624 C7.98101132,21.3415907 6.19730703,21.4459205 4.90975258,20.6941319 L7.87447608,22.4278485 C9.16203054,23.1827056 10.9457348,23.0783758 12.9151148,21.9307475 C13.0855712,21.8325547 13.2560276,21.7251563 13.4234401,21.623895 L13.5878087,21.507291 C13.6760808,21.4459205 13.7673967,21.3876186 13.8556688,21.320111 L13.9074145,21.2802202 C14.1083095,21.1298625 14.3092045,20.9733677 14.5161873,20.8076674 L14.5648891,20.764708 C14.7414332,20.6112818 14.9179773,20.4578555 15.0914775,20.2860181 L15.2680217,20.1111122 C15.3989078,19.9822342 15.529794,19.8502876 15.6545924,19.7152725 L15.8402681,19.5158184 C15.9711542,19.3685292 16.0989965,19.2089659 16.2268388,19.0647452 C16.2755406,19.0095118 16.3211986,18.9573468 16.3668565,18.8990449 C16.5373129,18.6903852 16.7016816,18.478657 16.8630064,18.2577232 C16.893445,18.2178323 16.9238837,18.1718045 16.9543223,18.1288451 C17.0821646,17.9508707 17.2100069,17.7698277 17.3317614,17.5826477 C17.3835071,17.5090031 17.4291651,17.43229 17.4809108,17.3555768 C17.5813583,17.192945 17.6818058,17.0333817 17.7852972,16.8676814 L17.9253149,16.631405 C18.0318501,16.4442249 18.1353415,16.2539764 18.2297013,16.0637279 C18.2540522,16.0207685 18.2784031,15.9778092 18.2997102,15.9348498 C18.3056229,15.9209412 18.3127534,15.9075914 18.3210172,15.894959 C18.3453681,15.8489311 18.3666752,15.7998347 18.3910261,15.7538068 C18.4458156,15.649477 18.5158245,15.4868452 18.5858334,15.3426245 Z" id="Path" fill="#E5E7EC"></path>
                            <path d="M19.2128694,2.45481992 L16.2481459,0.718034827 C14.5466259,-0.276167241 12.1906752,-0.138083621 9.59121536,1.37776768 C9.40249579,1.48823458 9.21377623,1.60483852 9.02505666,1.72757952 L8.85460028,1.84111494 C8.72067026,1.93317069 8.58369638,2.02829496 8.45281023,2.12341923 L8.34931886,2.1939953 L8.25495908,2.2676399 L8.05102019,2.42413467 C7.96985048,2.48550517 7.88766616,2.54994419 7.80446721,2.61745174 L7.60965991,2.76167241 L7.3661508,2.96726358 L7.1713435,3.13910097 L6.93392211,3.35696624 L6.74215868,3.53494069 L6.50778116,3.76508005 C6.44690388,3.82645055 6.38298274,3.88475252 6.32210546,3.94919155 L6.08772793,4.19160501 L5.91118382,4.37878503 C5.83204336,4.46163521 5.75594676,4.55062243 5.6768063,4.63654113 L5.51243764,4.82372114 C5.43025332,4.91577689 5.34806899,5.01396969 5.26892853,5.10909396 L5.12282305,5.28399988 C5.02541941,5.40060383 4.93105962,5.5202763 4.83974371,5.63994877 C4.8062612,5.67677107 4.77582256,5.71666189 4.74538392,5.75655271 C4.6205855,5.91611601 4.49883094,6.0634052 4.37707638,6.24137965 L4.27967274,6.37946327 L4.02398816,6.74154921 L3.89310201,6.93486628 C3.82309314,7.04226465 3.75004041,7.14659449 3.68003153,7.24171877 L3.54305766,7.45958403 L3.35129423,7.76643652 L3.21432035,7.99657589 L3.03777624,8.30342838 L2.90080236,8.5397048 L2.73338984,8.84655729 L2.60554755,9.09203928 L2.51118777,9.2669452 L2.45639822,9.3774121 L2.28289797,9.72415541 C2.24332774,9.81007411 2.20071365,9.89292428 2.16114342,9.97884298 C2.12157318,10.0647617 2.04852045,10.2181879 1.99677476,10.3378604 C1.96633612,10.3992309 1.93894135,10.4606014 1.91154657,10.5219719 C1.90573431,10.5388761 1.89860992,10.5552923 1.89023952,10.5710683 C1.77761656,10.8288244 1.67108132,11.0865805 1.56758994,11.3474051 L1.5036688,11.5192425 C1.41539674,11.7493818 1.33016855,11.9795212 1.25102809,12.2096606 L1.20537013,12.3446757 C1.11709808,12.6055003 1.03491375,12.8693934 0.958817149,13.1332866 C0.940553965,13.1915885 0.922290782,13.252959 0.907071462,13.3143295 C0.840106455,13.5536745 0.779229175,13.7899509 0.72139576,14.0292958 L0.694000984,14.1336257 C0.633123705,14.3975188 0.581378018,14.6583435 0.532676194,14.9191681 C0.532676194,14.9836071 0.511369146,15.0449776 0.49919369,15.1094166 C0.456579595,15.3548986 0.420053227,15.6003806 0.386570724,15.8458626 C0.386570724,15.8673423 0.386570724,15.8888219 0.386570724,15.9072331 C0.35308822,16.1680577 0.331781172,16.4258138 0.313517988,16.6835699 C0.313517988,16.7449404 0.313517988,16.8093794 0.313517988,16.8707499 C0.313517988,17.128506 0.292210941,17.3862621 0.292210941,17.6409497 C0.292210941,17.8956372 0.292210941,18.0858858 0.313517988,18.3006825 C0.313517988,18.362053 0.313517988,18.4234235 0.313517988,18.4878625 C0.325693444,18.6474258 0.340912764,18.8039206 0.359175948,18.9573468 C0.359175948,18.9941691 0.359175948,19.0309914 0.359175948,19.0678137 C0.357489159,19.0964281 0.357489159,19.1251181 0.359175948,19.1537324 C0.359175948,19.2089659 0.359175948,19.2641993 0.38352686,19.3194328 C0.407877771,19.3746662 0.413965499,19.5158184 0.432228683,19.6109426 C0.450491867,19.7060669 0.453535731,19.718341 0.465711187,19.7735745 C0.477886643,19.8288079 0.508325282,19.9668915 0.52963233,20.0620158 C0.52963233,20.1080437 0.550939378,20.1540715 0.563114834,20.2000994 C0.596597337,20.3228404 0.630079841,20.4455814 0.669650073,20.5652539 C0.668327751,20.5785174 0.668327751,20.5918812 0.669650073,20.6051447 C0.712264168,20.7370913 0.757922128,20.8659693 0.803580087,20.9917788 L0.849238047,21.1022457 C0.885764414,21.1881644 0.919246918,21.2740831 0.958817149,21.3600018 C0.998387381,21.4459205 0.998387381,21.442852 1.01969443,21.4858114 C1.04100148,21.5287707 1.09274716,21.6361691 1.1323174,21.7098137 L1.19623854,21.8325547 L1.32712469,22.0504199 L1.39104583,22.1516813 C1.45192311,22.2498741 1.51888812,22.3419298 1.58585313,22.4339856 C1.655862,22.5321783 1.7319586,22.6211656 1.8080552,22.7101528 L1.88110793,22.793003 L2.04852045,22.9679089 L2.13983637,23.0538276 L2.30420502,23.2041853 L2.40160867,23.2870355 L2.58728437,23.4281876 L2.67555643,23.4926266 C2.76687235,23.5539971 2.86123213,23.6184362 2.95863577,23.6736696 L5.92335928,25.4104547 C5.82595563,25.3531756 5.73159585,25.2918051 5.64027993,25.2263432 L5.55200787,25.1649727 C5.48808673,25.1189448 5.42720945,25.0698484 5.36633217,25.020752 L5.26892853,24.9409704 L5.10455987,24.7906127 L5.01324395,24.704694 L4.84583143,24.5297881 L4.7727787,24.4469379 C4.6966821,24.3579507 4.6205855,24.2689634 4.55057663,24.1707706 L4.55057663,24.1523595 C4.48361162,24.0633723 4.41969048,23.9713165 4.3588132,23.8731237 C4.33446229,23.83937 4.3161991,23.8056162 4.29489206,23.7718624 C4.27358501,23.7381086 4.20662,23.6276417 4.16400591,23.5539971 C4.12139181,23.4803525 4.12139181,23.471147 4.0970409,23.4312561 C4.07268999,23.3913653 4.0209443,23.2839669 3.98441793,23.2072538 L3.92658452,23.0783758 C3.88701428,22.9955256 3.85353178,22.9096069 3.81700541,22.8236882 L3.77134745,22.7132213 C3.72264563,22.586389 3.67698767,22.4575109 3.63437358,22.3265872 C3.63536913,22.312285 3.63536913,22.29793 3.63437358,22.2836278 C3.59784721,22.1670239 3.5643647,22.0442829 3.5308822,21.9215419 C3.5308822,21.875514 3.50957515,21.8294861 3.4973997,21.7834583 C3.47304879,21.688334 3.45174174,21.5901412 3.43043469,21.4950169 C3.40912764,21.3998927 3.40912764,21.38455 3.39999605,21.3323851 C3.39086446,21.2802202 3.36651355,21.139068 3.35129423,21.0255326 L3.32389945,20.8598323 C3.32389945,20.7953933 3.32389945,20.7278857 3.3025924,20.6603782 C3.28432922,20.5069519 3.2691099,20.3535257 3.25693444,20.1939624 C3.25693444,20.1295233 3.25693444,20.0681529 3.25693444,20.0067824 C3.25693444,19.7919856 3.2356274,19.5710518 3.2356274,19.3470495 C3.2356274,19.1230472 3.2356274,18.8346058 3.25693444,18.5768497 C3.25693444,18.5154793 3.25693444,18.4510402 3.25693444,18.3896697 C3.27519763,18.1319136 3.29650468,17.8741575 3.32694331,17.6133329 L3.32694331,17.5519624 C3.35738195,17.3064804 3.39695219,17.0609984 3.43956628,16.8124479 C3.43956628,16.7510774 3.46087333,16.6897069 3.47304879,16.6252679 C3.52175061,16.3644433 3.5734963,16.1005502 3.63437358,15.8397255 L3.66176835,15.7323272 C3.7165579,15.4960507 3.78047905,15.2597743 3.84744405,15.0204294 C3.86266337,14.9590589 3.88092656,14.8976884 3.89918974,14.8363179 C3.97528634,14.5754933 4.0544268,14.3116001 4.14269886,14.0507755 C4.14269886,14.0047476 4.17618136,13.9617883 4.19140068,13.9157604 C4.27054114,13.6856211 4.35576934,13.4554817 4.44099753,13.2253423 C4.46534844,13.1670403 4.48665549,13.1087384 4.50796253,13.0535049 C4.61145391,12.7926803 4.71798915,12.5349242 4.83061211,12.2771681 L4.93410349,12.0439602 C4.98889304,11.9242878 5.04368259,11.8046153 5.10151601,11.6849428 C5.15934942,11.5652704 5.18370033,11.5131054 5.22327057,11.4302553 C5.2628408,11.3474051 5.33589353,11.2001159 5.39677081,11.0835119 L5.54592015,10.7950706 L5.67376243,10.5526571 L5.84117495,10.2458046 C5.88683291,10.166023 5.92944701,10.0862413 5.97510497,10.0095282 C6.02076292,9.9328151 6.09381566,9.80700558 6.15469294,9.70267574 L6.29166682,9.47253637 L6.48343025,9.16568388 L6.62040413,8.94781861 C6.690413,8.84042024 6.76346573,8.73609039 6.8334746,8.64096612 L6.96131689,8.44764905 L7.22308919,8.07942606 C7.25657169,8.03646672 7.28701033,7.99043884 7.31744897,7.94747949 L7.68271265,7.46265256 L7.77707243,7.34298009 L8.06319565,6.9870312 L8.20625725,6.81826233 L8.45281023,6.52675246 L8.61717889,6.3457095 C8.69327549,6.25672227 8.77241595,6.16773505 8.85155641,6.08181635 L9.02810052,5.89770486 C9.10724099,5.81485469 9.18333759,5.73200451 9.26247805,5.65222287 L9.44510989,5.4711799 L9.68253128,5.24104053 L9.87429471,5.06306609 C9.9503913,4.98942149 10.0295318,4.91577689 10.1117161,4.84520082 L10.3065234,4.67336342 L10.5469886,4.46777226 L10.7478837,4.30514044 L10.9944366,4.10875484 L11.1953317,3.9553286 L11.3931828,3.81110793 C11.5271128,3.71291513 11.6610429,3.62085938 11.7980167,3.52880364 L11.9684731,3.41526821 C12.1541488,3.29252722 12.3428684,3.17592327 12.5346318,3.06238785 C14.8083982,1.73985362 16.8964889,1.4667549 18.5219122,2.08659693 C18.7528148,2.17089835 18.9767316,2.27350332 19.1915623,2.39344942 L19.2128694,2.45481992 Z" id="Path" fill="#DBDDE4"></path>
                            <path d="M12.5559389,3.10227867 C17.7305076,0.0981927968 21.9219083,2.51005337 21.9401715,8.49367693 C21.9584347,14.4773005 17.7822533,21.7650471 12.6168161,24.7568589 C7.45137899,27.7486707 3.25084672,25.3490842 3.2356274,19.3654606 C3.22040808,13.3818371 7.39050171,6.10943308 12.5559389,3.10227867 Z M12.9090271,21.9675698 C15.8067856,20.2798811 18.2936224,16.8124479 19.3802819,13.2836443 C18.1627363,13.2038626 17.340893,12.1820439 17.3348053,10.4575329 C17.3348053,8.97543534 17.9435781,7.30308926 18.8750005,5.91611601 C17.6148408,4.33275716 15.3928201,4.07500107 12.8633691,5.56016712 C8.94896006,7.8370126 5.78942926,13.3542204 5.80160472,17.8864316 C5.81378018,22.4186429 8.99766188,24.2444152 12.9090271,21.9675698 L12.9090271,21.9675698 Z" id="Shape" fill="#FFFFFF"></path>
                        </g>
                        <g id="Group" transform="translate(46.875505, 21.479674)" fill-rule="nonzero">
                            <path d="M1.62846722,0.368222988 L2.66642483,0.981927968 C2.4509735,0.880936852 2.19814995,0.905601874 2.00590635,1.04636699 L0.970992605,0.432662011 C1.1622924,0.292442232 1.41395737,0.267776573 1.62846722,0.368222988 L1.62846722,0.368222988 Z" id="Path" fill="#7683BF"></path>
                            <g transform="translate(0.913159, 0.000000)" fill="#7683BF" id="Path">
                                <polyline points="1.09274716 1.04022994 0.0578334154 0.426524961 0.0578334154 0.426524961 1.09579103 1.04022994 1.09579103 1.04022994"></polyline>
                                <path d="M1.10187876,1.03716142 L0.0639211433,0.423456436 C0.101606704,0.400343039 0.141349152,0.380824468 0.182631838,0.365154463 L1.21754559,0.978859443 C1.17752554,0.995188878 1.13884934,1.01468365 1.10187876,1.03716142"></path>
                                <path d="M1.21754559,0.978859443 L0.182631838,0.365154463 C0.21287561,0.350724422 0.244489805,0.339415596 0.276991621,0.331400689 L1.31190537,0.945105669 L1.21754559,0.981927968"></path>
                                <polyline points="1.31190537 0.942037145 0.276991621 0.328332164 0.356132084 0.30685249 1.3940897 0.92055747 1.31190537 0.93896862"></polyline>
                                <path d="M1.3940897,0.92055747 L0.356132084,0.30685249 L0.429184819,0.30685249 L1.46714243,0.92055747 C1.44287982,0.917601004 1.41835231,0.917601004 1.3940897,0.92055747"></path>
                                <path d="M1.46714243,0.92055747 L0.429184819,0.30685249 C0.452420617,0.303764915 0.475957893,0.303764915 0.49919369,0.30685249 L1.5371513,0.92055747 C1.51391324,0.917504882 1.49038049,0.917504882 1.46714243,0.92055747"></path>
                                <polyline points="1.5371513 0.92055747 0.49919369 0.30685249 0.566158698 0.30685249 1.60411631 0.92055747 1.5371513 0.92055747"></polyline>
                                <path d="M1.60411631,0.92055747 L0.566158698,0.30685249 C0.58893684,0.311156858 0.611331728,0.317314038 0.633123705,0.325263639 L1.66803745,0.93896862 C1.64762787,0.930019981 1.62613479,0.923829349 1.60411631,0.92055747"></path>
                                <path d="M1.66803745,0.93896862 L0.633123705,0.325263639 C0.655407369,0.33197716 0.67685436,0.341243197 0.697044848,0.352880364 L1.7319586,0.966585344 L1.66803745,0.942037145"></path>
                                <polyline points="1.7319586 0.963516819 0.697044848 0.349811839 0.715308032 0.349811839 1.75326564 0.963516819 1.7319586 0.963516819"></polyline>
                            </g>
                            <path d="M1.3514756,3.25570492 L0.313517988,2.64199994 C0.124981508,2.50456472 0.0220755501,2.2772699 0.0426140955,2.04363758 C0.0781755787,1.38608028 0.423142138,0.785194143 0.970992605,0.426524961 L2.00590635,1.04022994 C1.46358524,1.40063184 1.12435649,2.00023175 1.09274716,2.65427404 C1.06581466,2.88701064 1.1645272,3.11647428 1.3514756,3.25570492 L1.3514756,3.25570492 Z" id="Path" fill="#7683BF"></path>
                            <g transform="translate(0.000000, 0.306852)" fill="#7683BF" id="Path">
                                <path d="M1.3514756,2.94885243 L0.313517988,2.33514745 C0.124981508,2.19771223 0.0220755501,1.97041741 0.0426140955,1.73678509 L0.0426140955,1.73678509 L1.08057171,2.35049007 L1.08057171,2.35049007 C1.05171055,2.58976618 1.15582844,2.82563458 1.3514756,2.96419505"></path>
                                <path d="M1.08057171,2.34435302 L0.0426140955,1.73064804 C0.0395870583,1.68364681 0.0395870583,1.63649714 0.0426140955,1.5894959 L1.07752784,2.20320088 C1.07752784,2.24922875 1.07752784,2.29832515 1.07752784,2.34435302"></path>
                                <path d="M1.08665944,2.20320088 L0.0517456874,1.5894959 C0.0548522061,1.54920032 0.0609571118,1.50919694 0.0700088712,1.46982343 L1.10492262,2.08352841 L1.08665944,2.20320088"></path>
                                <path d="M1.10492262,2.08352841 L0.0700088712,1.46982343 C0.0700088712,1.43300113 0.0700088712,1.39617883 0.091315919,1.36242506 L1.12927353,1.97613004 C1.11938481,2.01149766 1.11125768,2.04734193 1.10492262,2.08352841"></path>
                                <path d="M1.12927353,1.97613004 L0.091315919,1.36242506 C0.091315919,1.32867128 0.109579103,1.29491751 0.121754559,1.25809521 L1.15666831,1.87180019 C1.15666831,1.90555396 1.13536126,1.94237626 1.12927353,1.97613004"></path>
                                <path d="M1.15666831,1.87180019 L0.121754559,1.25809521 C0.121754559,1.22740996 0.143061606,1.19365619 0.155237062,1.15990241 L1.19015081,1.77360739 C1.19015081,1.80736117 1.1657999,1.83804642 1.15666831,1.87180019"></path>
                                <path d="M1.19015081,1.77360739 L0.155237062,1.15990241 C0.155237062,1.12614864 0.179587974,1.09239486 0.194807294,1.05864109 L1.22972104,1.67234607 C1.22972104,1.70609984 1.20232627,1.73985362 1.19015081,1.77360739"></path>
                                <path d="M1.21754559,1.67234607 L0.182631838,1.05864109 C0.182631838,1.02488732 0.213070478,0.991133543 0.228289797,0.957379769 L1.26320355,1.57108475 L1.21754559,1.67234607"></path>
                                <path d="M1.275379,1.57108475 L0.240465253,0.957379769 L0.295254805,0.849981398 L1.33321242,1.46368638 C1.31213288,1.49846958 1.29282991,1.53431576 1.275379,1.57108475"></path>
                                <path d="M1.33321242,1.46368638 L0.295254805,0.849981398 C0.316561852,0.810090574 0.340912764,0.77019975 0.365263676,0.733377451 L1.40017742,1.34708243 C1.37582651,1.38390473 1.35451946,1.42379555 1.33321242,1.46368638"></path>
                                <path d="M1.40017742,1.34708243 L0.365263676,0.733377451 C0.394241647,0.685679523 0.425740287,0.639585243 0.459623459,0.595293831 L1.49453721,1.20899881 C1.46065404,1.25329022 1.4291554,1.2993845 1.40017742,1.34708243"></path>
                                <path d="M1.49453721,1.20899881 L0.459623459,0.595293831 C0.522264924,0.508291739 0.592558215,0.427158971 0.669650073,0.352880364 L1.70456382,0.966585344 C1.62913583,1.04245057 1.55896206,1.12344539 1.49453721,1.20899881"></path>
                                <polyline points="1.70456382 0.966585344 0.669650073 0.352880364 0.748790536 0.279235766 1.78370428 0.892940746 1.70456382 0.966585344"></polyline>
                                <path d="M1.78370428,0.892940746 L0.748790536,0.279235766 C0.817553059,0.218913923 0.891970506,0.165474758 0.970992605,0.119672471 L2.00590635,0.733377451 C1.9273631,0.779928236 1.85301205,0.833319718 1.78370428,0.892940746"></path>
                            </g>
                            <path d="M2.00590635,1.04022994 C2.5172755,0.733377451 2.91906554,0.981927968 2.93732873,1.57415327 C2.90475015,2.22791048 2.5657538,2.82709961 2.02416954,3.18819737 C1.51280039,3.49504986 1.09274716,3.24956787 1.09274716,2.65427404 C1.12435649,2.00023175 1.46358524,1.40063184 2.00590635,1.04022994 L2.00590635,1.04022994 Z" id="Path" fill="#9BADDD"></path>
                        </g>
                        <g id="Group" transform="translate(49.614983, 19.638559)" fill-rule="nonzero">
                            <path d="M1.89937111,0.15649477 L2.93732873,0.77019975 C2.72210917,0.667853709 2.46856865,0.692588676 2.27681025,0.834638773 L1.23885263,0.220933793 C1.43061104,0.0788836961 1.68415155,0.0541487285 1.89937111,0.15649477 L1.89937111,0.15649477 Z" id="Path" fill="#7683BF"></path>
                            <g transform="translate(1.217546, 0.000000)" fill="#7683BF" id="Path">
                                <polyline points="1.05926466 0.9 0.0213070478 0.233333333 0.0213070478 0.233333333 1.0562208 0.9 1.0562208 0.9"></polyline>
                                <path d="M1.06535239,0.893333333 L0.0304386397,0.226666667 L0.14610547,0.163333333 L1.18406308,0.83 C1.14333183,0.84839483 1.10368502,0.869546794 1.06535239,0.893333333"></path>
                                <polyline points="1.18406308 0.83 0.14610547 0.163333333 0.240465253 0.126666667 1.27842287 0.793333333 1.18406308 0.83"></polyline>
                                <path d="M1.27842287,0.793333333 L0.240465253,0.126666667 C0.26713881,0.116842786 0.294687092,0.110138763 0.32264958,0.106666667 L1.35756333,0.773333333 L1.27842287,0.793333333"></path>
                                <path d="M1.35756333,0.773333333 L0.32264958,0.106666667 C0.346912192,0.103455063 0.371439704,0.103455063 0.395702316,0.106666667 L1.43365993,0.773333333 L1.35756333,0.773333333"></path>
                                <polyline points="1.43365993 0.76 0.395702316 0.0933333333 0.465711187 0.0933333333 1.50062494 0.76 1.43365993 0.76"></polyline>
                                <path d="M1.50062494,0.76 L0.465711187,0.0933333333 C0.488008298,0.0917117387 0.510379083,0.0917117387 0.532676194,0.0933333333 L1.56758994,0.76 C1.54530004,0.758155674 1.52291484,0.758155674 1.50062494,0.76"></path>
                                <polyline points="1.56758994 0.77 0.532676194 0.103333333 0.596597337 0.12 1.63455495 0.786666667 1.56758994 0.786666667"></polyline>
                                <path d="M1.63455495,0.786666667 L0.596597337,0.12 L0.663562345,0.15 L1.69847609,0.816666667 C1.6782856,0.804025232 1.65683861,0.793959553 1.63455495,0.786666667"></path>
                                <polyline points="1.69847609 0.816666667 0.663562345 0.15 0.681825528 0.15 1.71978314 0.816666667 1.69847609 0.816666667"></polyline>
                            </g>
                            <path d="M1.62237949,3.04090818 L0.584421881,2.4272032 C0.38938288,2.28834761 0.286343552,2.05227002 0.316561852,1.81349822 C0.347194613,1.1591695 0.686658217,0.559154488 1.22972104,0.199454119 L2.26767865,0.813159099 C1.72386919,1.17215221 1.38416826,1.77258671 1.35451946,2.4272032 C1.32360116,2.66607667 1.42679321,2.90250417 1.62237949,3.04090818 L1.62237949,3.04090818 Z" id="Path" fill="#7683BF"></path>
                            <g fill="#7683BF" id="Path">
                                <path d="M1.62237949,3.04090818 L0.584421881,2.4272032 C0.38938288,2.28834761 0.286343552,2.05227002 0.316561852,1.81349822 L0.316561852,1.81349822 L1.3514756,2.4272032 L1.3514756,2.4272032 C1.32121714,2.66668848 1.42564281,2.90325413 1.62237949,3.04090818"></path>
                                <path d="M1.3514756,2.43640877 L0.304386397,1.84111494 C0.301418013,1.79411181 0.301418013,1.74696593 0.304386397,1.6999628 L1.33930015,2.31366778 C1.33930015,2.36276417 1.33930015,2.40879205 1.33930015,2.45481992"></path>
                                <path d="M1.35756333,2.29525663 L0.32264958,1.68155165 C0.325756099,1.64125607 0.331861005,1.60125269 0.340912764,1.56187917 L1.37582651,2.17558415 L1.35756333,2.29525663"></path>
                                <path d="M1.37582651,2.17558415 L0.340912764,1.56187917 C0.340912764,1.52505688 0.340912764,1.4913031 0.362219812,1.4544808 L1.40017742,2.06818578 C1.40017742,2.10500808 1.38191424,2.13876186 1.37582651,2.17558415"></path>
                                <path d="M1.40017742,2.06818578 L0.362219812,1.4544808 C0.362219812,1.42072703 0.380482996,1.38697326 0.392658452,1.35321948 L1.4275722,1.96692446 L1.40017742,2.07125431"></path>
                                <path d="M1.4275722,1.96385594 L0.392658452,1.35015096 C0.392658452,1.31639718 0.413965499,1.28264341 0.426140955,1.24888963 L1.4610547,1.86259461 C1.4610547,1.89634839 1.43670379,1.93010216 1.4275722,1.96078741"></path>
                                <path d="M1.4610547,1.86566314 L0.426140955,1.25195816 C0.426140955,1.21820439 0.450491867,1.18445061 0.465711187,1.15069684 L1.50062494,1.76440182 L1.4610547,1.86566314"></path>
                                <polyline points="1.50062494 1.76440182 0.465711187 1.15069684 0.511369146 1.04943552 1.54628289 1.6631405 1.50062494 1.76440182"></polyline>
                                <path d="M1.54628289,1.6631405 L0.511369146,1.04943552 L0.566158698,0.942037145 L1.60411631,1.55574212 C1.58303677,1.59052533 1.56373381,1.62637151 1.54628289,1.6631405"></path>
                                <path d="M1.60411631,1.55574212 L0.566158698,0.942037145 C0.587465745,0.902146321 0.611816657,0.865324022 0.636167569,0.825433198 L1.67108132,1.43913818 C1.64673041,1.47596048 1.62542336,1.5158513 1.60411631,1.55574212"></path>
                                <polyline points="1.67108132 1.43913818 0.636167569 0.825433198 0.730527352 0.687349578 1.7654411 1.30105456 1.67108132 1.43913818"></polyline>
                                <path d="M1.7654411,1.30105456 L0.730527352,0.687349578 C0.793041373,0.602100053 0.862259014,0.522060087 0.937510102,0.448004636 L1.97546771,1.06170962 C1.89923103,1.13570923 1.82899751,1.2157469 1.7654411,1.30105456"></path>
                                <path d="M1.97546771,1.06170962 L0.937510102,0.448004636 L1.01665056,0.374360038 L2.05460818,0.988065018 C2.02612154,1.01020792 1.99963777,1.03485254 1.97546771,1.06170962"></path>
                                <path d="M2.05460818,0.988065018 L1.01665056,0.374360038 C1.08573753,0.314454364 1.16011468,0.26104414 1.23885263,0.214796743 L2.27681025,0.828501723 C2.19759369,0.873997762 2.12314713,0.927457831 2.05460818,0.988065018"></path>
                            </g>
                            <ellipse id="Oval" fill="#9BADDD" transform="translate(2.279575, 1.898549) rotate(-59.840000) translate(-2.279575, -1.898549) " cx="2.27957497" cy="1.89854893" rx="1.31679173" ry="1"></ellipse>
                        </g>
                        <ellipse id="Oval" fill="#B9EFEF" fill-rule="nonzero" cx="54.2051295" cy="28.9177787" rx="3.61002266" ry="3.63927053"></ellipse>
                        <path d="M54.8321655,26.7145778 L55.7027106,25.9597207 C56.5290486,26.5193405 57.1091607,27.3789702 57.3220462,28.3593071 L57.0968003,28.5250075 C56.5753471,27.6729584 55.7739474,27.0322909 54.8321655,26.7145778 L54.8321655,26.7145778 Z" id="Path" fill="#FFFFFF" fill-rule="nonzero"></path>
                        <ellipse id="Oval" fill="#B9EFEF" fill-rule="nonzero" cx="52.4122936" cy="35.4598738" rx="1.50975653" ry="1.52198835"></ellipse>
                        <path d="M52.6740659,34.5393163 L53.0423735,34.2324638 C53.3884524,34.4662486 53.6316231,34.8257152 53.7211551,35.2358714 L53.6267954,35.303379 C53.4077352,34.9441116 53.0705749,34.6737184 52.6740659,34.5393163 Z" id="Path" fill="#FFFFFF" fill-rule="nonzero"></path>
                        <ellipse id="Oval" fill="#B9EFEF" fill-rule="nonzero" cx="55.7575001" cy="38.6173859" rx="1.7989236" ry="1.81349822"></ellipse>
                        <path d="M56.0679743,37.518854 L56.5062907,37.1444939 C56.9175916,37.4228385 57.2065248,37.8504069 57.3129146,38.3381501 L57.2002916,38.4210003 C56.9398161,37.9954216 56.5388951,37.6759976 56.0679743,37.518854 L56.0679743,37.518854 Z" id="Path" fill="#FFFFFF" fill-rule="nonzero"></path>
                    </g>
                    <path d="M78.2224337,32.6629628 C77.2289116,31.4404563 76.0016379,30.8292123 74.5405759,30.8292123 C73.8977086,30.8292123 73.3023348,30.9470425 72.7544365,31.1827064 C72.2065383,31.4183703 71.7353528,31.7387211 71.3408661,32.1437684 C70.9463793,32.5488157 70.6359083,33.031183 70.4094437,33.5908847 C70.1829791,34.1505864 70.0697485,34.7544661 70.0697485,35.4025418 C70.0697485,36.0653465 70.1829791,36.6765905 70.4094437,37.2362923 C70.6359083,37.795994 70.9500319,38.2820435 71.351824,38.6944553 C71.7536161,39.1068671 72.2248015,39.4309001 72.7653944,39.666564 C73.3059874,39.9022279 73.8904034,40.0200581 74.5186601,40.0200581 C75.8920584,40.0200581 77.1266372,39.4309072 78.2224337,38.2525877 L78.2224337,43.3782517 L77.7841173,43.5329054 C77.1266394,43.7685693 76.5130026,43.9416323 75.9431884,44.0520998 C75.3733742,44.1625672 74.8108738,44.2178001 74.2556702,44.2178001 C73.1160419,44.2178001 72.0239144,44.0005508 70.979255,43.5660455 C69.9345957,43.1315402 69.0141405,42.5202961 68.2178617,41.732295 C67.4215829,40.9442938 66.7823778,40.0090168 66.3002274,38.9264358 C65.8180769,37.8438548 65.5770053,36.6618708 65.5770053,35.3804484 C65.5770053,34.099026 65.8144243,32.9244064 66.2892695,31.8565544 C66.7641146,30.7887024 67.399667,29.8681542 68.1959458,29.094882 C68.9922246,28.3216099 69.9163325,27.7177302 70.9682971,27.2832249 C72.0202618,26.8487196 73.1233471,26.6314702 74.277586,26.6314702 C74.9350639,26.6314702 75.5815742,26.7014319 76.2171362,26.8413573 C76.8526981,26.9812828 77.521124,27.1985322 78.2224337,27.493112 L78.2224337,32.6629628 Z M84.3150319,38.0316539 C84.3150319,38.4146078 84.3844313,38.7644161 84.5232322,39.0810895 C84.662033,39.3977628 84.8446631,39.6739273 85.0711277,39.9095912 C85.2975923,40.1452551 85.5678847,40.3293647 85.882013,40.4619257 C86.1961414,40.5944866 86.528528,40.6607661 86.8791829,40.6607661 C87.2298377,40.6607661 87.5622244,40.5944866 87.8763527,40.4619257 C88.190481,40.3293647 88.4607734,40.1452551 88.6872381,39.9095912 C88.9137027,39.6739273 89.0963327,39.3977628 89.2351336,39.0810895 C89.3739345,38.7644161 89.4433339,38.4219722 89.4433339,38.0537473 C89.4433339,37.7002515 89.3739345,37.3651719 89.2351336,37.0484986 C89.0963327,36.7318252 88.9137027,36.4556607 88.6872381,36.2199968 C88.4607734,35.984333 88.190481,35.8002233 87.8763527,35.6676624 C87.5622244,35.5351014 87.2298377,35.4688219 86.8791829,35.4688219 C86.528528,35.4688219 86.1961414,35.5351014 85.882013,35.6676624 C85.5678847,35.8002233 85.2975923,35.984333 85.0711277,36.2199968 C84.8446631,36.4556607 84.662033,36.728143 84.5232322,37.0374519 C84.3844313,37.3467607 84.3150319,37.6781581 84.3150319,38.0316539 Z M80.1291101,37.9874672 C80.1291101,37.1479146 80.2971297,36.3636075 80.633174,35.6345223 C80.9692183,34.9054371 81.4367511,34.2720999 82.0357865,33.7344917 C82.6348219,33.1968834 83.347079,32.7734312 84.172579,32.4641224 C84.9980791,32.1548135 85.9002713,32.0001614 86.8791829,32.0001614 C87.8434838,32.0001614 88.7383708,32.1511313 89.5638709,32.4530757 C90.3893709,32.75502 91.1052806,33.17479 91.7116213,33.7123983 C92.317962,34.2500065 92.7891475,34.8907081 93.1251917,35.6345223 C93.461236,36.3783364 93.6292556,37.1994655 93.6292556,38.0979341 C93.6292556,38.9964027 93.4575834,39.8175317 93.1142338,40.5613459 C92.7708842,41.30516 92.2996988,41.9458616 91.7006634,42.4834699 C91.101628,43.0210781 90.3820657,43.4371659 89.5419551,43.7317458 C88.7018444,44.0263257 87.7923469,44.1736134 86.8134354,44.1736134 C85.8491345,44.1736134 84.9579,44.0263257 84.1397053,43.7317458 C83.3215106,43.4371659 82.6165587,43.0173959 82.0248286,42.4724232 C81.4330985,41.9274504 80.9692183,41.2757023 80.633174,40.5171591 C80.2971297,39.758616 80.1291101,38.9153938 80.1291101,37.9874672 Z M99.8752645,25.4163344 L99.8752645,43.7538392 L95.9085009,43.7538392 L95.9085009,25.4163344 L99.8752645,25.4163344 Z M106.340432,38.0316539 C106.340432,38.4146078 106.409831,38.7644161 106.548632,39.0810895 C106.687433,39.3977628 106.870063,39.6739273 107.096527,39.9095912 C107.322992,40.1452551 107.593284,40.3293647 107.907413,40.4619257 C108.221541,40.5944866 108.553928,40.6607661 108.904583,40.6607661 C109.255237,40.6607661 109.587624,40.5944866 109.901752,40.4619257 C110.215881,40.3293647 110.486173,40.1452551 110.712638,39.9095912 C110.939102,39.6739273 111.121732,39.3977628 111.260533,39.0810895 C111.399334,38.7644161 111.468734,38.4219722 111.468734,38.0537473 C111.468734,37.7002515 111.399334,37.3651719 111.260533,37.0484986 C111.121732,36.7318252 110.939102,36.4556607 110.712638,36.2199968 C110.486173,35.984333 110.215881,35.8002233 109.901752,35.6676624 C109.587624,35.5351014 109.255237,35.4688219 108.904583,35.4688219 C108.553928,35.4688219 108.221541,35.5351014 107.907413,35.6676624 C107.593284,35.8002233 107.322992,35.984333 107.096527,36.2199968 C106.870063,36.4556607 106.687433,36.728143 106.548632,37.0374519 C106.409831,37.3467607 106.340432,37.6781581 106.340432,38.0316539 Z M102.15451,37.9874672 C102.15451,37.1479146 102.322529,36.3636075 102.658574,35.6345223 C102.994618,34.9054371 103.462151,34.2720999 104.061186,33.7344917 C104.660222,33.1968834 105.372479,32.7734312 106.197979,32.4641224 C107.023479,32.1548135 107.925671,32.0001614 108.904583,32.0001614 C109.868883,32.0001614 110.763771,32.1511313 111.589271,32.4530757 C112.414771,32.75502 113.13068,33.17479 113.737021,33.7123983 C114.343362,34.2500065 114.814547,34.8907081 115.150591,35.6345223 C115.486636,36.3783364 115.654655,37.1994655 115.654655,38.0979341 C115.654655,38.9964027 115.482983,39.8175317 115.139633,40.5613459 C114.796284,41.30516 114.325098,41.9458616 113.726063,42.4834699 C113.127028,43.0210781 112.407465,43.4371659 111.567355,43.7317458 C110.727244,44.0263257 109.817747,44.1736134 108.838835,44.1736134 C107.874534,44.1736134 106.9833,44.0263257 106.165105,43.7317458 C105.34691,43.4371659 104.641958,43.0173959 104.050228,42.4724232 C103.458498,41.9274504 102.994618,41.2757023 102.658574,40.5171591 C102.322529,39.758616 102.15451,38.9153938 102.15451,37.9874672 Z M117.933901,32.4199356 L121.900664,32.4199356 L121.900664,34.2757795 C122.324372,33.5982458 122.843041,33.0790566 123.456687,32.7181962 C124.070333,32.3573359 124.786243,32.1769084 125.604438,32.1769084 L125.944133,32.1769084 C126.068323,32.1769084 126.210775,32.1916372 126.371492,32.2210952 L126.371492,36.0432498 C125.845509,35.7781279 125.275704,35.645569 124.662057,35.645569 C123.741588,35.645569 123.051247,35.9217335 122.591012,36.4740707 C122.130778,37.0264079 121.900664,37.8328082 121.900664,38.8932957 L121.900664,43.7538392 L117.933901,43.7538392 L117.933901,32.4199356 Z M128.124757,32.4199356 L132.091521,32.4199356 L132.091521,33.8118185 C133.172707,32.76606 134.38537,32.2431886 135.729547,32.2431886 C137.395158,32.2431886 138.666262,32.9501696 139.5429,34.364153 C140.434147,32.9354406 141.705252,32.2210952 143.356252,32.2210952 C143.882235,32.2210952 144.378988,32.2984212 144.846528,32.4530757 C145.314068,32.6077301 145.715854,32.8507548 146.051898,33.1821572 C146.387943,33.5135595 146.654582,33.9443761 146.851826,34.4746199 C147.049069,35.0048636 147.147689,35.6455652 147.147689,36.3967439 L147.147689,43.7538392 L143.180926,43.7538392 L143.180926,38.1642142 C143.180926,37.5897835 143.140747,37.1184628 143.060389,36.7502379 C142.98003,36.3820131 142.863147,36.0948021 142.709736,35.8885962 C142.556324,35.6823902 142.377347,35.5424669 142.172798,35.4688219 C141.968249,35.395177 141.749093,35.358355 141.515324,35.358355 C140.2442,35.358355 139.608647,36.2936321 139.608647,38.1642142 L139.608647,43.7538392 L135.641884,43.7538392 L135.641884,38.1642142 C135.641884,37.5897835 135.605358,37.1147806 135.532304,36.7391913 C135.459251,36.3636019 135.353326,36.0653443 135.214525,35.8444094 C135.075724,35.6234745 134.896747,35.4725046 134.677587,35.3914951 C134.458428,35.3104857 134.202746,35.2699815 133.910534,35.2699815 C133.662153,35.2699815 133.428387,35.3068035 133.209228,35.3804484 C132.990068,35.4540934 132.79648,35.5976989 132.628458,35.8112693 C132.460436,36.0248397 132.328943,36.3194152 132.233974,36.6950045 C132.139004,37.0705938 132.091521,37.5603255 132.091521,38.1642142 L132.091521,43.7538392 L128.124757,43.7538392 L128.124757,32.4199356 Z M153.547109,38.0537473 C153.547109,38.4219722 153.612856,38.7644161 153.744351,39.0810895 C153.875847,39.3977628 154.054824,39.6739273 154.281289,39.9095912 C154.507754,40.1452551 154.778046,40.3293647 155.092174,40.4619257 C155.406303,40.5944866 155.745994,40.6607661 156.11126,40.6607661 C156.461915,40.6607661 156.794301,40.5944866 157.10843,40.4619257 C157.422558,40.3293647 157.692851,40.1452551 157.919315,39.9095912 C158.14578,39.6739273 158.32841,39.401445 158.467211,39.0921361 C158.606012,38.7828273 158.675411,38.4514299 158.675411,38.0979341 C158.675411,37.7444382 158.606012,37.4093587 158.467211,37.0926853 C158.32841,36.776012 158.14578,36.4998475 157.919315,36.2641836 C157.692851,36.0285197 157.422558,35.8444101 157.10843,35.7118491 C156.794301,35.5792882 156.461915,35.5130087 156.11126,35.5130087 C155.745994,35.5130087 155.406303,35.5792882 155.092174,35.7118491 C154.778046,35.8444101 154.507754,36.0285197 154.281289,36.2641836 C154.054824,36.4998475 153.875847,36.7686476 153.744351,37.0705919 C153.612856,37.3725363 153.547109,37.7002515 153.547109,38.0537473 Z M158.543916,32.4199356 L162.532595,32.4199356 L162.532595,43.7538392 L158.543916,43.7538392 L158.543916,42.4945166 C157.6965,43.5697331 156.549584,44.1073332 155.103132,44.1073332 C154.284938,44.1073332 153.532502,43.9563633 152.845803,43.654419 C152.159104,43.3524746 151.560077,42.9290224 151.048705,42.3840497 C150.537334,41.8390769 150.1392,41.1983753 149.854293,40.4619257 C149.569386,39.725476 149.426935,38.9227579 149.426935,38.0537473 C149.426935,37.2436527 149.565734,36.4740743 149.843335,35.7449892 C150.120937,35.015904 150.508113,34.3788846 151.004874,33.8339119 C151.501635,33.2889391 152.093356,32.8581225 152.780055,32.5414492 C153.466754,32.2247758 154.226495,32.0664415 155.059301,32.0664415 C156.46192,32.0664415 157.623447,32.5598554 158.543916,33.5466979 L158.543916,32.4199356 Z M169.655237,35.7560359 L169.655237,43.7538392 L165.688474,43.7538392 L165.688474,35.7560359 L164.373524,35.7560359 L164.373524,32.4199356 L165.688474,32.4199356 L165.688474,29.0175552 L169.655237,29.0175552 L169.655237,32.4199356 L171.912567,32.4199356 L171.912567,35.7560359 L169.655237,35.7560359 Z M181.621275,36.4409306 C181.48978,35.8812289 181.219487,35.4320013 180.81039,35.0932345 C180.401292,34.7544677 179.904539,34.5850868 179.320114,34.5850868 C178.706468,34.5850868 178.206062,34.7471033 177.81888,35.0711411 C177.431699,35.395179 177.186975,35.8517709 177.0847,36.4409306 L181.621275,36.4409306 Z M176.975121,38.7607355 C176.975121,40.4840277 177.778693,41.3456608 179.385861,41.3456608 C180.247888,41.3456608 180.898051,40.9921703 181.336369,40.2851786 L185.171638,40.2851786 C184.397275,42.8774814 182.461397,44.1736134 179.363946,44.1736134 C178.414255,44.1736134 177.544936,44.0300079 176.755963,43.7427925 C175.966989,43.4555771 175.291258,43.0468537 174.72875,42.5166099 C174.166241,41.9863662 173.731581,41.353029 173.424758,40.6165793 C173.117935,39.8801297 172.964526,39.0553184 172.964526,38.1421208 C172.964526,37.1994653 173.11063,36.3488787 173.402842,35.5903355 C173.695055,34.8317924 174.111451,34.1874086 174.652044,33.6571648 C175.192637,33.1269211 175.846453,32.7181977 176.61351,32.4309823 C177.380568,32.1437669 178.246234,32.0001614 179.210535,32.0001614 C180.160225,32.0001614 181.014934,32.1437669 181.774686,32.4309823 C182.534438,32.7181977 183.177296,33.1342855 183.703278,33.6792582 C184.22926,34.224231 184.631046,34.8907079 184.908648,35.678709 C185.18625,36.4667102 185.325049,37.3541187 185.325049,38.3409613 L185.325049,38.7607355 L176.975121,38.7607355 Z" id="Colormate" fill="#4D4F59" fill-rule="nonzero"></path>
                </g>
            </g>
        </g>
    </g>
</svg>