<?xml version="1.0" encoding="UTF-8"?>
<svg width="15px" height="13px" viewBox="0 0 15 13" version="1.1" xmlns="http://www.w3.org/2000/svg" xmlns:xlink="http://www.w3.org/1999/xlink">
    <!-- Generator: Sketch 53.2 (72643) - https://sketchapp.com -->
    <title>Group 2</title>
    <desc>Created with Sketch.</desc>
    <g id="Page-1" stroke="none" stroke-width="1" fill="none" fill-rule="evenodd">
        <g id="Desktop-HD-Copy-2" transform="translate(-572.000000, -36.000000)">
            <g id="Group-2" transform="translate(572.000000, 36.000000)">
                <path d="M0.25,3 L14.75,3 C14.8880712,3 15,3.11192881 15,3.25 L15,12 C15,12.5522847 14.5522847,13 14,13 L1,13 C0.44771525,13 6.76353751e-17,12.5522847 0,12 L0,3.25 C-1.69088438e-17,3.11192881 0.111928813,3 0.25,3 Z" id="Rectangle" fill="#A1A1A2"></path>
                <path d="M0,1 L14.5,1 C14.7761424,1 15,1.22385763 15,1.5 L15,1.75 C15,1.88807119 14.8880712,2 14.75,2 L0.25,2 C0.111928813,2 1.69088438e-17,1.88807119 0,1.75 L0,1 Z" id="Rectangle" fill="#7F8080"></path>
                <path d="M0.5,0 L5.5,0 C5.77614237,-5.07265313e-17 6,0.223857625 6,0.5 L6,1 L0,1 L0,0.5 C-3.38176876e-17,0.223857625 0.223857625,5.07265313e-17 0.5,0 Z" id="Rectangle-Copy" fill="#7F8080"></path>
            </g>
        </g>
    </g>
</svg>