<?xml version="1.0" encoding="UTF-8"?>
<svg width="197px" height="254px" viewBox="0 0 197 254" version="1.1" xmlns="http://www.w3.org/2000/svg" xmlns:xlink="http://www.w3.org/1999/xlink">
    <!-- Generator: sketchtool 53.1 (72631) - https://sketchapp.com -->
    <title>BD05930F-448E-41CB-951B-8B3A476E31B4@1.00x</title>
    <desc>Created with sketchtool.</desc>
    <g id="Slice-2" stroke="none" stroke-width="1" fill="none" fill-rule="evenodd">
        <g id="noColoursFound" transform="translate(-72.000000, -137.000000)" fill-rule="nonzero">
            <g id="minimilistBubbles" transform="translate(76.000000, 139.000000)">
                <g id="bubbleYellow" transform="translate(0.000000, 32.000000)">
                    <ellipse id="Oval" stroke="#000000" stroke-width="7" fill="#FFE300" cx="79.6486294" cy="78.7724651" rx="79.6486294" ry="78.7724651"></ellipse>
                    <path d="M93.4830457,31.083907 L112.690051,14.7449302 C130.921707,26.8579707 143.720831,45.4647633 148.417766,66.6842791 L143.448122,70.2708837 C131.9432,51.8281742 114.261763,37.9608471 93.4830457,31.083907 L93.4830457,31.083907 Z" id="Path" fill="#FFFFFF"></path>
                    <path d="M105.2036,60.8732 C105.2036,63.2580119 104.914536,65.3537243 104.3364,67.1604 C103.758264,68.9670757 102.945272,70.6291924 101.8974,72.1468 C100.849528,73.6644076 99.5848741,75.09166 98.1034,76.4286 C96.6219259,77.76554 94.9417427,79.1566594 93.0628,80.602 C91.9065276,81.5414714 90.9490038,82.3725297 90.1902,83.0952 C89.4313962,83.8178703 88.8352022,84.5585962 88.4016,85.3174 C87.9679978,86.0762038 87.6608676,86.8711292 87.4802,87.7022 C87.2995324,88.5332708 87.2092,89.5269276 87.2092,90.6832 L87.2092,93.5016 L70.2988,93.5016 L70.2988,89.3824 C70.2988,87.5034573 70.4794649,85.8232741 70.8408,84.3418 C71.2021351,82.8603259 71.7441297,81.5053395 72.4668,80.2768 C73.1894703,79.0482605 74.0747281,77.8558724 75.1226,76.6996 C76.1704719,75.5433276 77.4170594,74.3509395 78.8624,73.1224 L82.4396,69.762 C83.6681395,68.6779946 84.7159957,67.539806 85.5832,66.3474 C86.4504043,65.154994 86.884,63.7277416 86.884,62.0656 C86.884,59.7530551 86.179407,57.9102735 84.7702,56.5372 C83.360993,55.1641265 81.427879,54.4776 78.9708,54.4776 C75.9355848,54.4776 73.6592076,55.5073897 72.1416,57.567 C70.6239924,59.6266103 69.7929341,61.957187 69.6484,64.5588 L52.4128,62.716 C52.8464022,58.8135805 53.8400589,55.3809481 55.3938,52.418 C56.9475411,49.4550519 58.952921,46.9980098 61.41,45.0468 C63.867079,43.0955902 66.6493178,41.6322049 69.7568,40.6566 C72.8642822,39.6809951 76.1523827,39.1932 79.6212,39.1932 C82.8732163,39.1932 86.0348513,39.6087292 89.1062,40.4398 C92.1775487,41.2708708 94.9055881,42.5716578 97.2904,44.3422 C99.6752119,46.1127422 101.590259,48.3710529 103.0356,51.1172 C104.480941,53.8633471 105.2036,57.1153145 105.2036,60.8732 Z M89.3772,108.786 C89.3772,111.676681 88.3654768,114.115657 86.342,116.103 C84.3185232,118.090343 81.8253481,119.084 78.8624,119.084 C77.4170594,119.084 76.062073,118.831069 74.7974,118.3252 C73.532727,117.819331 72.4126049,117.096671 71.437,116.1572 C70.4613951,115.217729 69.6845362,114.133739 69.1064,112.9052 C68.5282638,111.676661 68.2392,110.339741 68.2392,108.8944 C68.2392,107.521326 68.5101973,106.202473 69.0522,104.9378 C69.5942027,103.673127 70.3529951,102.571071 71.3286,101.6316 C72.3042049,100.692129 73.4423935,99.9514027 74.7432,99.4094 C76.0440065,98.8673973 77.4170594,98.5964 78.8624,98.5964 C80.3077406,98.5964 81.662727,98.8673973 82.9274,99.4094 C84.192073,99.9514027 85.3121951,100.674062 86.2878,101.5774 C87.2634049,102.480738 88.0221973,103.564727 88.5642,104.8294 C89.1062027,106.094073 89.3772,107.412926 89.3772,108.786 Z" id="?" fill="#000000"></path>
                </g>
                <g id="bubbleNavy" transform="translate(122.000000, 181.000000)">
                    <ellipse id="Oval" stroke="#000000" stroke-width="5" fill="#273795" cx="34.1351269" cy="33.7596279" rx="34.1351269" ry="33.7596279"></ellipse>
                    <path d="M37.0641624,16.3216744 L45.295736,9.31925581 C53.1093029,14.5105589 58.594642,22.4848986 60.6076142,31.5789767 L58.4777665,33.116093 C53.5470855,25.2120747 45.9693268,19.2689345 37.0641624,16.3216744 L37.0641624,16.3216744 Z" id="Path" fill="#FFFFFF"></path>
                </g>
                <g id="bubbleRed" transform="translate(138.000000, 0.000000)">
                    <ellipse id="Oval" stroke="#000000" stroke-width="4" fill="#E00406" cx="18.9639594" cy="18.7553488" rx="18.9639594" ry="18.7553488"></ellipse>
                    <path d="M20.257868,10.4009302 L24.8309645,6.51069767 C29.1718349,9.39475493 32.2192456,13.8249436 33.3375635,18.8772093 L32.1543147,19.7311628 C29.4150475,15.3400415 25.2051816,12.0382969 20.257868,10.4009302 L20.257868,10.4009302 Z" id="Path" fill="#FFFFFF"></path>
                </g>
            </g>
        </g>
    </g>
</svg>