<?xml version="1.0" encoding="UTF-8"?>
<svg width="39px" height="37px" viewBox="0 0 39 37" version="1.1" xmlns="http://www.w3.org/2000/svg" xmlns:xlink="http://www.w3.org/1999/xlink">
    <!-- Generator: Sketch 53.1 (72631) - https://sketchapp.com -->
    <title>replaceBtnHover</title>
    <desc>Created with Sketch.</desc>
    <g id="replaceBtnHover" stroke="none" stroke-width="1" fill="none" fill-rule="evenodd">
        <rect id="Rectangle" fill="#9E97FF" x="0" y="0" width="39" height="37" rx="5"></rect>
        <g id="Group-4" transform="translate(4.000000, 4.000000)" fill="#FFFFFF">
            <g id="Group-3" transform="translate(15.750000, 14.603553) rotate(-315.000000) translate(-15.750000, -14.603553) translate(10.250000, 3.103553)">
                <path d="M4.5,0 L6,0 C7.1045695,-2.02906125e-16 8,0.8954305 8,2 L8,6.5 C8,7.05228475 7.55228475,7.5 7,7.5 L3.5,7.5 C2.94771525,7.5 2.5,7.05228475 2.5,6.5 L2.5,2 C2.5,0.8954305 3.3954305,2.02906125e-16 4.5,0 Z" id="Rectangle"></path>
                <path d="M5,7 C4.44771525,7 4,7.44771525 4,8 L4,20 C4,20.5522847 4.44771525,21 5,21 L5.5,21 C6.05228475,21 6.5,20.5522847 6.5,20 L6.5,8 C6.5,7.44771525 6.05228475,7 5.5,7 L5,7 Z M5,5.5 L5.5,5.5 C6.88071187,5.5 8,6.61928813 8,8 L8,20 C8,21.3807119 6.88071187,22.5 5.5,22.5 L5,22.5 C3.61928813,22.5 2.5,21.3807119 2.5,20 L2.5,8 C2.5,6.61928813 3.61928813,5.5 5,5.5 Z" id="Rectangle-Copy" fill-rule="nonzero"></path>
                <rect id="Rectangle" x="0" y="5.5" width="10.5" height="3" rx="1.5"></rect>
            </g>
        </g>
    </g>
</svg>