<?xml version="1.0" encoding="UTF-8"?>
<svg width="229px" height="24px" viewBox="0 0 229 24" version="1.1" xmlns="http://www.w3.org/2000/svg" xmlns:xlink="http://www.w3.org/1999/xlink">
    <!-- Generator: sketchtool 53.1 (72631) - https://sketchapp.com -->
    <title>F996EE4F-85A7-47D7-A83F-001EC7B6C59B@1.00x</title>
    <desc>Created with sketchtool.</desc>
    <g id="Slice-1" stroke="none" stroke-width="1" fill="none" fill-rule="evenodd">
        <g id="loader" transform="translate(-46.000000, -38.000000)" fill="#FFFFFF" fill-rule="nonzero">
            <path d="M55.3,44.78 C54.8733312,44.4333316 54.4466688,44.1766675 54.02,44.01 C53.5933312,43.8433325 53.180002,43.76 52.78,43.76 C52.2733308,43.76 51.8600016,43.8799988 51.54,44.12 C51.2199984,44.3600012 51.06,44.6733314 51.06,45.06 C51.06,45.326668 51.1399992,45.5466658 51.3,45.72 C51.4600008,45.8933342 51.6699987,46.0433327 51.93,46.17 C52.1900013,46.2966673 52.4833317,46.4066662 52.81,46.5 C53.1366683,46.5933338 53.4599984,46.6933328 53.78,46.8 C55.0600064,47.2266688 55.9966637,47.7966631 56.59,48.51 C57.1833363,49.2233369 57.48,50.1533276 57.48,51.3 C57.48,52.0733372 57.3500013,52.7733302 57.09,53.4 C56.8299987,54.0266698 56.4500025,54.5633311 55.95,55.01 C55.4499975,55.4566689 54.8366703,55.8033321 54.11,56.05 C53.3833297,56.2966679 52.5600046,56.42 51.64,56.42 C49.7333238,56.42 47.9666748,55.853339 46.34,54.72 L48.02,51.56 C48.6066696,52.0800026 49.1866638,52.4666654 49.76,52.72 C50.3333362,52.9733346 50.8999972,53.1 51.46,53.1 C52.1000032,53.1 52.5766651,52.9533348 52.89,52.66 C53.2033349,52.3666652 53.36,52.0333352 53.36,51.66 C53.36,51.4333322 53.3200004,51.2366675 53.24,51.07 C53.1599996,50.9033325 53.0266676,50.7500007 52.84,50.61 C52.6533324,50.4699993 52.4100015,50.3400006 52.11,50.22 C51.8099985,50.0999994 51.4466688,49.9666674 51.02,49.82 C50.5133308,49.6599992 50.0166691,49.4833343 49.53,49.29 C49.0433309,49.0966657 48.6100019,48.8400016 48.23,48.52 C47.8499981,48.1999984 47.5433345,47.7966691 47.31,47.31 C47.0766655,46.8233309 46.96,46.2066704 46.96,45.46 C46.96,44.7133296 47.0833321,44.0366697 47.33,43.43 C47.5766679,42.8233303 47.9233311,42.3033355 48.37,41.87 C48.8166689,41.4366645 49.3633301,41.1000012 50.01,40.86 C50.6566699,40.6199988 51.379996,40.5 52.18,40.5 C52.9266704,40.5 53.7066626,40.6033323 54.52,40.81 C55.3333374,41.0166677 56.1133296,41.319998 56.86,41.72 L55.3,44.78 Z M67.34,49.06 C66.7133302,48.6333312 66.0800032,48.42 65.44,48.42 C65.0933316,48.42 64.7700015,48.4799994 64.47,48.6 C64.1699985,48.7200006 63.9066678,48.8899989 63.68,49.11 C63.4533322,49.3300011 63.2766673,49.5899985 63.15,49.89 C63.0233327,50.1900015 62.96,50.5266648 62.96,50.9 C62.96,51.2600018 63.0233327,51.5899985 63.15,51.89 C63.2766673,52.1900015 63.4499989,52.4499989 63.67,52.67 C63.8900011,52.8900011 64.1533318,53.0599994 64.46,53.18 C64.7666682,53.3000006 65.0933316,53.36 65.44,53.36 C66.1200034,53.36 66.7533304,53.126669 67.34,52.66 L67.34,55.74 C66.4466622,56.1266686 65.600004,56.32 64.8,56.32 C64.0533296,56.32 63.3433367,56.1933346 62.67,55.94 C61.9966633,55.6866654 61.4033359,55.3233357 60.89,54.85 C60.3766641,54.3766643 59.9666682,53.8100033 59.66,53.15 C59.3533318,52.4899967 59.2,51.7533374 59.2,50.94 C59.2,50.1266626 59.3466652,49.3833367 59.64,48.71 C59.9333348,48.0366633 60.3333308,47.4566691 60.84,46.97 C61.3466692,46.4833309 61.9499965,46.1033347 62.65,45.83 C63.3500035,45.5566653 64.099996,45.42 64.9,45.42 C65.7800044,45.42 66.5933296,45.6066648 67.34,45.98 L67.34,49.06 Z M72.76,50.84 C72.76,51.173335 72.8199994,51.4833319 72.94,51.77 C73.0600006,52.0566681 73.2233323,52.3066656 73.43,52.52 C73.6366677,52.7333344 73.8833319,52.8999994 74.17,53.02 C74.4566681,53.1400006 74.766665,53.2 75.1,53.2 C75.4200016,53.2 75.7233319,53.1400006 76.01,53.02 C76.2966681,52.8999994 76.5433323,52.7333344 76.75,52.52 C76.9566677,52.3066656 77.1233327,52.0600014 77.25,51.78 C77.3766673,51.4999986 77.44,51.2000016 77.44,50.88 C77.44,50.5599984 77.3766673,50.2566681 77.25,49.97 C77.1233327,49.6833319 76.9566677,49.4333344 76.75,49.22 C76.5433323,49.0066656 76.2966681,48.8400006 76.01,48.72 C75.7233319,48.5999994 75.4200016,48.54 75.1,48.54 C74.766665,48.54 74.4566681,48.5999994 74.17,48.72 C73.8833319,48.8400006 73.6366677,49.0066656 73.43,49.22 C73.2233323,49.4333344 73.0600006,49.6766653 72.94,49.95 C72.8199994,50.2233347 72.76,50.5199984 72.76,50.84 Z M77.32,45.74 L80.96,45.74 L80.96,56 L77.32,56 L77.32,54.86 C76.5466628,55.8333382 75.5000066,56.32 74.18,56.32 C73.4333296,56.32 72.7466698,56.1833347 72.12,55.91 C71.4933302,55.6366653 70.946669,55.2533358 70.48,54.76 C70.013331,54.2666642 69.6500013,53.68667 69.39,53.02 C69.1299987,52.35333 69,51.6266706 69,50.84 C69,50.106663 69.1266654,49.4100033 69.38,48.75 C69.6333346,48.0899967 69.9866644,47.5133358 70.44,47.02 C70.8933356,46.5266642 71.4333302,46.1366681 72.06,45.85 C72.6866698,45.5633319 73.3799962,45.42 74.14,45.42 C75.4200064,45.42 76.4799958,45.8666622 77.32,46.76 L77.32,45.74 Z M83.42,45.74 L87.04,45.74 L87.04,47.04 C87.5333358,46.439997 88.0333308,46.0366677 88.54,45.83 C89.0466692,45.6233323 89.6399966,45.52 90.32,45.52 C91.0400036,45.52 91.6566641,45.6366655 92.17,45.87 C92.6833359,46.1033345 93.1199982,46.4333312 93.48,46.86 C93.7733348,47.2066684 93.9733328,47.5933312 94.08,48.02 C94.1866672,48.4466688 94.24,48.9333306 94.24,49.48 L94.24,56 L90.62,56 L90.62,50.82 C90.62,50.3133308 90.5833337,49.9033349 90.51,49.59 C90.4366663,49.2766651 90.3066676,49.0266676 90.12,48.84 C89.9599992,48.6799992 89.780001,48.566667 89.58,48.5 C89.379999,48.433333 89.1666678,48.4 88.94,48.4 C88.3266636,48.4 87.8566683,48.5833315 87.53,48.95 C87.2033317,49.3166685 87.04,49.8399966 87.04,50.52 L87.04,56 L83.42,56 L83.42,45.74 Z M96.7,45.74 L100.32,45.74 L100.32,47.04 C100.813336,46.439997 101.313331,46.0366677 101.82,45.83 C102.326669,45.6233323 102.919997,45.52 103.6,45.52 C104.320004,45.52 104.936664,45.6366655 105.45,45.87 C105.963336,46.1033345 106.399998,46.4333312 106.76,46.86 C107.053335,47.2066684 107.253333,47.5933312 107.36,48.02 C107.466667,48.4466688 107.52,48.9333306 107.52,49.48 L107.52,56 L103.9,56 L103.9,50.82 C103.9,50.3133308 103.863334,49.9033349 103.79,49.59 C103.716666,49.2766651 103.586668,49.0266676 103.4,48.84 C103.239999,48.6799992 103.060001,48.566667 102.86,48.5 C102.659999,48.433333 102.446668,48.4 102.22,48.4 C101.606664,48.4 101.136668,48.5833315 100.81,48.95 C100.483332,49.3166685 100.32,49.8399966 100.32,50.52 L100.32,56 L96.7,56 L96.7,45.74 Z M113.6,45.74 L113.6,56 L109.98,56 L109.98,45.74 L113.6,45.74 Z M109.74,41.8 C109.74,41.5199986 109.793333,41.2566679 109.9,41.01 C110.006667,40.7633321 110.153332,40.5466676 110.34,40.36 C110.526668,40.1733324 110.743332,40.0266672 110.99,39.92 C111.236668,39.8133328 111.499999,39.76 111.78,39.76 C112.060001,39.76 112.323332,39.8133328 112.57,39.92 C112.816668,40.0266672 113.033332,40.1733324 113.22,40.36 C113.406668,40.5466676 113.553333,40.7633321 113.66,41.01 C113.766667,41.2566679 113.82,41.5199986 113.82,41.8 C113.82,42.0800014 113.766667,42.3433321 113.66,42.59 C113.553333,42.8366679 113.406668,43.0533324 113.22,43.24 C113.033332,43.4266676 112.816668,43.5733328 112.57,43.68 C112.323332,43.7866672 112.060001,43.84 111.78,43.84 C111.499999,43.84 111.236668,43.7866672 110.99,43.68 C110.743332,43.5733328 110.526668,43.4266676 110.34,43.24 C110.153332,43.0533324 110.006667,42.8366679 109.9,42.59 C109.793333,42.3433321 109.74,42.0800014 109.74,41.8 Z M116.08,45.74 L119.7,45.74 L119.7,47.04 C120.193336,46.439997 120.693331,46.0366677 121.2,45.83 C121.706669,45.6233323 122.299997,45.52 122.98,45.52 C123.700004,45.52 124.316664,45.6366655 124.83,45.87 C125.343336,46.1033345 125.779998,46.4333312 126.14,46.86 C126.433335,47.2066684 126.633333,47.5933312 126.74,48.02 C126.846667,48.4466688 126.9,48.9333306 126.9,49.48 L126.9,56 L123.28,56 L123.28,50.82 C123.28,50.3133308 123.243334,49.9033349 123.17,49.59 C123.096666,49.2766651 122.966668,49.0266676 122.78,48.84 C122.619999,48.6799992 122.440001,48.566667 122.24,48.5 C122.039999,48.433333 121.826668,48.4 121.6,48.4 C120.986664,48.4 120.516668,48.5833315 120.19,48.95 C119.863332,49.3166685 119.7,49.8399966 119.7,50.52 L119.7,56 L116.08,56 L116.08,45.74 Z M132.72,50.82 C132.72,51.153335 132.779999,51.4633319 132.9,51.75 C133.020001,52.0366681 133.183332,52.2866656 133.39,52.5 C133.596668,52.7133344 133.843332,52.8799994 134.13,53 C134.416668,53.1200006 134.726665,53.18 135.06,53.18 C135.380002,53.18 135.683332,53.1200006 135.97,53 C136.256668,52.8799994 136.503332,52.7133344 136.71,52.5 C136.916668,52.2866656 137.083333,52.0366681 137.21,51.75 C137.336667,51.4633319 137.4,51.1600016 137.4,50.84 C137.4,50.506665 137.336667,50.2000014 137.21,49.92 C137.083333,49.6399986 136.913334,49.3933344 136.7,49.18 C136.486666,48.9666656 136.236668,48.8000006 135.95,48.68 C135.663332,48.5599994 135.366668,48.5 135.06,48.5 C134.739998,48.5 134.440001,48.5633327 134.16,48.69 C133.879999,48.8166673 133.633334,48.9833323 133.42,49.19 C133.206666,49.3966677 133.036667,49.6399986 132.91,49.92 C132.783333,50.2000014 132.72,50.4999984 132.72,50.82 Z M140.84,45.74 L140.84,55.3 C140.84,55.8733362 140.806667,56.3866644 140.74,56.84 C140.673333,57.2933356 140.580001,57.6933316 140.46,58.04 C140.299999,58.4800022 140.050002,58.8899981 139.71,59.27 C139.369998,59.6500019 138.960002,59.9799986 138.48,60.26 C137.999998,60.5400014 137.45667,60.7599992 136.85,60.92 C136.24333,61.0800008 135.58667,61.16 134.88,61.16 C134.079996,61.16 133.34667,61.060001 132.68,60.86 C132.01333,60.659999 131.430002,60.3833351 130.93,60.03 C130.429997,59.6766649 130.020002,59.2633357 129.7,58.79 C129.379998,58.3166643 129.166667,57.8000028 129.06,57.24 L133.14,57.24 C133.393335,57.9200034 133.966662,58.26 134.86,58.26 C135.620004,58.26 136.203331,58.0466688 136.61,57.62 C137.016669,57.1933312 137.22,56.6000038 137.22,55.84 L137.22,54.86 C136.953332,55.1133346 136.696668,55.3233325 136.45,55.49 C136.203332,55.6566675 135.953335,55.7933328 135.7,55.9 C135.446665,56.0066672 135.180001,56.0833331 134.9,56.13 C134.619999,56.1766669 134.313335,56.2 133.98,56.2 C133.246663,56.2 132.573336,56.0733346 131.96,55.82 C131.346664,55.5666654 130.816669,55.2133356 130.37,54.76 C129.923331,54.3066644 129.576668,53.7633365 129.33,53.13 C129.083332,52.4966635 128.96,51.7933372 128.96,51.02 C128.96,50.2333294 129.093332,49.5033367 129.36,48.83 C129.626668,48.1566633 129.989998,47.5700025 130.45,47.07 C130.910002,46.5699975 131.456663,46.1766681 132.09,45.89 C132.723336,45.6033319 133.41333,45.46 134.16,45.46 C135.373339,45.46 136.393329,45.9133288 137.22,46.82 L137.22,45.74 L140.84,45.74 Z M152.9,45.74 L155.36,51.14 L157.92,45.74 L160.2,45.74 L162.76,51.3 L165.34,45.74 L169.36,45.74 L164,56 L161.58,56 L159.02,50.38 L156.58,56 L154.12,56 L148.86,45.74 L152.9,45.74 Z M170.6,39.4 L174.22,39.4 L174.22,47.04 C174.713336,46.439997 175.213331,46.0366677 175.72,45.83 C176.226669,45.6233323 176.819997,45.52 177.5,45.52 C178.79334,45.52 179.769997,45.8766631 180.43,46.59 C181.090003,47.3033369 181.42,48.2666606 181.42,49.48 L181.42,56 L177.8,56 L177.8,50.82 C177.8,50.2999974 177.76,49.8800016 177.68,49.56 C177.6,49.2399984 177.466668,48.9933342 177.28,48.82 C176.959998,48.5399986 176.573336,48.4 176.12,48.4 C175.506664,48.4 175.036668,48.5833315 174.71,48.95 C174.383332,49.3166685 174.22,49.8399966 174.22,50.52 L174.22,56 L170.6,56 L170.6,39.4 Z M187.3,50.82 C187.3,51.1666684 187.363333,51.4833319 187.49,51.77 C187.616667,52.0566681 187.783332,52.3066656 187.99,52.52 C188.196668,52.7333344 188.443332,52.8999994 188.73,53.02 C189.016668,53.1400006 189.319998,53.2 189.64,53.2 C189.960002,53.2 190.263332,53.1400006 190.55,53.02 C190.836668,52.8999994 191.083332,52.7333344 191.29,52.52 C191.496668,52.3066656 191.663333,52.0566681 191.79,51.77 C191.916667,51.4833319 191.98,51.173335 191.98,50.84 C191.98,50.5199984 191.916667,50.2166681 191.79,49.93 C191.663333,49.6433319 191.496668,49.3933344 191.29,49.18 C191.083332,48.9666656 190.836668,48.8000006 190.55,48.68 C190.263332,48.5599994 189.960002,48.5 189.64,48.5 C189.319998,48.5 189.016668,48.5599994 188.73,48.68 C188.443332,48.8000006 188.196668,48.9666656 187.99,49.18 C187.783332,49.3933344 187.616667,49.6399986 187.49,49.92 C187.363333,50.2000014 187.3,50.4999984 187.3,50.82 Z M183.48,50.78 C183.48,50.0199962 183.633332,49.3100033 183.94,48.65 C184.246668,47.9899967 184.673331,47.4166691 185.22,46.93 C185.766669,46.4433309 186.416663,46.0600014 187.17,45.78 C187.923337,45.4999986 188.746662,45.36 189.64,45.36 C190.520004,45.36 191.336663,45.4966653 192.09,45.77 C192.843337,46.0433347 193.496664,46.4233309 194.05,46.91 C194.603336,47.3966691 195.033332,47.9766633 195.34,48.65 C195.646668,49.3233367 195.8,50.0666626 195.8,50.88 C195.8,51.6933374 195.643335,52.4366633 195.33,53.11 C195.016665,53.7833367 194.586669,54.3633309 194.04,54.85 C193.493331,55.3366691 192.83667,55.713332 192.07,55.98 C191.303329,56.246668 190.473338,56.38 189.58,56.38 C188.699996,56.38 187.88667,56.246668 187.14,55.98 C186.39333,55.713332 185.750003,55.3333358 185.21,54.84 C184.669997,54.3466642 184.246668,53.7566701 183.94,53.07 C183.633332,52.3833299 183.48,51.6200042 183.48,50.78 Z M201.5,39.4 L201.5,56 L197.88,56 L197.88,39.4 L201.5,39.4 Z M211.48,49.38 C211.359999,48.8733308 211.113335,48.4666682 210.74,48.16 C210.366665,47.8533318 209.913336,47.7 209.38,47.7 C208.819997,47.7 208.363335,47.8466652 208.01,48.14 C207.656665,48.4333348 207.433334,48.846664 207.34,49.38 L211.48,49.38 Z M207.24,51.48 C207.24,53.0400078 207.973326,53.82 209.44,53.82 C210.226671,53.82 210.819998,53.5000032 211.22,52.86 L214.72,52.86 C214.01333,55.2066784 212.246681,56.38 209.42,56.38 C208.553329,56.38 207.760004,56.2500013 207.04,55.99 C206.319996,55.7299987 205.703336,55.3600024 205.19,54.88 C204.676664,54.3999976 204.280001,53.82667 204,53.16 C203.719999,52.49333 203.58,51.7466708 203.58,50.92 C203.58,50.0666624 203.713332,49.2966701 203.98,48.61 C204.246668,47.9233299 204.626664,47.3400024 205.12,46.86 C205.613336,46.3799976 206.209996,46.0100013 206.91,45.75 C207.610003,45.4899987 208.399996,45.36 209.28,45.36 C210.146671,45.36 210.926663,45.4899987 211.62,45.75 C212.313337,46.0100013 212.899998,46.3866642 213.38,46.88 C213.860002,47.3733358 214.226665,47.9766631 214.48,48.69 C214.733335,49.4033369 214.86,50.2066622 214.86,51.1 L214.86,51.48 L207.24,51.48 Z M224.02,45.74 L224.02,43.84 C224.02,43.17333 224.163332,42.5433363 224.45,41.95 C224.736668,41.3566637 225.123331,40.8400022 225.61,40.4 C226.096669,39.9599978 226.66333,39.6100013 227.31,39.35 C227.95667,39.0899987 228.639996,38.96 229.36,38.96 C230.080004,38.96 230.76333,39.0866654 231.41,39.34 C232.05667,39.5933346 232.623331,39.9399978 233.11,40.38 C233.596669,40.8200022 233.983332,41.3366637 234.27,41.93 C234.556668,42.5233363 234.7,43.1599966 234.7,43.84 L234.7,44.3 L231.08,44.3 L231.08,43.84 C231.08,43.5999988 231.036667,43.3700011 230.95,43.15 C230.863333,42.9299989 230.743334,42.7333342 230.59,42.56 C230.436666,42.3866658 230.256668,42.2466672 230.05,42.14 C229.843332,42.0333328 229.613335,41.98 229.36,41.98 C228.866664,41.98 228.456668,42.1666648 228.13,42.54 C227.803332,42.9133352 227.64,43.3466642 227.64,43.84 L227.64,45.74 L229.72,45.74 L229.72,48.76 L227.64,48.76 L227.64,56 L224.02,56 L224.02,48.76 L222.72,48.76 L222.72,45.74 L224.02,45.74 Z M234.7,56 L231.08,56 L231.08,45.74 L234.7,45.74 L234.7,56 Z M240.8,39.4 L240.8,56 L237.18,56 L237.18,39.4 L240.8,39.4 Z M250.78,49.38 C250.659999,48.8733308 250.413335,48.4666682 250.04,48.16 C249.666665,47.8533318 249.213336,47.7 248.68,47.7 C248.119997,47.7 247.663335,47.8466652 247.31,48.14 C246.956665,48.4333348 246.733334,48.846664 246.64,49.38 L250.78,49.38 Z M246.54,51.48 C246.54,53.0400078 247.273326,53.82 248.74,53.82 C249.526671,53.82 250.119998,53.5000032 250.52,52.86 L254.02,52.86 C253.31333,55.2066784 251.546681,56.38 248.72,56.38 C247.853329,56.38 247.060004,56.2500013 246.34,55.99 C245.619996,55.7299987 245.003336,55.3600024 244.49,54.88 C243.976664,54.3999976 243.580001,53.82667 243.3,53.16 C243.019999,52.49333 242.88,51.7466708 242.88,50.92 C242.88,50.0666624 243.013332,49.2966701 243.28,48.61 C243.546668,47.9233299 243.926664,47.3400024 244.42,46.86 C244.913336,46.3799976 245.509996,46.0100013 246.21,45.75 C246.910003,45.4899987 247.699996,45.36 248.58,45.36 C249.446671,45.36 250.226663,45.4899987 250.92,45.75 C251.613337,46.0100013 252.199998,46.3866642 252.68,46.88 C253.160002,47.3733358 253.526665,47.9766631 253.78,48.69 C254.033335,49.4033369 254.16,50.2066622 254.16,51.1 L254.16,51.48 L246.54,51.48 Z M269.8,54.08 C269.8,53.7599984 269.859999,53.4566681 269.98,53.17 C270.100001,52.8833319 270.266666,52.6333344 270.48,52.42 C270.693334,52.2066656 270.943332,52.0400006 271.23,51.92 C271.516668,51.7999994 271.819998,51.74 272.14,51.74 C272.460002,51.74 272.763332,51.7999994 273.05,51.92 C273.336668,52.0400006 273.586666,52.2066656 273.8,52.42 C274.013334,52.6333344 274.179999,52.8833319 274.3,53.17 C274.420001,53.4566681 274.48,53.7599984 274.48,54.08 C274.48,54.4000016 274.420001,54.7033319 274.3,54.99 C274.179999,55.2766681 274.013334,55.5266656 273.8,55.74 C273.586666,55.9533344 273.336668,56.1199994 273.05,56.24 C272.763332,56.3600006 272.460002,56.42 272.14,56.42 C271.819998,56.42 271.516668,56.3600006 271.23,56.24 C270.943332,56.1199994 270.693334,55.9533344 270.48,55.74 C270.266666,55.5266656 270.100001,55.2766681 269.98,54.99 C269.859999,54.7033319 269.8,54.4000016 269.8,54.08 Z M262.94,54.08 C262.94,53.7599984 262.999999,53.4566681 263.12,53.17 C263.240001,52.8833319 263.406666,52.6333344 263.62,52.42 C263.833334,52.2066656 264.083332,52.0400006 264.37,51.92 C264.656668,51.7999994 264.959998,51.74 265.28,51.74 C265.600002,51.74 265.903332,51.7999994 266.19,51.92 C266.476668,52.0400006 266.726666,52.2066656 266.94,52.42 C267.153334,52.6333344 267.319999,52.8833319 267.44,53.17 C267.560001,53.4566681 267.62,53.7599984 267.62,54.08 C267.62,54.4000016 267.560001,54.7033319 267.44,54.99 C267.319999,55.2766681 267.153334,55.5266656 266.94,55.74 C266.726666,55.9533344 266.476668,56.1199994 266.19,56.24 C265.903332,56.3600006 265.600002,56.42 265.28,56.42 C264.959998,56.42 264.656668,56.3600006 264.37,56.24 C264.083332,56.1199994 263.833334,55.9533344 263.62,55.74 C263.406666,55.5266656 263.240001,55.2766681 263.12,54.99 C262.999999,54.7033319 262.94,54.4000016 262.94,54.08 Z M256.08,54.08 C256.08,53.7599984 256.139999,53.4566681 256.26,53.17 C256.380001,52.8833319 256.546666,52.6333344 256.76,52.42 C256.973334,52.2066656 257.223332,52.0400006 257.51,51.92 C257.796668,51.7999994 258.099998,51.74 258.42,51.74 C258.740002,51.74 259.043332,51.7999994 259.33,51.92 C259.616668,52.0400006 259.866666,52.2066656 260.08,52.42 C260.293334,52.6333344 260.459999,52.8833319 260.58,53.17 C260.700001,53.4566681 260.76,53.7599984 260.76,54.08 C260.76,54.4000016 260.700001,54.7033319 260.58,54.99 C260.459999,55.2766681 260.293334,55.5266656 260.08,55.74 C259.866666,55.9533344 259.616668,56.1199994 259.33,56.24 C259.043332,56.3600006 258.740002,56.42 258.42,56.42 C258.099998,56.42 257.796668,56.3600006 257.51,56.24 C257.223332,56.1199994 256.973334,55.9533344 256.76,55.74 C256.546666,55.5266656 256.380001,55.2766681 256.26,54.99 C256.139999,54.7033319 256.08,54.4000016 256.08,54.08 Z" id="text1Loader"></path>
        </g>
    </g>
</svg>