<?xml version="1.0" encoding="UTF-8"?>
<svg width="242px" height="54px" viewBox="0 0 242 54" version="1.1" xmlns="http://www.w3.org/2000/svg" xmlns:xlink="http://www.w3.org/1999/xlink">
    <!-- Generator: sketchtool 55.2 (78181) - https://sketchapp.com -->
    <title>E8D7D3A8-6192-44E0-950A-67C72503054D@1.00x</title>
    <desc>Created with sketchtool.</desc>
    <defs>
        <linearGradient x1="49.9997943%" y1="1.22394817%" x2="49.9997943%" y2="96.0618045%" id="linearGradient-1">
            <stop stop-color="#BE0031" offset="0%"></stop>
            <stop stop-color="#BF0635" offset="12.82%"></stop>
            <stop stop-color="#C2173F" offset="30.15%"></stop>
            <stop stop-color="#C73450" offset="100%"></stop>
        </linearGradient>
    </defs>
    <g id="Slice-3" stroke="none" stroke-width="1" fill="none" fill-rule="evenodd">
        <g id="loader" transform="translate(-64.000000, -73.000000)">
            <g id="Title" transform="translate(64.000000, 73.000000)">
                <path d="M15.96,5.82 C15.5333312,5.4733316 15.1066688,5.2166675 14.68,5.05 C14.2533312,4.8833325 13.840002,4.8 13.44,4.8 C12.9333308,4.8 12.5200016,4.9199988 12.2,5.16 C11.8799984,5.4000012 11.72,5.7133314 11.72,6.1 C11.72,6.366668 11.7999992,6.5866658 11.96,6.76 C12.1200008,6.9333342 12.3299987,7.0833327 12.59,7.21 C12.8500013,7.3366673 13.1433317,7.4466662 13.47,7.54 C13.7966683,7.6333338 14.1199984,7.7333328 14.44,7.84 C15.7200064,8.2666688 16.6566637,8.8366631 17.25,9.55 C17.8433363,10.2633369 18.14,11.1933276 18.14,12.34 C18.14,13.1133372 18.0100013,13.8133302 17.75,14.44 C17.4899987,15.0666698 17.1100025,15.6033311 16.61,16.05 C16.1099975,16.4966689 15.4966703,16.8433321 14.77,17.09 C14.0433297,17.3366679 13.2200046,17.46 12.3,17.46 C10.3933238,17.46 8.6266748,16.893339 7,15.76 L8.68,12.6 C9.2666696,13.1200026 9.8466638,13.5066654 10.42,13.76 C10.9933362,14.0133346 11.5599972,14.14 12.12,14.14 C12.7600032,14.14 13.2366651,13.9933348 13.55,13.7 C13.8633349,13.4066652 14.02,13.0733352 14.02,12.7 C14.02,12.4733322 13.9800004,12.2766675 13.9,12.11 C13.8199996,11.9433325 13.6866676,11.7900007 13.5,11.65 C13.3133324,11.5099993 13.0700015,11.3800006 12.77,11.26 C12.4699985,11.1399994 12.1066688,11.0066674 11.68,10.86 C11.1733308,10.6999992 10.6766691,10.5233343 10.19,10.33 C9.7033309,10.1366657 9.2700019,9.8800016 8.89,9.56 C8.5099981,9.2399984 8.2033345,8.8366691 7.97,8.35 C7.7366655,7.8633309 7.62,7.2466704 7.62,6.5 C7.62,5.7533296 7.7433321,5.0766697 7.99,4.47 C8.2366679,3.8633303 8.5833311,3.3433355 9.03,2.91 C9.4766689,2.4766645 10.0233301,2.1400012 10.67,1.9 C11.3166699,1.6599988 12.039996,1.54 12.84,1.54 C13.5866704,1.54 14.3666626,1.6433323 15.18,1.85 C15.9933374,2.0566677 16.7733296,2.359998 17.52,2.76 L15.96,5.82 Z M28,10.1 C27.3733302,9.6733312 26.7400032,9.46 26.1,9.46 C25.7533316,9.46 25.4300015,9.5199994 25.13,9.64 C24.8299985,9.7600006 24.5666678,9.9299989 24.34,10.15 C24.1133322,10.3700011 23.9366673,10.6299985 23.81,10.93 C23.6833327,11.2300015 23.62,11.5666648 23.62,11.94 C23.62,12.3000018 23.6833327,12.6299985 23.81,12.93 C23.9366673,13.2300015 24.1099989,13.4899989 24.33,13.71 C24.5500011,13.9300011 24.8133318,14.0999994 25.12,14.22 C25.4266682,14.3400006 25.7533316,14.4 26.1,14.4 C26.7800034,14.4 27.4133304,14.166669 28,13.7 L28,16.78 C27.1066622,17.1666686 26.260004,17.36 25.46,17.36 C24.7133296,17.36 24.0033367,17.2333346 23.33,16.98 C22.6566633,16.7266654 22.0633359,16.3633357 21.55,15.89 C21.0366641,15.4166643 20.6266682,14.8500033 20.32,14.19 C20.0133318,13.5299967 19.86,12.7933374 19.86,11.98 C19.86,11.1666626 20.0066652,10.4233367 20.3,9.75 C20.5933348,9.0766633 20.9933308,8.4966691 21.5,8.01 C22.0066692,7.5233309 22.6099965,7.1433347 23.31,6.87 C24.0100035,6.5966653 24.759996,6.46 25.56,6.46 C26.4400044,6.46 27.2533296,6.6466648 28,7.02 L28,10.1 Z M33.42,11.88 C33.42,12.213335 33.4799994,12.5233319 33.6,12.81 C33.7200006,13.0966681 33.8833323,13.3466656 34.09,13.56 C34.2966677,13.7733344 34.5433319,13.9399994 34.83,14.06 C35.1166681,14.1800006 35.426665,14.24 35.76,14.24 C36.0800016,14.24 36.3833319,14.1800006 36.67,14.06 C36.9566681,13.9399994 37.2033323,13.7733344 37.41,13.56 C37.6166677,13.3466656 37.7833327,13.1000014 37.91,12.82 C38.0366673,12.5399986 38.1,12.2400016 38.1,11.92 C38.1,11.5999984 38.0366673,11.2966681 37.91,11.01 C37.7833327,10.7233319 37.6166677,10.4733344 37.41,10.26 C37.2033323,10.0466656 36.9566681,9.8800006 36.67,9.76 C36.3833319,9.6399994 36.0800016,9.58 35.76,9.58 C35.426665,9.58 35.1166681,9.6399994 34.83,9.76 C34.5433319,9.8800006 34.2966677,10.0466656 34.09,10.26 C33.8833323,10.4733344 33.7200006,10.7166653 33.6,10.99 C33.4799994,11.2633347 33.42,11.5599984 33.42,11.88 Z M37.98,6.78 L41.62,6.78 L41.62,17.04 L37.98,17.04 L37.98,15.9 C37.2066628,16.8733382 36.16,17.36 34.84,17.36 C34.0933296,17.36 33.4066698,17.2233347 32.78,16.95 C32.1533302,16.6766653 31.606669,16.2933358 31.14,15.8 C30.673331,15.3066642 30.3100013,14.72667 30.05,14.06 C29.7899987,13.39333 29.66,12.6666706 29.66,11.88 C29.66,11.146663 29.7866654,10.4500033 30.04,9.79 C30.2933346,9.1299967 30.6466644,8.5533358 31.1,8.06 C31.5533356,7.5666642 32.0933302,7.1766681 32.72,6.89 C33.3466698,6.6033319 34.0399962,6.46 34.8,6.46 C36.0800064,6.46 37.1399958,6.9066622 37.98,7.8 L37.98,6.78 Z M44.08,6.78 L47.7,6.78 L47.7,8.08 C48.1933358,7.479997 48.6933308,7.0766677 49.2,6.87 C49.7066692,6.6633323 50.2999966,6.56 50.98,6.56 C51.7000036,6.56 52.3166641,6.6766655 52.83,6.91 C53.3433359,7.1433345 53.7799982,7.4733312 54.14,7.9 C54.4333348,8.2466684 54.6333328,8.6333312 54.74,9.06 C54.8466672,9.4866688 54.9,9.9733306 54.9,10.52 L54.9,17.04 L51.28,17.04 L51.28,11.86 C51.28,11.3533308 51.2433337,10.9433349 51.17,10.63 C51.0966663,10.3166651 50.9666676,10.0666676 50.78,9.88 C50.6199992,9.7199992 50.440001,9.606667 50.24,9.54 C50.039999,9.473333 49.8266678,9.44 49.6,9.44 C48.9866636,9.44 48.5166683,9.6233315 48.19,9.99 C47.8633317,10.3566685 47.7,10.8799966 47.7,11.56 L47.7,17.04 L44.08,17.04 L44.08,6.78 Z M57.36,6.78 L60.98,6.78 L60.98,8.08 C61.4733358,7.479997 61.9733308,7.0766677 62.48,6.87 C62.9866692,6.6633323 63.5799966,6.56 64.26,6.56 C64.9800036,6.56 65.5966641,6.6766655 66.11,6.91 C66.6233359,7.1433345 67.0599982,7.4733312 67.42,7.9 C67.7133348,8.2466684 67.9133328,8.6333312 68.02,9.06 C68.1266672,9.4866688 68.18,9.9733306 68.18,10.52 L68.18,17.04 L64.56,17.04 L64.56,11.86 C64.56,11.3533308 64.5233337,10.9433349 64.45,10.63 C64.3766663,10.3166651 64.2466676,10.0666676 64.06,9.88 C63.8999992,9.7199992 63.720001,9.606667 63.52,9.54 C63.319999,9.473333 63.1066678,9.44 62.88,9.44 C62.2666636,9.44 61.7966683,9.6233315 61.47,9.99 C61.1433317,10.3566685 60.98,10.8799966 60.98,11.56 L60.98,17.04 L57.36,17.04 L57.36,6.78 Z M74.26,6.78 L74.26,17.04 L70.64,17.04 L70.64,6.78 L74.26,6.78 Z M70.4,2.84 C70.4,2.5599986 70.4533328,2.2966679 70.56,2.05 C70.6666672,1.8033321 70.8133324,1.5866676 71,1.4 C71.1866676,1.2133324 71.4033321,1.0666672 71.65,0.96 C71.8966679,0.8533328 72.1599986,0.8 72.44,0.8 C72.7200014,0.8 72.9833321,0.8533328 73.23,0.96 C73.4766679,1.0666672 73.6933324,1.2133324 73.88,1.4 C74.0666676,1.5866676 74.2133328,1.8033321 74.32,2.05 C74.4266672,2.2966679 74.48,2.5599986 74.48,2.84 C74.48,3.1200014 74.4266672,3.3833321 74.32,3.63 C74.2133328,3.8766679 74.0666676,4.0933324 73.88,4.28 C73.6933324,4.4666676 73.4766679,4.6133328 73.23,4.72 C72.9833321,4.8266672 72.7200014,4.88 72.44,4.88 C72.1599986,4.88 71.8966679,4.8266672 71.65,4.72 C71.4033321,4.6133328 71.1866676,4.4666676 71,4.28 C70.8133324,4.0933324 70.6666672,3.8766679 70.56,3.63 C70.4533328,3.3833321 70.4,3.1200014 70.4,2.84 Z M76.74,6.78 L80.36,6.78 L80.36,8.08 C80.8533358,7.479997 81.3533308,7.0766677 81.86,6.87 C82.3666692,6.6633323 82.9599966,6.56 83.64,6.56 C84.3600036,6.56 84.9766641,6.6766655 85.49,6.91 C86.0033359,7.1433345 86.4399982,7.4733312 86.8,7.9 C87.0933348,8.2466684 87.2933328,8.6333312 87.4,9.06 C87.5066672,9.4866688 87.56,9.9733306 87.56,10.52 L87.56,17.04 L83.94,17.04 L83.94,11.86 C83.94,11.3533308 83.9033337,10.9433349 83.83,10.63 C83.7566663,10.3166651 83.6266676,10.0666676 83.44,9.88 C83.2799992,9.7199992 83.100001,9.606667 82.9,9.54 C82.699999,9.473333 82.4866678,9.44 82.26,9.44 C81.6466636,9.44 81.1766683,9.6233315 80.85,9.99 C80.5233317,10.3566685 80.36,10.8799966 80.36,11.56 L80.36,17.04 L76.74,17.04 L76.74,6.78 Z M93.38,11.86 C93.38,12.193335 93.4399994,12.5033319 93.56,12.79 C93.6800006,13.0766681 93.8433323,13.3266656 94.05,13.54 C94.2566677,13.7533344 94.5033319,13.9199994 94.79,14.04 C95.0766681,14.1600006 95.386665,14.22 95.72,14.22 C96.0400016,14.22 96.3433319,14.1600006 96.63,14.04 C96.9166681,13.9199994 97.1633323,13.7533344 97.37,13.54 C97.5766677,13.3266656 97.7433327,13.0766681 97.87,12.79 C97.9966673,12.5033319 98.06,12.2000016 98.06,11.88 C98.06,11.546665 97.9966673,11.2400014 97.87,10.96 C97.7433327,10.6799986 97.5733344,10.4333344 97.36,10.22 C97.1466656,10.0066656 96.8966681,9.8400006 96.61,9.72 C96.3233319,9.5999994 96.0266682,9.54 95.72,9.54 C95.3999984,9.54 95.1000014,9.6033327 94.82,9.73 C94.5399986,9.8566673 94.2933344,10.0233323 94.08,10.23 C93.8666656,10.4366677 93.6966673,10.6799986 93.57,10.96 C93.4433327,11.2400014 93.38,11.54 93.38,11.86 Z M101.5,6.78 L101.5,16.34 C101.5,16.9133362 101.466667,17.4266644 101.4,17.88 C101.333333,18.3333356 101.240001,18.7333316 101.12,19.08 C100.959999,19.5200022 100.710002,19.9299981 100.37,20.31 C100.029998,20.6900019 99.62,21.0199986 99.14,21.3 C98.6599976,21.5800014 98.1166697,21.7999992 97.51,21.96 C96.9033303,22.1200008 96.2466702,22.2 95.54,22.2 C94.739996,22.2 94.00667,22.100001 93.34,21.9 C92.67333,21.699999 92.0900025,21.4233351 91.59,21.07 C91.0899975,20.7166649 90.6800016,20.3033357 90.36,19.83 C90.0399984,19.3566643 89.8266672,18.8400028 89.72,18.28 L93.8,18.28 C94.0533346,18.9600034 94.6266622,19.3 95.52,19.3 C96.2800038,19.3 96.8633313,19.0866688 97.27,18.66 C97.6766687,18.2333312 97.88,17.6400038 97.88,16.88 L97.88,15.9 C97.613332,16.1533346 97.3566679,16.3633325 97.11,16.53 C96.8633321,16.6966675 96.6133346,16.8333328 96.36,16.94 C96.1066654,17.0466672 95.8400014,17.1233331 95.56,17.17 C95.2799986,17.2166669 94.973335,17.24 94.64,17.24 C93.906663,17.24 93.2333364,17.1133346 92.62,16.86 C92.0066636,16.6066654 91.4766689,16.2533356 91.03,15.8 C90.5833311,15.3466644 90.2366679,14.8033365 89.99,14.17 C89.7433321,13.5366635 89.62,12.8333372 89.62,12.06 C89.62,11.2733294 89.753332,10.5433367 90.02,9.87 C90.286668,9.1966633 90.6499977,8.6100025 91.11,8.11 C91.5700023,7.6099975 92.1166635,7.2166681 92.75,6.93 C93.3833365,6.6433319 94.0733296,6.5 94.82,6.5 C96.0333394,6.5 97.0533292,6.9533288 97.88,7.86 L97.88,6.78 L101.5,6.78 Z M113.56,6.78 L116.02,12.18 L118.58,6.78 L120.86,6.78 L123.42,12.34 L126,6.78 L130.02,6.78 L124.66,17.04 L122.24,17.04 L119.68,11.42 L117.24,17.04 L114.78,17.04 L109.52,6.78 L113.56,6.78 Z M131.26,0.44 L134.88,0.44 L134.88,8.08 C135.373336,7.479997 135.873331,7.0766677 136.38,6.87 C136.886669,6.6633323 137.479997,6.56 138.16,6.56 C139.45334,6.56 140.429997,6.9166631 141.09,7.63 C141.750003,8.3433369 142.08,9.3066606 142.08,10.52 L142.08,17.04 L138.46,17.04 L138.46,11.86 C138.46,11.3399974 138.42,10.9200016 138.34,10.6 C138.26,10.2799984 138.126668,10.0333342 137.94,9.86 C137.619998,9.5799986 137.233336,9.44 136.78,9.44 C136.166664,9.44 135.696668,9.6233315 135.37,9.99 C135.043332,10.3566685 134.88,10.8799966 134.88,11.56 L134.88,17.04 L131.26,17.04 L131.26,0.44 Z M147.96,11.86 C147.96,12.2066684 148.023333,12.5233319 148.15,12.81 C148.276667,13.0966681 148.443332,13.3466656 148.65,13.56 C148.856668,13.7733344 149.103332,13.9399994 149.39,14.06 C149.676668,14.1800006 149.979998,14.24 150.3,14.24 C150.620002,14.24 150.923332,14.1800006 151.21,14.06 C151.496668,13.9399994 151.743332,13.7733344 151.95,13.56 C152.156668,13.3466656 152.323333,13.0966681 152.45,12.81 C152.576667,12.5233319 152.64,12.213335 152.64,11.88 C152.64,11.5599984 152.576667,11.2566681 152.45,10.97 C152.323333,10.6833319 152.156668,10.4333344 151.95,10.22 C151.743332,10.0066656 151.496668,9.8400006 151.21,9.72 C150.923332,9.5999994 150.620002,9.54 150.3,9.54 C149.979998,9.54 149.676668,9.5999994 149.39,9.72 C149.103332,9.8400006 148.856668,10.0066656 148.65,10.22 C148.443332,10.4333344 148.276667,10.6799986 148.15,10.96 C148.023333,11.2400014 147.96,11.54 147.96,11.86 Z M144.14,11.82 C144.14,11.0599962 144.293332,10.3500033 144.6,9.69 C144.906668,9.0299967 145.333331,8.4566691 145.88,7.97 C146.426669,7.4833309 147.076663,7.1000014 147.83,6.82 C148.583337,6.5399986 149.406662,6.4 150.3,6.4 C151.180004,6.4 151.996663,6.5366653 152.75,6.81 C153.503337,7.0833347 154.156664,7.4633309 154.71,7.95 C155.263336,8.4366691 155.693332,9.0166633 156,9.69 C156.306668,10.3633367 156.46,11.1066626 156.46,11.92 C156.46,12.7333374 156.303335,13.4766633 155.99,14.15 C155.676665,14.8233367 155.246669,15.4033309 154.7,15.89 C154.153331,16.3766691 153.49667,16.753332 152.73,17.02 C151.963329,17.286668 151.133338,17.42 150.24,17.42 C149.359996,17.42 148.54667,17.286668 147.8,17.02 C147.05333,16.753332 146.410003,16.3733358 145.87,15.88 C145.329997,15.3866642 144.906668,14.7966701 144.6,14.11 C144.293332,13.4233299 144.14,12.6600042 144.14,11.82 Z M162.16,0.44 L162.16,17.04 L158.54,17.04 L158.54,0.44 L162.16,0.44 Z M172.14,10.42 C172.019999,9.9133308 171.773335,9.5066682 171.4,9.2 C171.026665,8.8933318 170.573336,8.74 170.04,8.74 C169.479997,8.74 169.023335,8.8866652 168.67,9.18 C168.316665,9.4733348 168.093334,9.886664 168,10.42 L172.14,10.42 Z M167.9,12.52 C167.9,14.0800078 168.633326,14.86 170.1,14.86 C170.886671,14.86 171.479998,14.5400032 171.88,13.9 L175.38,13.9 C174.67333,16.2466784 172.906681,17.42 170.08,17.42 C169.213329,17.42 168.420004,17.2900013 167.7,17.03 C166.979996,16.7699987 166.363336,16.4 165.85,15.92 C165.336664,15.4399976 164.940001,14.86667 164.66,14.2 C164.379999,13.53333 164.24,12.7866708 164.24,11.96 C164.24,11.1066624 164.373332,10.3366701 164.64,9.65 C164.906668,8.9633299 165.286664,8.3800024 165.78,7.9 C166.273336,7.4199976 166.869996,7.0500013 167.57,6.79 C168.270003,6.5299987 169.059996,6.4 169.94,6.4 C170.806671,6.4 171.586663,6.5299987 172.28,6.79 C172.973337,7.0500013 173.559998,7.4266642 174.04,7.92 C174.520002,8.4133358 174.886665,9.0166631 175.14,9.73 C175.393335,10.4433369 175.52,11.2466622 175.52,12.14 L175.52,12.52 L167.9,12.52 Z M184.68,6.78 L184.68,4.88 C184.68,4.21333 184.823332,3.5833363 185.11,2.99 C185.396668,2.3966637 185.783331,1.8800022 186.27,1.44 C186.756669,1 187.32333,0.6500013 187.97,0.39 C188.61667,0.1299987 189.299996,-5.32907052e-15 190.02,-5.32907052e-15 C190.740004,-5.32907052e-15 191.42333,0.1266654 192.07,0.38 C192.71667,0.6333346 193.283331,0.9799978 193.77,1.42 C194.256669,1.8600022 194.643332,2.3766637 194.93,2.97 C195.216668,3.5633363 195.36,4.1999966 195.36,4.88 L195.36,5.34 L191.74,5.34 L191.74,4.88 C191.74,4.6399988 191.696667,4.4100011 191.61,4.19 C191.523333,3.9699989 191.403334,3.7733342 191.25,3.6 C191.096666,3.4266658 190.916668,3.2866672 190.71,3.18 C190.503332,3.0733328 190.273335,3.02 190.02,3.02 C189.526664,3.02 189.116668,3.2066648 188.79,3.58 C188.463332,3.9533352 188.3,4.3866642 188.3,4.88 L188.3,6.78 L190.38,6.78 L190.38,9.8 L188.3,9.8 L188.3,17.04 L184.68,17.04 L184.68,9.8 L183.38,9.8 L183.38,6.78 L184.68,6.78 Z M195.36,17.04 L191.74,17.04 L191.74,6.78 L195.36,6.78 L195.36,17.04 Z M201.46,0.44 L201.46,17.04 L197.84,17.04 L197.84,0.44 L201.46,0.44 Z M211.44,10.42 C211.319999,9.9133308 211.073335,9.5066682 210.7,9.2 C210.326665,8.8933318 209.873336,8.74 209.34,8.74 C208.779997,8.74 208.323335,8.8866652 207.97,9.18 C207.616665,9.4733348 207.393334,9.886664 207.3,10.42 L211.44,10.42 Z M207.2,12.52 C207.2,14.0800078 207.933326,14.86 209.4,14.86 C210.186671,14.86 210.779998,14.5400032 211.18,13.9 L214.68,13.9 C213.97333,16.2466784 212.206681,17.42 209.38,17.42 C208.513329,17.42 207.720004,17.2900013 207,17.03 C206.279996,16.7699987 205.663336,16.4 205.15,15.92 C204.636664,15.4399976 204.240001,14.86667 203.96,14.2 C203.679999,13.53333 203.54,12.7866708 203.54,11.96 C203.54,11.1066624 203.673332,10.3366701 203.94,9.65 C204.206668,8.9633299 204.586664,8.3800024 205.08,7.9 C205.573336,7.4199976 206.169996,7.0500013 206.87,6.79 C207.570003,6.5299987 208.359996,6.4 209.24,6.4 C210.106671,6.4 210.886663,6.5299987 211.58,6.79 C212.273337,7.0500013 212.859998,7.4266642 213.34,7.92 C213.820002,8.4133358 214.186665,9.0166631 214.44,9.73 C214.693335,10.4433369 214.82,11.2466622 214.82,12.14 L214.82,12.52 L207.2,12.52 Z M230.46,15.12 C230.46,14.7999984 230.519999,14.4966681 230.64,14.21 C230.760001,13.9233319 230.926666,13.6733344 231.14,13.46 C231.353334,13.2466656 231.603332,13.0800006 231.89,12.96 C232.176668,12.8399994 232.479998,12.78 232.8,12.78 C233.120002,12.78 233.423332,12.8399994 233.71,12.96 C233.996668,13.0800006 234.246666,13.2466656 234.46,13.46 C234.673334,13.6733344 234.839999,13.9233319 234.96,14.21 C235.080001,14.4966681 235.14,14.7999984 235.14,15.12 C235.14,15.4400016 235.080001,15.7433319 234.96,16.03 C234.839999,16.3166681 234.673334,16.5666656 234.46,16.78 C234.246666,16.9933344 233.996668,17.1599994 233.71,17.28 C233.423332,17.4000006 233.120002,17.46 232.8,17.46 C232.479998,17.46 232.176668,17.4000006 231.89,17.28 C231.603332,17.1599994 231.353334,16.9933344 231.14,16.78 C230.926666,16.5666656 230.760001,16.3166681 230.64,16.03 C230.519999,15.7433319 230.46,15.4400016 230.46,15.12 Z M223.6,15.12 C223.6,14.7999984 223.659999,14.4966681 223.78,14.21 C223.900001,13.9233319 224.066666,13.6733344 224.28,13.46 C224.493334,13.2466656 224.743332,13.0800006 225.03,12.96 C225.316668,12.8399994 225.619998,12.78 225.94,12.78 C226.260002,12.78 226.563332,12.8399994 226.85,12.96 C227.136668,13.0800006 227.386666,13.2466656 227.6,13.46 C227.813334,13.6733344 227.979999,13.9233319 228.1,14.21 C228.220001,14.4966681 228.28,14.7999984 228.28,15.12 C228.28,15.4400016 228.220001,15.7433319 228.1,16.03 C227.979999,16.3166681 227.813334,16.5666656 227.6,16.78 C227.386666,16.9933344 227.136668,17.1599994 226.85,17.28 C226.563332,17.4000006 226.260002,17.46 225.94,17.46 C225.619998,17.46 225.316668,17.4000006 225.03,17.28 C224.743332,17.1599994 224.493334,16.9933344 224.28,16.78 C224.066666,16.5666656 223.900001,16.3166681 223.78,16.03 C223.659999,15.7433319 223.6,15.4400016 223.6,15.12 Z M216.74,15.12 C216.74,14.7999984 216.799999,14.4966681 216.92,14.21 C217.040001,13.9233319 217.206666,13.6733344 217.42,13.46 C217.633334,13.2466656 217.883332,13.0800006 218.17,12.96 C218.456668,12.8399994 218.759998,12.78 219.08,12.78 C219.400002,12.78 219.703332,12.8399994 219.99,12.96 C220.276668,13.0800006 220.526666,13.2466656 220.74,13.46 C220.953334,13.6733344 221.119999,13.9233319 221.24,14.21 C221.360001,14.4966681 221.42,14.7999984 221.42,15.12 C221.42,15.4400016 221.360001,15.7433319 221.24,16.03 C221.119999,16.3166681 220.953334,16.5666656 220.74,16.78 C220.526666,16.9933344 220.276668,17.1599994 219.99,17.28 C219.703332,17.4000006 219.400002,17.46 219.08,17.46 C218.759998,17.46 218.456668,17.4000006 218.17,17.28 C217.883332,17.1599994 217.633334,16.9933344 217.42,16.78 C217.206666,16.5666656 217.040001,16.3166681 216.92,16.03 C216.799999,15.7433319 216.74,15.4400016 216.74,15.12 Z" id="text1Loader" fill="#FFFFFF" fill-rule="nonzero"></path>
                <g id="text2Loader-Copy" transform="translate(0.000000, 29.000000)">
                    <path d="M4.05294165,16.8826882 L4.92454201,16.8826882 C5.58308779,16.8826882 6.17060512,16.7801008 6.68711161,16.5749228 C7.20361811,16.3697449 7.63941393,16.0876294 7.99451215,15.728568 C8.34961036,15.3695066 8.62077221,14.9431276 8.80800581,14.4494182 C8.99523942,13.9557088 9.08885481,13.4139189 9.08885481,12.8240323 C9.08885481,12.2469693 8.9920113,11.7083853 8.79832136,11.2082641 C8.60463143,10.7081428 8.33024147,10.278558 7.97514325,9.91949656 C7.62004503,9.56043516 7.18424921,9.27831972 6.66774272,9.07314177 C6.15123622,8.86796383 5.57017513,8.7653764 4.92454201,8.7653764 L4.05294165,8.7653764 L4.05294165,16.8826882 Z M0.256637882,5.57231062 L5.87361795,5.57231062 C6.86789295,5.57231062 7.80081882,5.77107377 8.67242353,6.16860603 C9.54402825,6.5661383 10.3058639,7.09510475 10.9579534,7.75552125 C11.6100428,8.41593776 12.1233134,9.18534351 12.4977806,10.0637616 C12.8722479,10.9421796 13.0594787,11.8622607 13.0594787,12.8240323 C13.0594787,13.7729803 12.875476,14.6866496 12.5074651,15.5650677 C12.1394542,16.4434858 11.6294117,17.2160974 10.9773223,17.8829257 C10.3252328,18.549754 9.56339714,19.0819263 8.69179243,19.4794586 C7.82018772,19.8769908 6.88080562,20.075754 5.87361795,20.075754 L0.256637882,20.075754 L0.256637882,5.57231062 Z M18.4052942,15.1130373 C18.4052942,15.4336278 18.4634003,15.7317725 18.5796142,16.0074804 C18.6958282,16.2831883 18.8540059,16.5236276 19.0541522,16.7288055 C19.2542985,16.9339835 19.4931791,17.0942763 19.7708014,17.2096889 C20.0484236,17.3251015 20.3486385,17.3828069 20.6714551,17.3828069 C20.981359,17.3828069 21.2751176,17.3251015 21.5527399,17.2096889 C21.8303621,17.0942763 22.0692428,16.9339835 22.2693891,16.7288055 C22.4695353,16.5236276 22.6309412,16.2863941 22.7536115,16.0170981 C22.8762818,15.747802 22.937616,15.4592749 22.937616,15.151508 C22.937616,14.843741 22.8762818,14.552008 22.7536115,14.2763002 C22.6309412,14.0005923 22.4695353,13.760153 22.2693891,13.5549751 C22.0692428,13.3497971 21.8303621,13.1895043 21.5527399,13.0740917 C21.2751176,12.9586791 20.981359,12.9009736 20.6714551,12.9009736 C20.3486385,12.9009736 20.0484236,12.9586791 19.7708014,13.0740917 C19.4931791,13.1895043 19.2542985,13.3497971 19.0541522,13.5549751 C18.8540059,13.760153 18.6958282,13.9941806 18.5796142,14.2570648 C18.4634003,14.5199491 18.4052942,14.8052704 18.4052942,15.1130373 Z M22.8214026,10.2080266 L26.3465418,10.2080266 L26.3465418,20.075754 L22.8214026,20.075754 L22.8214026,18.9793398 C22.0724682,19.9154642 21.0588394,20.3835194 19.7804858,20.3835194 C19.0573767,20.3835194 18.3923846,20.2520792 17.7854895,19.989195 C17.1785943,19.7263107 16.6491831,19.3576371 16.1972399,18.8831631 C15.7452967,18.4086891 15.393432,17.85087 15.1416351,17.2096889 C14.8898381,16.5685078 14.7639416,15.8696309 14.7639416,15.1130373 C14.7639416,14.4077381 14.88661,13.7377139 15.1319506,13.1029447 C15.3772912,12.4681754 15.7194716,11.9135621 16.1585021,11.4390881 C16.5975327,10.9646141 17.1204876,10.5895288 17.7273828,10.3138209 C18.3342779,10.0381131 19.0057263,9.90026122 19.741748,9.90026122 C20.9813636,9.90026122 22.0079049,10.3298461 22.8214026,11.1890287 L22.8214026,10.2080266 Z M28.7289161,10.2080266 L32.2346865,10.2080266 L32.2346865,11.4198528 C33.1902235,10.5093756 34.2619584,10.0541439 35.4499233,10.0541439 C36.9219668,10.0541439 38.0453516,10.6696685 38.8201114,11.9007362 C39.6077838,10.6568449 40.7311686,10.0349086 42.1902994,10.0349086 C42.6551553,10.0349086 43.0941792,10.1022316 43.5073844,10.2368796 C43.9205896,10.3715276 44.2756825,10.5831142 44.5726737,10.8716457 C44.869665,11.1601772 45.1053175,11.5352625 45.2796384,11.9969128 C45.4539594,12.4585632 45.5411186,13.0163824 45.5411186,13.6703871 L45.5411186,20.075754 L42.0353482,20.075754 L42.0353482,15.209214 C42.0353482,14.7090927 41.9998389,14.298743 41.9288193,13.9781525 C41.8577997,13.6575619 41.7544999,13.4075051 41.618917,13.2279744 C41.483334,13.0484437 41.3251563,12.9266211 41.144379,12.862503 C40.9636017,12.7983849 40.7699147,12.7663263 40.5633121,12.7663263 C39.4399105,12.7663263 38.8782181,13.580614 38.8782181,15.209214 L38.8782181,20.075754 L35.3724477,20.075754 L35.3724477,15.209214 C35.3724477,14.7090927 35.3401666,14.2955371 35.2756033,13.9685348 C35.2110399,13.6415324 35.1174246,13.381858 34.9947543,13.1895037 C34.872084,12.9971494 34.7139062,12.8657092 34.5202163,12.7951793 C34.3265263,12.7246494 34.1005581,12.6893849 33.8423049,12.6893849 C33.6227896,12.6893849 33.4161901,12.7214435 33.2225002,12.7855616 C33.0288103,12.8496797 32.8577201,12.9747082 32.7092244,13.1606507 C32.5607288,13.3465932 32.4445166,13.6030618 32.3605843,13.9300641 C32.276652,14.2570665 32.2346865,14.6834455 32.2346865,15.209214 L32.2346865,20.075754 L28.7289161,20.075754 L28.7289161,10.2080266 Z M47.9428618,10.2080266 L51.4486321,10.2080266 L51.4486321,11.4583234 C51.9264006,10.8812605 52.4106182,10.4933517 52.9012993,10.2945856 C53.3919805,10.0958195 53.9665854,9.9964379 54.6251311,9.9964379 C55.3224149,9.9964379 55.9196166,10.1086429 56.4167541,10.3330563 C56.9138916,10.5574697 57.3367749,10.8748495 57.6854168,11.2852054 C57.9694954,11.6186196 58.1631824,11.990499 58.2664837,12.4008549 C58.369785,12.8112108 58.4214349,13.279266 58.4214349,13.8050344 L58.4214349,20.075754 L54.9156646,20.075754 L54.9156646,15.0938019 C54.9156646,14.6065043 54.8801553,14.2121839 54.8091357,13.9108288 C54.738116,13.6094737 54.6122194,13.3690344 54.4314422,13.1895037 C54.2764902,13.0356202 54.1021719,12.9266211 53.908482,12.862503 C53.714792,12.7983849 53.5081925,12.7663263 53.2886773,12.7663263 C52.6946948,12.7663263 52.2395303,12.9426484 51.92317,13.295298 C51.6068098,13.6479476 51.4486321,14.1512672 51.4486321,14.8052719 L51.4486321,20.075754 L47.9428618,20.075754 L47.9428618,10.2080266 Z M60.8038092,10.2080266 L64.3095795,10.2080266 L64.3095795,11.4583234 C64.787348,10.8812605 65.2715656,10.4933517 65.7622468,10.2945856 C66.252928,10.0958195 66.8275328,9.9964379 67.4860786,9.9964379 C68.1833624,9.9964379 68.7805641,10.1086429 69.2777016,10.3330563 C69.7748391,10.5574697 70.1977224,10.8748495 70.5463643,11.2852054 C70.8304429,11.6186196 71.0241299,11.990499 71.1274312,12.4008549 C71.2307325,12.8112108 71.2823824,13.279266 71.2823824,13.8050344 L71.2823824,20.075754 L67.7766121,20.075754 L67.7766121,15.0938019 C67.7766121,14.6065043 67.7411028,14.2121839 67.6700831,13.9108288 C67.5990635,13.6094737 67.4731669,13.3690344 67.2923896,13.1895037 C67.1374377,13.0356202 66.9631194,12.9266211 66.7694294,12.862503 C66.5757395,12.7983849 66.36914,12.7663263 66.1496247,12.7663263 C65.5556423,12.7663263 65.1004777,12.9426484 64.7841175,13.295298 C64.4677573,13.6479476 64.3095795,14.1512672 64.3095795,14.8052719 L64.3095795,20.075754 L60.8038092,20.075754 L60.8038092,10.2080266 Z M73.6647567,10.2080266 L77.170527,10.2080266 L77.170527,11.4583234 C77.6482955,10.8812605 78.1325131,10.4933517 78.6231943,10.2945856 C79.1138754,10.0958195 79.6884803,9.9964379 80.3470261,9.9964379 C81.0443098,9.9964379 81.6415115,10.1086429 82.138649,10.3330563 C82.6357865,10.5574697 83.0586699,10.8748495 83.4073118,11.2852054 C83.6913903,11.6186196 83.8850774,11.990499 83.9883787,12.4008549 C84.09168,12.8112108 84.1433298,13.279266 84.1433298,13.8050344 L84.1433298,20.075754 L80.6375595,20.075754 L80.6375595,15.0938019 C80.6375595,14.6065043 80.6020502,14.2121839 80.5310306,13.9108288 C80.4600109,13.6094737 80.3341144,13.3690344 80.1533371,13.1895037 C79.9983852,13.0356202 79.8240668,12.9266211 79.6303769,12.862503 C79.436687,12.7983849 79.2300875,12.7663263 79.0105722,12.7663263 C78.4165897,12.7663263 77.9614252,12.9426484 77.645065,13.295298 C77.3287047,13.6479476 77.170527,14.1512672 77.170527,14.8052719 L77.170527,20.075754 L73.6647567,20.075754 L73.6647567,10.2080266 Z M87.6103624,16.4018048 L90.9030748,16.4018048 L87.3391978,22.768701 L85.0924058,22.768701 L87.6103624,16.4018048 Z M103.299169,18.7292805 L98.4956824,10.2080266 L102.563151,10.2080266 L105.21669,15.26692 L107.792753,10.2080266 L111.821483,10.2080266 L103.841498,25 L99.9096118,25 L103.299169,18.7292805 Z M116.334436,15.0938019 C116.334436,15.4272161 116.395771,15.7317725 116.518441,16.0074804 C116.641111,16.2831883 116.802517,16.5236276 117.002663,16.7288055 C117.202809,16.9339835 117.44169,17.0942763 117.719312,17.2096889 C117.996935,17.3251015 118.290693,17.3828069 118.600597,17.3828069 C118.910501,17.3828069 119.20426,17.3251015 119.481882,17.2096889 C119.759504,17.0942763 119.998385,16.9339835 120.198531,16.7288055 C120.398677,16.5236276 120.560083,16.2831883 120.682754,16.0074804 C120.805424,15.7317725 120.866758,15.4336278 120.866758,15.1130373 C120.866758,14.8052704 120.805424,14.5135374 120.682754,14.2378295 C120.560083,13.9621216 120.398677,13.7216823 120.198531,13.5165044 C119.998385,13.3113264 119.759504,13.1510336 119.481882,13.035621 C119.20426,12.9202084 118.910501,12.862503 118.600597,12.862503 C118.290693,12.862503 117.996935,12.9202084 117.719312,13.035621 C117.44169,13.1510336 117.202809,13.3113264 117.002663,13.5165044 C116.802517,13.7216823 116.641111,13.9589158 116.518441,14.2282118 C116.395771,14.4975079 116.334436,14.786035 116.334436,15.0938019 Z M112.634977,15.0553313 C112.634977,14.3243849 112.78347,13.6415373 113.080462,13.006768 C113.377453,12.3719987 113.790652,11.8205913 114.320071,11.3525291 C114.84949,10.8844669 115.478973,10.5157933 116.208538,10.2464973 C116.938104,9.97720122 117.735449,9.84255521 118.600597,9.84255521 C119.452833,9.84255521 120.243722,9.97399536 120.973287,10.2368796 C121.702852,10.4997638 122.335563,10.8652316 122.871439,11.3332938 C123.407314,11.8013559 123.823742,12.3591751 124.120733,13.006768 C124.417724,13.6543609 124.566217,14.369267 124.566217,15.151508 C124.566217,15.9337489 124.414496,16.648655 124.111048,17.2962479 C123.807601,17.9438408 123.391174,18.50166 122.861754,18.9697222 C122.332335,19.4377843 121.696396,19.8000462 120.953918,20.0565186 C120.21144,20.3129911 119.407639,20.4412254 118.542491,20.4412254 C117.690255,20.4412254 116.902594,20.3129911 116.179485,20.0565186 C115.456376,19.8000462 114.833349,19.4345785 114.310387,18.9601045 C113.787424,18.4856305 113.377453,17.9181938 113.080462,17.2577773 C112.78347,16.5973607 112.634977,15.8632194 112.634977,15.0553313 Z M130.086353,10.2080266 L130.086353,15.7670387 C130.086353,16.9852827 130.680327,17.5943956 131.868292,17.5943956 C133.056256,17.5943956 133.65023,16.9852827 133.65023,15.7670387 L133.65023,10.2080266 L137.156,10.2080266 L137.156,16.4402755 C137.156,17.7739321 136.713748,18.7741596 135.829231,19.4409879 C134.944714,20.1078162 133.624414,20.4412254 131.868292,20.4412254 C130.112169,20.4412254 128.791869,20.1078162 127.907352,19.4409879 C127.022835,18.7741596 126.580583,17.7739321 126.580583,16.4402755 L126.580583,10.2080266 L130.086353,10.2080266 Z M146.1238,10.2080266 L149.62957,10.2080266 L149.62957,11.4198528 C150.585107,10.5093756 151.656842,10.0541439 152.844807,10.0541439 C154.31685,10.0541439 155.440235,10.6696685 156.214995,11.9007362 C157.002667,10.6568449 158.126052,10.0349086 159.585183,10.0349086 C160.050039,10.0349086 160.489063,10.1022316 160.902268,10.2368796 C161.315473,10.3715276 161.670566,10.5831142 161.967557,10.8716457 C162.264548,11.1601772 162.500201,11.5352625 162.674522,11.9969128 C162.848843,12.4585632 162.936002,13.0163824 162.936002,13.6703871 L162.936002,20.075754 L159.430232,20.075754 L159.430232,15.209214 C159.430232,14.7090927 159.394722,14.298743 159.323703,13.9781525 C159.252683,13.6575619 159.149383,13.4075051 159.0138,13.2279744 C158.878217,13.0484437 158.72004,12.9266211 158.539262,12.862503 C158.358485,12.7983849 158.164798,12.7663263 157.958195,12.7663263 C156.834794,12.7663263 156.273101,13.580614 156.273101,15.209214 L156.273101,20.075754 L152.767331,20.075754 L152.767331,15.209214 C152.767331,14.7090927 152.73505,14.2955371 152.670487,13.9685348 C152.605923,13.6415324 152.512308,13.381858 152.389638,13.1895037 C152.266967,12.9971494 152.10879,12.8657092 151.9151,12.7951793 C151.72141,12.7246494 151.495442,12.6893849 151.237188,12.6893849 C151.017673,12.6893849 150.811074,12.7214435 150.617384,12.7855616 C150.423694,12.8496797 150.252603,12.9747082 150.104108,13.1606507 C149.955612,13.3465932 149.8394,13.6030618 149.755468,13.9300641 C149.671535,14.2570665 149.62957,14.6834455 149.62957,15.209214 L149.62957,20.075754 L146.1238,20.075754 L146.1238,10.2080266 Z M172.601081,13.7088578 C172.484867,13.2215601 172.245987,12.8304455 171.884432,12.5355023 C171.522878,12.240559 171.083854,12.0930895 170.567347,12.0930895 C170.025015,12.0930895 169.582763,12.2341472 169.240578,12.5162669 C168.898392,12.7983866 168.682108,13.1959129 168.59172,13.7088578 L172.601081,13.7088578 Z M168.494875,15.728568 C168.494875,17.2289317 169.205061,17.9791024 170.625454,17.9791024 C171.387301,17.9791024 171.961906,17.6713401 172.349286,17.0558062 L175.738843,17.0558062 C175.054472,19.3127636 173.343569,20.4412254 170.606085,20.4412254 C169.766762,20.4412254 168.99847,20.3161969 168.301186,20.0661363 C167.603903,19.8160757 167.006701,19.4602255 166.509563,18.9985752 C166.012426,18.5369248 165.62828,17.9855173 165.357114,17.3443363 C165.085948,16.7031552 164.950367,15.9850432 164.950367,15.1899786 C164.950367,14.3692669 165.079492,13.6287138 165.337745,12.9682973 C165.595998,12.3078808 165.964004,11.7468558 166.441772,11.2852054 C166.919541,10.823555 167.497374,10.4677049 168.175289,10.2176443 C168.853203,9.96758365 169.618267,9.84255521 170.470503,9.84255521 C171.309826,9.84255521 172.065205,9.96758365 172.736664,10.2176443 C173.408122,10.4677049 173.976271,10.8299668 174.441127,11.3044408 C174.905982,11.7789147 175.261075,12.3591749 175.506416,13.0452387 C175.751757,13.7313024 175.874425,14.503914 175.874425,15.3630967 L175.874425,15.728568 L168.494875,15.728568 Z M184.454846,12.747091 C183.809213,12.4136768 183.176502,12.2469722 182.556694,12.2469722 C182.233878,12.2469722 181.9724,12.3110894 181.772254,12.4393256 C181.572108,12.5675618 181.472036,12.7406781 181.472036,12.9586796 C181.472036,13.0740922 181.488177,13.1670621 181.520458,13.237592 C181.55274,13.3081219 181.623759,13.3754449 181.733516,13.439563 C181.843274,13.5036812 182.00468,13.5613866 182.217739,13.6126811 C182.430798,13.6639756 182.711644,13.7280927 183.060286,13.8050344 C184.028735,13.9973888 184.751834,14.3404155 185.229602,14.8341249 C185.707371,15.3278343 185.946251,15.9593882 185.946251,16.7288055 C185.946251,17.3058685 185.830039,17.8252174 185.597611,18.2868677 C185.365183,18.7485181 185.042372,19.1364268 184.629166,19.4506056 C184.215961,19.7647843 183.718831,20.0084294 183.137761,20.1815483 C182.556691,20.3546672 181.917524,20.4412254 181.22024,20.4412254 C179.877324,20.4412254 178.553796,20.0629342 177.249617,19.3063405 L178.527964,16.8442175 C179.509326,17.5110458 180.439024,17.844455 181.317085,17.844455 C181.639902,17.844455 181.904607,17.7739261 182.11121,17.6328663 C182.317812,17.4918065 182.421112,17.3122785 182.421112,17.0942769 C182.421112,16.9660407 182.404972,16.8602474 182.37269,16.7768938 C182.340408,16.6935403 182.272618,16.6165997 182.169316,16.5460698 C182.066015,16.4755399 181.914294,16.4114228 181.714147,16.3537165 C181.514001,16.2960102 181.252524,16.2350989 180.929707,16.1709808 C179.845043,15.9529792 179.086436,15.6291876 178.653862,15.1995963 C178.221287,14.770005 178.005004,14.1769214 178.005004,13.4203277 C178.005004,12.868912 178.108303,12.3720041 178.314906,11.9295892 C178.521509,11.4871742 178.818495,11.1120889 179.205875,10.804322 C179.593255,10.4965551 180.061332,10.2593217 180.61012,10.0926146 C181.158908,9.9259075 181.769023,9.84255521 182.440481,9.84255521 C183.538057,9.84255521 184.603336,10.0541418 185.636349,10.4773213 L184.454846,12.747091 Z M194.313615,12.747091 C193.667982,12.4136768 193.035271,12.2469722 192.415463,12.2469722 C192.092646,12.2469722 191.831169,12.3110894 191.631023,12.4393256 C191.430876,12.5675618 191.330805,12.7406781 191.330805,12.9586796 C191.330805,13.0740922 191.346945,13.1670621 191.379227,13.237592 C191.411509,13.3081219 191.482527,13.3754449 191.592285,13.439563 C191.702042,13.5036812 191.863448,13.5613866 192.076507,13.6126811 C192.289566,13.6639756 192.570412,13.7280927 192.919054,13.8050344 C193.887504,13.9973888 194.610602,14.3404155 195.088371,14.8341249 C195.566139,15.3278343 195.80502,15.9593882 195.80502,16.7288055 C195.80502,17.3058685 195.688808,17.8252174 195.45638,18.2868677 C195.223952,18.7485181 194.90114,19.1364268 194.487935,19.4506056 C194.07473,19.7647843 193.5776,20.0084294 192.99653,20.1815483 C192.41546,20.3546672 191.776293,20.4412254 191.079009,20.4412254 C189.736092,20.4412254 188.412564,20.0629342 187.108385,19.3063405 L188.386732,16.8442175 C189.368095,17.5110458 190.297792,17.844455 191.175853,17.844455 C191.49867,17.844455 191.763376,17.7739261 191.969978,17.6328663 C192.176581,17.4918065 192.279881,17.3122785 192.279881,17.0942769 C192.279881,16.9660407 192.26374,16.8602474 192.231458,16.7768938 C192.199177,16.6935403 192.131386,16.6165997 192.028085,16.5460698 C191.924784,16.4755399 191.773062,16.4114228 191.572916,16.3537165 C191.37277,16.2960102 191.111292,16.2350989 190.788476,16.1709808 C189.703812,15.9529792 188.945204,15.6291876 188.51263,15.1995963 C188.080056,14.770005 187.863772,14.1769214 187.863772,13.4203277 C187.863772,12.868912 187.967072,12.3720041 188.173674,11.9295892 C188.380277,11.4871742 188.677264,11.1120889 189.064644,10.804322 C189.452024,10.4965551 189.920101,10.2593217 190.468889,10.0926146 C191.017677,9.9259075 191.627791,9.84255521 192.299249,9.84255521 C193.396826,9.84255521 194.462104,10.0541418 195.495117,10.4773213 L194.313615,12.747091 Z M201.189573,18.7292805 L196.386087,10.2080266 L200.453555,10.2080266 L203.107094,15.26692 L205.683157,10.2080266 L209.711888,10.2080266 L201.731902,25 L197.800016,25 L201.189573,18.7292805 Z" id="Sorting,cleaningandseparatingyourcolors.Damnnn,youmessy" fill="#FFFFFF" fill-rule="nonzero"></path>
                    <g id="smiley2" transform="translate(217.000000, 0.000000)">
                        <g id="laugh-tongue-emoji-emoticon-by-Vexels">
                            <ellipse id="Oval" fill="#FFD600" fill-rule="nonzero" cx="12.5" cy="12.0168409" rx="12.49388" ry="12.0168409"></ellipse>
                            <path d="M17.9883507,7.05234091 C20.1568998,7.05234091 21.9148629,8.74315909 21.9148629,10.8287273 C21.9148629,12.9144773 20.1569234,14.6051364 17.9883507,14.6051364 C15.8199669,14.6051364 14.0620274,12.9144773 14.0620274,10.8287273 C14.0620274,8.74318182 15.8199905,7.05234091 17.9883507,7.05234091 Z" id="Path" fill="#FFFFFF" fill-rule="nonzero"></path>
                            <path d="M12.2002127,21.1452955 C12.2002127,21.1452955 8.0789225,21.3363182 5.14083176,16.8659773 C4.98074197,16.4550682 4.23293951,15.9925455 5.94213138,16.198 C7.65186673,16.4036136 14.0620274,17.2255682 18.6026938,16.2494545 C18.6026938,16.2494545 20.4723771,15.7356364 19.4574669,17.2770455 C18.4424149,18.8187955 16.375,21.4170909 12.2002127,21.1452955 Z" id="Path" fill="#4D4F59" fill-rule="nonzero"></path>
                            <path d="M8.88000945,17.4981364 L8.93350662,21.7627045 C8.93350662,21.7627045 9.36091682,25 12.3524811,25 C15.3438563,25 15.7712429,22.6877273 15.7712429,21.3005227 C15.7712429,19.9132955 15.7712429,17.7554091 15.7712429,17.6010455 C15.7712429,17.4468864 15.7712429,17.1387045 15.2370747,17.1387045 C14.7030246,17.1387045 12.9936673,17.1387045 12.9936673,17.1387045 L12.4596645,18.4232045 L11.8717864,17.1901591 L9.46788752,17.1901591 C9.46788752,17.1897727 9.04033554,17.0870455 8.88000945,17.4981364 Z" id="Path" fill="url(#linearGradient-1)" fill-rule="nonzero"></path>
                            <path d="M5.24747164,12.4474091 C5.24747164,12.4474091 8.07873346,11.6765455 9.52100662,12.2417727 C10.9636815,12.8070227 10.8449905,11.5558864 9.20061437,11.0085455 C7.81162571,10.5462045 6.15555293,10.7516364 5.19395085,11.5223409 C4.23258507,12.0361818 4.71327977,12.4988636 5.24747164,12.4474091 Z" id="Path" fill="#4D4F59" fill-rule="nonzero"></path>
                            <path d="M17.9881853,9.60570455 C18.7111767,9.60570455 19.2972117,10.1693864 19.2972117,10.8645682 C19.2972117,11.5597727 18.7111531,12.1234318 17.9881853,12.1234318 C17.2654064,12.1234318 16.6793478,11.5597727 16.6793478,10.8645682 C16.6793478,10.1693864 17.2654064,9.60570455 17.9881853,9.60570455 Z" id="Path" fill="#4D4F59" fill-rule="nonzero"></path>
                        </g>
                    </g>
                </g>
            </g>
        </g>
    </g>
</svg>