<?xml version="1.0" encoding="UTF-8"?>
<svg width="15px" height="9px" viewBox="0 0 15 9" version="1.1" xmlns="http://www.w3.org/2000/svg" xmlns:xlink="http://www.w3.org/1999/xlink">
    <!-- Generator: Sketch 53.1 (72631) - https://sketchapp.com -->
    <title>textIcon</title>
    <desc>Created with Sketch.</desc>
    <g id="Symbols" stroke="none" stroke-width="1" fill="none" fill-rule="evenodd">
        <g id="colorRowExpandedHover-Copy" transform="translate(-73.000000, -175.000000)" fill="#B5B8C6" fill-rule="nonzero">
            <g id="color2Clicked" transform="translate(24.000000, 97.000000)">
                <g id="Group" transform="translate(0.185000, 0.330000)">
                    <g id="artboard-1">
                        <g id="Group-4" transform="translate(49.270000, 73.765000)">
                            <g id="textIcon" transform="translate(0.000000, 4.000000)">
                                <path d="M4.96289063,4.8895752 L3.70524902,1.22944336 L2.36865234,4.8895752 L4.96289063,4.8895752 Z M3.11872559,0 L4.38764648,0 L7.3935791,8.28464355 L6.16413574,8.28464355 L5.32382813,5.80319824 L2.04719238,5.80319824 L1.15048828,8.28464355 L1.81188398e-13,8.28464355 L3.11872559,0 Z M9.05727539,6.67734375 C9.05727539,6.97060694 9.16442764,7.20183021 9.37873535,7.37102051 C9.59304306,7.54021081 9.84682471,7.62480469 10.1400879,7.62480469 C10.4972674,7.62480469 10.8431624,7.54209067 11.1777832,7.37666016 C11.7417509,7.10219589 12.0237305,6.65290839 12.0237305,6.02878418 L12.0237305,5.21103516 C11.8996576,5.28999063 11.7398691,5.35578587 11.5443604,5.40842285 C11.3488516,5.46105983 11.1571054,5.49865711 10.9691162,5.52121582 L10.3543945,5.6001709 C9.98593566,5.6490481 9.70959565,5.72612252 9.52536621,5.83139648 C9.2133041,6.00810635 9.05727539,6.29008595 9.05727539,6.67734375 Z M11.5161621,4.62451172 C11.7492687,4.59443344 11.9052975,4.49668051 11.9842529,4.33125 C12.0293703,4.24101517 12.0519287,4.11130456 12.0519287,3.94211426 C12.0519287,3.59621409 11.9287976,3.34525224 11.6825317,3.18922119 C11.4362659,3.03319014 11.0837914,2.95517578 10.6250977,2.95517578 C10.0949681,2.95517578 9.71899525,3.09804545 9.49716797,3.38378906 C9.37309508,3.54170001 9.29226093,3.77668301 9.25466309,4.08874512 L8.30720215,4.08874512 C8.32600107,3.3443078 8.5675636,2.82640527 9.03189697,2.53502197 C9.49623035,2.24363868 10.0348114,2.09794922 10.6476563,2.09794922 C11.3582555,2.09794922 11.9353738,2.23329943 12.3790283,2.50400391 C12.8189231,2.77470838 13.0388672,3.19579792 13.0388672,3.76728516 L13.0388672,7.24694824 C13.0388672,7.35222221 13.0604856,7.43681609 13.1037231,7.50073242 C13.1469607,7.56464876 13.2381341,7.59660645 13.3772461,7.59660645 C13.4223635,7.59660645 13.4731198,7.59378665 13.5295166,7.58814697 C13.5859134,7.5825073 13.646069,7.57404791 13.7099854,7.56276855 L13.7099854,8.3128418 C13.5520744,8.35795921 13.4317631,8.38615717 13.3490479,8.39743652 C13.2663326,8.40871588 13.1535408,8.41435547 13.0106689,8.41435547 C12.661009,8.41435547 12.4072274,8.29028444 12.2493164,8.04213867 C12.1666011,7.91054622 12.1083254,7.72443968 12.0744873,7.48381348 C11.8676992,7.75451796 11.5706806,7.98950096 11.1834229,8.18876953 C10.7961651,8.38803811 10.3694359,8.4876709 9.90322266,8.4876709 C9.34301478,8.4876709 8.88526789,8.31754321 8.52996826,7.97728271 C8.17466863,7.63702222 7.99702148,7.21123303 7.99702148,6.69990234 C7.99702148,6.13969446 8.17184884,5.70544588 8.52150879,5.39714355 C8.87116874,5.08884123 9.32985556,4.89897497 9.89758301,4.82753906 L11.5161621,4.62451172 Z" id="Aa"></path>
                            </g>
                        </g>
                    </g>
                </g>
            </g>
        </g>
    </g>
</svg>