<?xml version="1.0" encoding="UTF-8"?>
<svg width="338px" height="81px" viewBox="0 0 338 81" version="1.1" xmlns="http://www.w3.org/2000/svg" xmlns:xlink="http://www.w3.org/1999/xlink">
    <!-- Generator: sketchtool 55.2 (78181) - https://sketchapp.com -->
    <title>B883E9D2-CD71-4A84-8103-7936E0DB69AF@1.00x</title>
    <desc>Created with sketchtool.</desc>
    <g id="Slice-3" stroke="none" stroke-width="1" fill="none" fill-rule="evenodd">
        <g id="loader" transform="translate(-16.000000, -518.000000)">
            <g id="tipCard" transform="translate(16.000000, 518.000000)">
                <rect id="Rectangle" fill="#6E63FF" x="0" y="0" width="338" height="81" rx="20"></rect>
                <path d="M81.712,22.872 L81.712,32.28 L78.576,32.28 L78.576,22.872 L76,22.872 L76,20.216 L84.288,20.216 L84.288,22.872 L81.712,22.872 Z M88.816,20.216 L88.816,32.28 L85.68,32.28 L85.68,20.216 L88.816,20.216 Z M94.48,25.752 L95.52,25.752 C96.6720058,25.752 97.248,25.2506717 97.248,24.248 C97.248,23.2453283 96.6720058,22.744 95.52,22.744 L94.48,22.744 L94.48,25.752 Z M94.48,32.28 L91.344,32.28 L91.344,20.216 L96.336,20.216 C97.6906734,20.216 98.7279964,20.5679965 99.448,21.272 C100.168004,21.9760035 100.528,22.9679936 100.528,24.248 C100.528,25.5280064 100.168004,26.5199965 99.448,27.224 C98.7279964,27.9280035 97.6906734,28.28 96.336,28.28 L94.48,28.28 L94.48,32.28 Z M101.776,25.352 C101.776,25.0959987 101.824,24.8533345 101.92,24.624 C102.016,24.3946655 102.149332,24.1946675 102.32,24.024 C102.490668,23.8533325 102.690666,23.7200005 102.92,23.624 C103.149334,23.5279995 103.391999,23.48 103.648,23.48 C103.904001,23.48 104.146666,23.5279995 104.376,23.624 C104.605334,23.7200005 104.805332,23.8533325 104.976,24.024 C105.146668,24.1946675 105.28,24.3946655 105.376,24.624 C105.472,24.8533345 105.52,25.0959987 105.52,25.352 C105.52,25.6080013 105.472,25.8506655 105.376,26.08 C105.28,26.3093345 105.146668,26.5093325 104.976,26.68 C104.805332,26.8506675 104.605334,26.9839995 104.376,27.08 C104.146666,27.1760005 103.904001,27.224 103.648,27.224 C103.391999,27.224 103.149334,27.1760005 102.92,27.08 C102.690666,26.9839995 102.490668,26.8506675 102.32,26.68 C102.149332,26.5093325 102.016,26.3093345 101.92,26.08 C101.824,25.8506655 101.776,25.6080013 101.776,25.352 Z M101.776,30.744 C101.776,30.4879987 101.824,30.2453345 101.92,30.016 C102.016,29.7866655 102.149332,29.5866675 102.32,29.416 C102.490668,29.2453325 102.690666,29.1120005 102.92,29.016 C103.149334,28.9199995 103.391999,28.872 103.648,28.872 C103.904001,28.872 104.146666,28.9199995 104.376,29.016 C104.605334,29.1120005 104.805332,29.2453325 104.976,29.416 C105.146668,29.5866675 105.28,29.7866655 105.376,30.016 C105.472,30.2453345 105.52,30.4879987 105.52,30.744 C105.52,31.0000013 105.472,31.2426655 105.376,31.472 C105.28,31.7013345 105.146668,31.9013325 104.976,32.072 C104.805332,32.2426675 104.605334,32.3759995 104.376,32.472 C104.146666,32.5680005 103.904001,32.616 103.648,32.616 C103.391999,32.616 103.149334,32.5680005 102.92,32.472 C102.690666,32.3759995 102.490668,32.2426675 102.32,32.072 C102.149332,31.9013325 102.016,31.7013345 101.92,31.472 C101.824,31.2426655 101.776,31.0000013 101.776,30.744 Z M117.648,22.872 L117.648,32.28 L114.512,32.28 L114.512,22.872 L111.936,22.872 L111.936,20.216 L120.224,20.216 L120.224,22.872 L117.648,22.872 Z M121.344,24.072 L124.24,24.072 L124.24,25.416 C124.549335,24.9253309 124.927998,24.5493346 125.376,24.288 C125.824002,24.0266654 126.346664,23.896 126.944,23.896 L127.192,23.896 C127.282667,23.896 127.386666,23.9066666 127.504,23.928 L127.504,26.696 C127.119998,26.503999 126.704002,26.408 126.256,26.408 C125.583997,26.408 125.080002,26.607998 124.744,27.008 C124.407998,27.408002 124.24,27.9919962 124.24,28.76 L124.24,32.28 L121.344,32.28 L121.344,24.072 Z M131.76,31.16 L127.792,24.072 L131.152,24.072 L133.344,28.28 L135.472,24.072 L138.8,24.072 L132.208,36.376 L128.96,36.376 L131.76,31.16 Z M145.232,24.072 L148.128,24.072 L148.128,25.416 C148.437335,24.9253309 148.815998,24.5493346 149.264,24.288 C149.712002,24.0266654 150.234664,23.896 150.832,23.896 L151.08,23.896 C151.170667,23.896 151.274666,23.9066666 151.392,23.928 L151.392,26.696 C151.007998,26.503999 150.592002,26.408 150.144,26.408 C149.471997,26.408 148.968002,26.607998 148.632,27.008 C148.295998,27.408002 148.128,27.9919962 148.128,28.76 L148.128,32.28 L145.232,32.28 L145.232,24.072 Z M155.568,24.072 L155.568,28.696 C155.568,29.7093384 156.058662,30.216 157.04,30.216 C158.021338,30.216 158.512,29.7093384 158.512,28.696 L158.512,24.072 L161.408,24.072 L161.408,29.256 C161.408,30.3653389 161.04267,31.1973306 160.312,31.752 C159.58133,32.3066694 158.490674,32.584 157.04,32.584 C155.589326,32.584 154.49867,32.3066694 153.768,31.752 C153.03733,31.1973306 152.672,30.3653389 152.672,29.256 L152.672,24.072 L155.568,24.072 Z M163.376,24.072 L166.272,24.072 L166.272,25.112 C166.666669,24.6319976 167.066665,24.3093342 167.472,24.144 C167.877335,23.9786658 168.351997,23.896 168.896,23.896 C169.472003,23.896 169.965331,23.9893324 170.376,24.176 C170.786669,24.3626676 171.135999,24.626665 171.424,24.968 C171.658668,25.2453347 171.818666,25.554665 171.904,25.896 C171.989334,26.237335 172.032,26.6266645 172.032,27.064 L172.032,32.28 L169.136,32.28 L169.136,28.136 C169.136,27.7306646 169.106667,27.4026679 169.048,27.152 C168.989333,26.9013321 168.885334,26.7013341 168.736,26.552 C168.607999,26.4239994 168.464001,26.3333336 168.304,26.28 C168.143999,26.2266664 167.973334,26.2 167.792,26.2 C167.301331,26.2 166.925335,26.3466652 166.664,26.64 C166.402665,26.9333348 166.272,27.3519973 166.272,27.896 L166.272,32.28 L163.376,32.28 L163.376,24.072 Z M174,24.072 L176.896,24.072 L176.896,25.112 C177.290669,24.6319976 177.690665,24.3093342 178.096,24.144 C178.501335,23.9786658 178.975997,23.896 179.52,23.896 C180.096003,23.896 180.589331,23.9893324 181,24.176 C181.410669,24.3626676 181.759999,24.626665 182.048,24.968 C182.282668,25.2453347 182.442666,25.554665 182.528,25.896 C182.613334,26.237335 182.656,26.6266645 182.656,27.064 L182.656,32.28 L179.76,32.28 L179.76,28.136 C179.76,27.7306646 179.730667,27.4026679 179.672,27.152 C179.613333,26.9013321 179.509334,26.7013341 179.36,26.552 C179.231999,26.4239994 179.088001,26.3333336 178.928,26.28 C178.767999,26.2266664 178.597334,26.2 178.416,26.2 C177.925331,26.2 177.549335,26.3466652 177.288,26.64 C177.026665,26.9333348 176.896,27.3519973 176.896,27.896 L176.896,32.28 L174,32.28 L174,24.072 Z M187.52,24.072 L187.52,32.28 L184.624,32.28 L184.624,24.072 L187.52,24.072 Z M184.432,20.92 C184.432,20.6959989 184.474666,20.4853343 184.56,20.288 C184.645334,20.0906657 184.762666,19.9173341 184.912,19.768 C185.061334,19.6186659 185.234666,19.5013338 185.432,19.416 C185.629334,19.3306662 185.839999,19.288 186.064,19.288 C186.288001,19.288 186.498666,19.3306662 186.696,19.416 C186.893334,19.5013338 187.066666,19.6186659 187.216,19.768 C187.365334,19.9173341 187.482666,20.0906657 187.568,20.288 C187.653334,20.4853343 187.696,20.6959989 187.696,20.92 C187.696,21.1440011 187.653334,21.3546657 187.568,21.552 C187.482666,21.7493343 187.365334,21.9226659 187.216,22.072 C187.066666,22.2213341 186.893334,22.3386662 186.696,22.424 C186.498666,22.5093338 186.288001,22.552 186.064,22.552 C185.839999,22.552 185.629334,22.5093338 185.432,22.424 C185.234666,22.3386662 185.061334,22.2213341 184.912,22.072 C184.762666,21.9226659 184.645334,21.7493343 184.56,21.552 C184.474666,21.3546657 184.432,21.1440011 184.432,20.92 Z M189.504,24.072 L192.4,24.072 L192.4,25.112 C192.794669,24.6319976 193.194665,24.3093342 193.6,24.144 C194.005335,23.9786658 194.479997,23.896 195.024,23.896 C195.600003,23.896 196.093331,23.9893324 196.504,24.176 C196.914669,24.3626676 197.263999,24.626665 197.552,24.968 C197.786668,25.2453347 197.946666,25.554665 198.032,25.896 C198.117334,26.237335 198.16,26.6266645 198.16,27.064 L198.16,32.28 L195.264,32.28 L195.264,28.136 C195.264,27.7306646 195.234667,27.4026679 195.176,27.152 C195.117333,26.9013321 195.013334,26.7013341 194.864,26.552 C194.735999,26.4239994 194.592001,26.3333336 194.432,26.28 C194.271999,26.2266664 194.101334,26.2 193.92,26.2 C193.429331,26.2 193.053335,26.3466652 192.792,26.64 C192.530665,26.9333348 192.4,27.3519973 192.4,27.896 L192.4,32.28 L189.504,32.28 L189.504,24.072 Z M202.816,28.136 C202.816,28.402668 202.864,28.6506655 202.96,28.88 C203.056,29.1093345 203.186666,29.3093325 203.352,29.48 C203.517334,29.6506675 203.714666,29.7839995 203.944,29.88 C204.173334,29.9760005 204.421332,30.024 204.688,30.024 C204.944001,30.024 205.186666,29.9760005 205.416,29.88 C205.645334,29.7839995 205.842666,29.6506675 206.008,29.48 C206.173334,29.3093325 206.306666,29.1093345 206.408,28.88 C206.509334,28.6506655 206.56,28.4080013 206.56,28.152 C206.56,27.885332 206.509334,27.6400011 206.408,27.416 C206.306666,27.1919989 206.170668,26.9946675 206,26.824 C205.829332,26.6533325 205.629334,26.5200005 205.4,26.424 C205.170666,26.3279995 204.933335,26.28 204.688,26.28 C204.431999,26.28 204.192001,26.3306662 203.968,26.432 C203.743999,26.5333338 203.546668,26.6666658 203.376,26.832 C203.205332,26.9973342 203.069334,27.1919989 202.968,27.416 C202.866666,27.6400011 202.816,27.8799987 202.816,28.136 Z M209.312,24.072 L209.312,31.72 C209.312,32.178669 209.285334,32.5893315 209.232,32.952 C209.178666,33.3146685 209.104,33.6346653 209.008,33.912 C208.879999,34.2640018 208.680001,34.5919985 208.408,34.896 C208.135999,35.2000015 207.808,35.4639989 207.424,35.688 C207.039998,35.9120011 206.605336,36.0879994 206.12,36.216 C205.634664,36.3440006 205.109336,36.408 204.544,36.408 C203.903997,36.408 203.317336,36.3280008 202.784,36.168 C202.250664,36.0079992 201.784002,35.7866681 201.384,35.504 C200.983998,35.2213319 200.656001,34.8906686 200.4,34.512 C200.143999,34.1333314 199.973334,33.7200022 199.888,33.272 L203.152,33.272 C203.354668,33.8160027 203.81333,34.088 204.528,34.088 C205.136003,34.088 205.602665,33.917335 205.928,33.576 C206.253335,33.234665 206.416,32.760003 206.416,32.152 L206.416,31.368 C206.202666,31.5706677 205.997334,31.738666 205.8,31.872 C205.602666,32.005334 205.402668,32.1146662 205.2,32.2 C204.997332,32.2853338 204.784001,32.3466665 204.56,32.384 C204.335999,32.4213335 204.090668,32.44 203.824,32.44 C203.23733,32.44 202.698669,32.3386677 202.208,32.136 C201.717331,31.9333323 201.293335,31.6506685 200.936,31.288 C200.578665,30.9253315 200.301334,30.4906692 200.104,29.984 C199.906666,29.4773308 199.808,28.9146698 199.808,28.296 C199.808,27.6666635 199.914666,27.0826694 200.128,26.544 C200.341334,26.0053306 200.631998,25.536002 201,25.136 C201.368002,24.735998 201.805331,24.4213345 202.312,24.192 C202.818669,23.9626655 203.370664,23.848 203.968,23.848 C204.938672,23.848 205.754663,24.210663 206.416,24.936 L206.416,24.072 L209.312,24.072 Z M225.68,24.248 C224.954663,23.3626622 224.058672,22.92 222.992,22.92 C222.522664,22.92 222.088002,23.0053325 221.688,23.176 C221.287998,23.3466675 220.944001,23.5786652 220.656,23.872 C220.367999,24.1653348 220.141334,24.5146646 219.976,24.92 C219.810666,25.3253354 219.728,25.7626643 219.728,26.232 C219.728,26.7120024 219.810666,27.1546646 219.976,27.56 C220.141334,27.9653354 220.370665,28.3173318 220.664,28.616 C220.957335,28.9146682 221.301331,29.1493325 221.696,29.32 C222.090669,29.4906675 222.517331,29.576 222.976,29.576 C223.978672,29.576 224.879996,29.1493376 225.68,28.296 L225.68,32.008 L225.36,32.12 C224.879998,32.2906675 224.432002,32.4159996 224.016,32.496 C223.599998,32.5760004 223.189335,32.616 222.784,32.616 C221.951996,32.616 221.15467,32.4586682 220.392,32.144 C219.62933,31.8293318 218.957336,31.3866695 218.376,30.816 C217.794664,30.2453305 217.328002,29.5680039 216.976,28.784 C216.623998,27.9999961 216.448,27.1440046 216.448,26.216 C216.448,25.2879954 216.621332,24.4373372 216.968,23.664 C217.314668,22.8906628 217.778664,22.2240028 218.36,21.664 C218.941336,21.1039972 219.615996,20.6666682 220.384,20.352 C221.152004,20.0373318 221.957329,19.88 222.8,19.88 C223.280002,19.88 223.751998,19.9306662 224.216,20.032 C224.680002,20.1333338 225.167997,20.2906656 225.68,20.504 L225.68,24.248 Z M230.128,28.136 C230.128,28.4133347 230.178666,28.6666655 230.28,28.896 C230.381334,29.1253345 230.514666,29.3253325 230.68,29.496 C230.845334,29.6666675 231.042666,29.7999995 231.272,29.896 C231.501334,29.9920005 231.743999,30.04 232,30.04 C232.256001,30.04 232.498666,29.9920005 232.728,29.896 C232.957334,29.7999995 233.154666,29.6666675 233.32,29.496 C233.485334,29.3253325 233.618666,29.1253345 233.72,28.896 C233.821334,28.6666655 233.872,28.418668 233.872,28.152 C233.872,27.8959987 233.821334,27.6533345 233.72,27.424 C233.618666,27.1946655 233.485334,26.9946675 233.32,26.824 C233.154666,26.6533325 232.957334,26.5200005 232.728,26.424 C232.498666,26.3279995 232.256001,26.28 232,26.28 C231.743999,26.28 231.501334,26.3279995 231.272,26.424 C231.042666,26.5200005 230.845334,26.6533325 230.68,26.824 C230.514666,26.9946675 230.381334,27.1919989 230.28,27.416 C230.178666,27.6400011 230.128,27.8799987 230.128,28.136 Z M227.072,28.104 C227.072,27.495997 227.194665,26.9280026 227.44,26.4 C227.685335,25.8719974 228.026664,25.4133353 228.464,25.024 C228.901336,24.6346647 229.42133,24.3280011 230.024,24.104 C230.62667,23.8799989 231.28533,23.768 232,23.768 C232.704004,23.768 233.35733,23.8773322 233.96,24.096 C234.56267,24.3146678 235.085331,24.6186647 235.528,25.008 C235.970669,25.3973353 236.314665,25.8613306 236.56,26.4 C236.805335,26.9386694 236.928,27.5333301 236.928,28.184 C236.928,28.8346699 236.802668,29.4293306 236.552,29.968 C236.301332,30.5066694 235.957336,30.9706647 235.52,31.36 C235.082664,31.7493353 234.557336,32.0506656 233.944,32.264 C233.330664,32.4773344 232.66667,32.584 231.952,32.584 C231.247996,32.584 230.597336,32.4773344 230,32.264 C229.402664,32.0506656 228.888002,31.7466686 228.456,31.352 C228.023998,30.9573314 227.685335,30.4853361 227.44,29.936 C227.194665,29.3866639 227.072,28.7760034 227.072,28.104 Z M241.488,19 L241.488,32.28 L238.592,32.28 L238.592,19 L241.488,19 Z M246.208,28.136 C246.208,28.4133347 246.258666,28.6666655 246.36,28.896 C246.461334,29.1253345 246.594666,29.3253325 246.76,29.496 C246.925334,29.6666675 247.122666,29.7999995 247.352,29.896 C247.581334,29.9920005 247.823999,30.04 248.08,30.04 C248.336001,30.04 248.578666,29.9920005 248.808,29.896 C249.037334,29.7999995 249.234666,29.6666675 249.4,29.496 C249.565334,29.3253325 249.698666,29.1253345 249.8,28.896 C249.901334,28.6666655 249.952,28.418668 249.952,28.152 C249.952,27.8959987 249.901334,27.6533345 249.8,27.424 C249.698666,27.1946655 249.565334,26.9946675 249.4,26.824 C249.234666,26.6533325 249.037334,26.5200005 248.808,26.424 C248.578666,26.3279995 248.336001,26.28 248.08,26.28 C247.823999,26.28 247.581334,26.3279995 247.352,26.424 C247.122666,26.5200005 246.925334,26.6533325 246.76,26.824 C246.594666,26.9946675 246.461334,27.1919989 246.36,27.416 C246.258666,27.6400011 246.208,27.8799987 246.208,28.136 Z M243.152,28.104 C243.152,27.495997 243.274665,26.9280026 243.52,26.4 C243.765335,25.8719974 244.106664,25.4133353 244.544,25.024 C244.981336,24.6346647 245.50133,24.3280011 246.104,24.104 C246.70667,23.8799989 247.36533,23.768 248.08,23.768 C248.784004,23.768 249.43733,23.8773322 250.04,24.096 C250.64267,24.3146678 251.165331,24.6186647 251.608,25.008 C252.050669,25.3973353 252.394665,25.8613306 252.64,26.4 C252.885335,26.9386694 253.008,27.5333301 253.008,28.184 C253.008,28.8346699 252.882668,29.4293306 252.632,29.968 C252.381332,30.5066694 252.037336,30.9706647 251.6,31.36 C251.162664,31.7493353 250.637336,32.0506656 250.024,32.264 C249.410664,32.4773344 248.74667,32.584 248.032,32.584 C247.327996,32.584 246.677336,32.4773344 246.08,32.264 C245.482664,32.0506656 244.968002,31.7466686 244.536,31.352 C244.103998,30.9573314 243.765335,30.4853361 243.52,29.936 C243.274665,29.3866639 243.152,28.7760034 243.152,28.104 Z M254.672,24.072 L257.568,24.072 L257.568,25.416 C257.877335,24.9253309 258.255998,24.5493346 258.704,24.288 C259.152002,24.0266654 259.674664,23.896 260.272,23.896 L260.52,23.896 C260.610667,23.896 260.714666,23.9066666 260.832,23.928 L260.832,26.696 C260.447998,26.503999 260.032002,26.408 259.584,26.408 C258.911997,26.408 258.408002,26.607998 258.072,27.008 C257.735998,27.408002 257.568,27.9919962 257.568,28.76 L257.568,32.28 L254.672,32.28 L254.672,24.072 Z M262.112,24.072 L265.008,24.072 L265.008,25.08 C265.797337,24.3226629 266.682662,23.944 267.664,23.944 C268.880006,23.944 269.807997,24.4559949 270.448,25.48 C271.09867,24.4453282 272.026661,23.928 273.232,23.928 C273.616002,23.928 273.978665,23.9839994 274.32,24.096 C274.661335,24.2080006 274.954665,24.3839988 275.2,24.624 C275.445335,24.8640012 275.639999,25.1759981 275.784,25.56 C275.928001,25.9440019 276,26.4079973 276,26.952 L276,32.28 L273.104,32.28 L273.104,28.232 C273.104,27.8159979 273.074667,27.474668 273.016,27.208 C272.957333,26.941332 272.872001,26.7333341 272.76,26.584 C272.647999,26.4346659 272.517334,26.3333336 272.368,26.28 C272.218666,26.2266664 272.058668,26.2 271.888,26.2 C270.959995,26.2 270.496,26.8773266 270.496,28.232 L270.496,32.28 L267.6,32.28 L267.6,28.232 C267.6,27.8159979 267.573334,27.4720014 267.52,27.2 C267.466666,26.928 267.389334,26.7120008 267.288,26.552 C267.186666,26.3919992 267.056001,26.282667 266.896,26.224 C266.735999,26.165333 266.549334,26.136 266.336,26.136 C266.154666,26.136 265.984001,26.1626664 265.824,26.216 C265.663999,26.2693336 265.522667,26.3733326 265.4,26.528 C265.277333,26.6826674 265.181334,26.8959986 265.112,27.168 C265.042666,27.4400014 265.008,27.7946645 265.008,28.232 L265.008,32.28 L262.112,32.28 L262.112,24.072 Z M280.672,28.152 C280.672,28.418668 280.72,28.6666655 280.816,28.896 C280.912,29.1253345 281.042666,29.3253325 281.208,29.496 C281.373334,29.6666675 281.570666,29.7999995 281.8,29.896 C282.029334,29.9920005 282.277332,30.04 282.544,30.04 C282.800001,30.04 283.042666,29.9920005 283.272,29.896 C283.501334,29.7999995 283.698666,29.6666675 283.864,29.496 C284.029334,29.3253325 284.162666,29.1280011 284.264,28.904 C284.365334,28.6799989 284.416,28.4400013 284.416,28.184 C284.416,27.9279987 284.365334,27.6853345 284.264,27.456 C284.162666,27.2266655 284.029334,27.0266675 283.864,26.856 C283.698666,26.6853325 283.501334,26.5520005 283.272,26.456 C283.042666,26.3599995 282.800001,26.312 282.544,26.312 C282.277332,26.312 282.029334,26.3599995 281.8,26.456 C281.570666,26.5520005 281.373334,26.6853325 281.208,26.856 C281.042666,27.0266675 280.912,27.2213322 280.816,27.44 C280.72,27.6586678 280.672,27.8959987 280.672,28.152 Z M284.32,24.072 L287.232,24.072 L287.232,32.28 L284.32,32.28 L284.32,31.368 C283.70133,32.1466706 282.864005,32.536 281.808,32.536 C281.210664,32.536 280.661336,32.4266678 280.16,32.208 C279.658664,31.9893322 279.221335,31.6826686 278.848,31.288 C278.474665,30.8933314 278.184001,30.429336 277.976,29.896 C277.767999,29.362664 277.664,28.7813365 277.664,28.152 C277.664,27.5653304 277.765332,27.0080026 277.968,26.48 C278.170668,25.9519974 278.453332,25.4906686 278.816,25.096 C279.178668,24.7013314 279.610664,24.3893345 280.112,24.16 C280.613336,23.9306655 281.167997,23.816 281.776,23.816 C282.800005,23.816 283.647997,24.1733298 284.32,24.888 L284.32,24.072 Z M292.432,26.488 L292.432,32.28 L289.536,32.28 L289.536,26.488 L288.576,26.488 L288.576,24.072 L289.536,24.072 L289.536,21.608 L292.432,21.608 L292.432,24.072 L294.08,24.072 L294.08,26.488 L292.432,26.488 Z M301.168,26.984 C301.072,26.5786646 300.874668,26.2533346 300.576,26.008 C300.277332,25.7626654 299.914669,25.64 299.488,25.64 C299.039998,25.64 298.674668,25.7573322 298.392,25.992 C298.109332,26.2266678 297.930667,26.5573312 297.856,26.984 L301.168,26.984 Z M297.776,28.664 C297.776,29.9120062 298.362661,30.536 299.536,30.536 C300.165336,30.536 300.639998,30.2800026 300.96,29.768 L303.76,29.768 C303.194664,31.6453427 301.781345,32.584 299.52,32.584 C298.826663,32.584 298.192003,32.480001 297.616,32.272 C297.039997,32.063999 296.546669,31.768 296.136,31.384 C295.725331,30.9999981 295.408001,30.541336 295.184,30.008 C294.959999,29.474664 294.848,28.8773366 294.848,28.216 C294.848,27.5333299 294.954666,26.9173361 295.168,26.368 C295.381334,25.8186639 295.685331,25.3520019 296.08,24.968 C296.474669,24.5839981 296.951997,24.288001 297.512,24.08 C298.072003,23.871999 298.703996,23.768 299.408,23.768 C300.101337,23.768 300.725331,23.871999 301.28,24.08 C301.834669,24.288001 302.303998,24.5893314 302.688,24.984 C303.072002,25.3786686 303.365332,25.8613305 303.568,26.432 C303.770668,27.0026695 303.872,27.6453298 303.872,28.36 L303.872,28.664 L297.776,28.664 Z M117.44,49.072 L117.44,61.376 L114.544,61.376 L114.544,49.072 L117.44,49.072 Z M114.352,45.92 C114.352,45.6959989 114.394666,45.4853343 114.48,45.288 C114.565334,45.0906657 114.682666,44.9173341 114.832,44.768 C114.981334,44.6186659 115.154666,44.5013338 115.352,44.416 C115.549334,44.3306662 115.759999,44.288 115.984,44.288 C116.208001,44.288 116.418666,44.3306662 116.616,44.416 C116.813334,44.5013338 116.986666,44.6186659 117.136,44.768 C117.285334,44.9173341 117.402666,45.0906657 117.488,45.288 C117.573334,45.4853343 117.616,45.6959989 117.616,45.92 C117.616,46.1440011 117.573334,46.3546657 117.488,46.552 C117.402666,46.7493343 117.285334,46.9226659 117.136,47.072 C116.986666,47.2213341 116.813334,47.3386662 116.616,47.424 C116.418666,47.5093338 116.208001,47.552 115.984,47.552 C115.759999,47.552 115.549334,47.5093338 115.352,47.424 C115.154666,47.3386662 114.981334,47.2213341 114.832,47.072 C114.682666,46.9226659 114.565334,46.7493343 114.48,46.552 C114.394666,46.3546657 114.352,46.1440011 114.352,45.92 Z M122.32,49.072 L122.32,53.696 C122.32,54.7093384 122.810662,55.216 123.792,55.216 C124.773338,55.216 125.264,54.7093384 125.264,53.696 L125.264,49.072 L128.16,49.072 L128.16,54.256 C128.16,55.3653389 127.79467,56.1973306 127.064,56.752 C126.33333,57.3066694 125.242674,57.584 123.792,57.584 C122.341326,57.584 121.25067,57.3066694 120.52,56.752 C119.78933,56.1973306 119.424,55.3653389 119.424,54.256 L119.424,49.072 L122.32,49.072 Z M135.568,51.184 C135.034664,50.9066653 134.512003,50.768 134,50.768 C133.733332,50.768 133.517334,50.8213328 133.352,50.928 C133.186666,51.0346672 133.104,51.1786658 133.104,51.36 C133.104,51.4560005 133.117333,51.533333 133.144,51.592 C133.170667,51.650667 133.229333,51.7066664 133.32,51.76 C133.410667,51.8133336 133.543999,51.8613331 133.72,51.904 C133.896001,51.9466669 134.127999,51.9999997 134.416,52.064 C135.216004,52.2240008 135.813331,52.5093313 136.208,52.92 C136.602669,53.3306687 136.8,53.8559968 136.8,54.496 C136.8,54.9760024 136.704001,55.4079981 136.512,55.792 C136.319999,56.1760019 136.053335,56.4986654 135.712,56.76 C135.370665,57.0213346 134.960002,57.2239993 134.48,57.368 C133.999998,57.5120007 133.472003,57.584 132.896,57.584 C131.786661,57.584 130.693339,57.2693365 129.616,56.64 L130.672,54.592 C131.482671,55.1466694 132.250663,55.424 132.976,55.424 C133.242668,55.424 133.461332,55.3653339 133.632,55.248 C133.802668,55.1306661 133.888,54.9813342 133.888,54.8 C133.888,54.6933328 133.874667,54.6053337 133.848,54.536 C133.821333,54.4666663 133.765334,54.402667 133.68,54.344 C133.594666,54.285333 133.469334,54.2320002 133.304,54.184 C133.138666,54.1359998 132.922668,54.0853336 132.656,54.032 C131.759996,53.8506658 131.133335,53.5813351 130.776,53.224 C130.418665,52.8666649 130.24,52.3733365 130.24,51.744 C130.24,51.285331 130.325332,50.8720018 130.496,50.504 C130.666668,50.1359982 130.911998,49.8240013 131.232,49.568 C131.552002,49.3119987 131.938664,49.1146674 132.392,48.976 C132.845336,48.8373326 133.349331,48.768 133.904,48.768 C134.810671,48.768 135.690662,48.9439982 136.544,49.296 L135.568,51.184 Z M141.504,51.488 L141.504,57.28 L138.608,57.28 L138.608,51.488 L137.648,51.488 L137.648,49.072 L138.608,49.072 L138.608,46.608 L141.504,46.608 L141.504,49.072 L143.152,49.072 L143.152,51.488 L141.504,51.488 Z M152.416,53.136 C152.416,53.4133347 152.466666,53.6666655 152.568,53.896 C152.669334,54.1253345 152.802666,54.3253325 152.968,54.496 C153.133334,54.6666675 153.330666,54.7999995 153.56,54.896 C153.789334,54.9920005 154.031999,55.04 154.288,55.04 C154.544001,55.04 154.786666,54.9920005 155.016,54.896 C155.245334,54.7999995 155.442666,54.6666675 155.608,54.496 C155.773334,54.3253325 155.906666,54.1253345 156.008,53.896 C156.109334,53.6666655 156.16,53.418668 156.16,53.152 C156.16,52.8959987 156.109334,52.6533345 156.008,52.424 C155.906666,52.1946655 155.773334,51.9946675 155.608,51.824 C155.442666,51.6533325 155.245334,51.5200005 155.016,51.424 C154.786666,51.3279995 154.544001,51.28 154.288,51.28 C154.031999,51.28 153.789334,51.3279995 153.56,51.424 C153.330666,51.5200005 153.133334,51.6533325 152.968,51.824 C152.802666,51.9946675 152.669334,52.1919989 152.568,52.416 C152.466666,52.6400011 152.416,52.8799987 152.416,53.136 Z M149.36,53.104 C149.36,52.495997 149.482665,51.9280026 149.728,51.4 C149.973335,50.8719974 150.314664,50.4133353 150.752,50.024 C151.189336,49.6346647 151.70933,49.3280011 152.312,49.104 C152.91467,48.8799989 153.57333,48.768 154.288,48.768 C154.992004,48.768 155.64533,48.8773322 156.248,49.096 C156.85067,49.3146678 157.373331,49.6186647 157.816,50.008 C158.258669,50.3973353 158.602665,50.8613306 158.848,51.4 C159.093335,51.9386694 159.216,52.5333301 159.216,53.184 C159.216,53.8346699 159.090668,54.4293306 158.84,54.968 C158.589332,55.5066694 158.245336,55.9706647 157.808,56.36 C157.370664,56.7493353 156.845336,57.0506656 156.232,57.264 C155.618664,57.4773344 154.95467,57.584 154.24,57.584 C153.535996,57.584 152.885336,57.4773344 152.288,57.264 C151.690664,57.0506656 151.176002,56.7466686 150.744,56.352 C150.311998,55.9573314 149.973335,55.4853361 149.728,54.936 C149.482665,54.3866639 149.36,53.7760034 149.36,53.104 Z M160.88,49.072 L163.776,49.072 L163.776,50.112 C164.170669,49.6319976 164.570665,49.3093342 164.976,49.144 C165.381335,48.9786658 165.855997,48.896 166.4,48.896 C166.976003,48.896 167.469331,48.9893324 167.88,49.176 C168.290669,49.3626676 168.639999,49.626665 168.928,49.968 C169.162668,50.2453347 169.322666,50.554665 169.408,50.896 C169.493334,51.237335 169.536,51.6266645 169.536,52.064 L169.536,57.28 L166.64,57.28 L166.64,53.136 C166.64,52.7306646 166.610667,52.4026679 166.552,52.152 C166.493333,51.9013321 166.389334,51.7013341 166.24,51.552 C166.111999,51.4239994 165.968001,51.3333336 165.808,51.28 C165.647999,51.2266664 165.477334,51.2 165.296,51.2 C164.805331,51.2 164.429335,51.3466652 164.168,51.64 C163.906665,51.9333348 163.776,52.3519973 163.776,52.896 L163.776,57.28 L160.88,57.28 L160.88,49.072 Z M179.632,53.152 C179.632,53.418668 179.68,53.6666655 179.776,53.896 C179.872,54.1253345 180.002666,54.3253325 180.168,54.496 C180.333334,54.6666675 180.530666,54.7999995 180.76,54.896 C180.989334,54.9920005 181.237332,55.04 181.504,55.04 C181.760001,55.04 182.002666,54.9920005 182.232,54.896 C182.461334,54.7999995 182.658666,54.6666675 182.824,54.496 C182.989334,54.3253325 183.122666,54.1280011 183.224,53.904 C183.325334,53.6799989 183.376,53.4400013 183.376,53.184 C183.376,52.9279987 183.325334,52.6853345 183.224,52.456 C183.122666,52.2266655 182.989334,52.0266675 182.824,51.856 C182.658666,51.6853325 182.461334,51.5520005 182.232,51.456 C182.002666,51.3599995 181.760001,51.312 181.504,51.312 C181.237332,51.312 180.989334,51.3599995 180.76,51.456 C180.530666,51.5520005 180.333334,51.6853325 180.168,51.856 C180.002666,52.0266675 179.872,52.2213322 179.776,52.44 C179.68,52.6586678 179.632,52.8959987 179.632,53.152 Z M183.28,49.072 L186.192,49.072 L186.192,57.28 L183.28,57.28 L183.28,56.368 C182.66133,57.1466706 181.824005,57.536 180.768,57.536 C180.170664,57.536 179.621336,57.4266678 179.12,57.208 C178.618664,56.9893322 178.181335,56.6826686 177.808,56.288 C177.434665,55.8933314 177.144001,55.429336 176.936,54.896 C176.727999,54.362664 176.624,53.7813365 176.624,53.152 C176.624,52.5653304 176.725332,52.0080026 176.928,51.48 C177.130668,50.9519974 177.413332,50.4906686 177.776,50.096 C178.138668,49.7013314 178.570664,49.3893345 179.072,49.16 C179.573336,48.9306655 180.127997,48.816 180.736,48.816 C181.760005,48.816 182.607997,49.1733298 183.28,49.888 L183.28,49.072 Z M199.04,51.184 C198.506664,50.9066653 197.984003,50.768 197.472,50.768 C197.205332,50.768 196.989334,50.8213328 196.824,50.928 C196.658666,51.0346672 196.576,51.1786658 196.576,51.36 C196.576,51.4560005 196.589333,51.533333 196.616,51.592 C196.642667,51.650667 196.701333,51.7066664 196.792,51.76 C196.882667,51.8133336 197.015999,51.8613331 197.192,51.904 C197.368001,51.9466669 197.599999,51.9999997 197.888,52.064 C198.688004,52.2240008 199.285331,52.5093313 199.68,52.92 C200.074669,53.3306687 200.272,53.8559968 200.272,54.496 C200.272,54.9760024 200.176001,55.4079981 199.984,55.792 C199.791999,56.1760019 199.525335,56.4986654 199.184,56.76 C198.842665,57.0213346 198.432002,57.2239993 197.952,57.368 C197.471998,57.5120007 196.944003,57.584 196.368,57.584 C195.258661,57.584 194.165339,57.2693365 193.088,56.64 L194.144,54.592 C194.954671,55.1466694 195.722663,55.424 196.448,55.424 C196.714668,55.424 196.933332,55.3653339 197.104,55.248 C197.274668,55.1306661 197.36,54.9813342 197.36,54.8 C197.36,54.6933328 197.346667,54.6053337 197.32,54.536 C197.293333,54.4666663 197.237334,54.402667 197.152,54.344 C197.066666,54.285333 196.941334,54.2320002 196.776,54.184 C196.610666,54.1359998 196.394668,54.0853336 196.128,54.032 C195.231996,53.8506658 194.605335,53.5813351 194.248,53.224 C193.890665,52.8666649 193.712,52.3733365 193.712,51.744 C193.712,51.285331 193.797332,50.8720018 193.968,50.504 C194.138668,50.1359982 194.383998,49.8240013 194.704,49.568 C195.024002,49.3119987 195.410664,49.1146674 195.864,48.976 C196.317336,48.8373326 196.821331,48.768 197.376,48.768 C198.282671,48.768 199.162662,48.9439982 200.016,49.296 L199.04,51.184 Z M207.744,51.984 C207.648,51.5786646 207.450668,51.2533346 207.152,51.008 C206.853332,50.7626654 206.490669,50.64 206.064,50.64 C205.615998,50.64 205.250668,50.7573322 204.968,50.992 C204.685332,51.2266678 204.506667,51.5573312 204.432,51.984 L207.744,51.984 Z M204.352,53.664 C204.352,54.9120062 204.938661,55.536 206.112,55.536 C206.741336,55.536 207.215998,55.2800026 207.536,54.768 L210.336,54.768 C209.770664,56.6453427 208.357345,57.584 206.096,57.584 C205.402663,57.584 204.768003,57.480001 204.192,57.272 C203.615997,57.063999 203.122669,56.768 202.712,56.384 C202.301331,55.9999981 201.984001,55.541336 201.76,55.008 C201.535999,54.474664 201.424,53.8773366 201.424,53.216 C201.424,52.5333299 201.530666,51.9173361 201.744,51.368 C201.957334,50.8186639 202.261331,50.3520019 202.656,49.968 C203.050669,49.5839981 203.527997,49.288001 204.088,49.08 C204.648003,48.871999 205.279996,48.768 205.984,48.768 C206.677337,48.768 207.301331,48.871999 207.856,49.08 C208.410669,49.288001 208.879998,49.5893314 209.264,49.984 C209.648002,50.3786686 209.941332,50.8613305 210.144,51.432 C210.346668,52.0026695 210.448,52.6453298 210.448,53.36 L210.448,53.664 L204.352,53.664 Z M214.992,44 L214.992,57.28 L212.096,57.28 L212.096,44 L214.992,44 Z M222.976,51.984 C222.88,51.5786646 222.682668,51.2533346 222.384,51.008 C222.085332,50.7626654 221.722669,50.64 221.296,50.64 C220.847998,50.64 220.482668,50.7573322 220.2,50.992 C219.917332,51.2266678 219.738667,51.5573312 219.664,51.984 L222.976,51.984 Z M219.584,53.664 C219.584,54.9120062 220.170661,55.536 221.344,55.536 C221.973336,55.536 222.447998,55.2800026 222.768,54.768 L225.568,54.768 C225.002664,56.6453427 223.589345,57.584 221.328,57.584 C220.634663,57.584 220.000003,57.480001 219.424,57.272 C218.847997,57.063999 218.354669,56.768 217.944,56.384 C217.533331,55.9999981 217.216001,55.541336 216.992,55.008 C216.767999,54.474664 216.656,53.8773366 216.656,53.216 C216.656,52.5333299 216.762666,51.9173361 216.976,51.368 C217.189334,50.8186639 217.493331,50.3520019 217.888,49.968 C218.282669,49.5839981 218.759997,49.288001 219.32,49.08 C219.880003,48.871999 220.511996,48.768 221.216,48.768 C221.909337,48.768 222.533331,48.871999 223.088,49.08 C223.642669,49.288001 224.111998,49.5893314 224.496,49.984 C224.880002,50.3786686 225.173332,50.8613305 225.376,51.432 C225.578668,52.0026695 225.68,52.6453298 225.68,53.36 L225.68,53.664 L219.584,53.664 Z M233.52,51.728 C233.018664,51.386665 232.512003,51.216 232,51.216 C231.722665,51.216 231.464001,51.2639995 231.224,51.36 C230.983999,51.4560005 230.773334,51.5919991 230.592,51.768 C230.410666,51.9440009 230.269334,52.1519988 230.168,52.392 C230.066666,52.6320012 230.016,52.9013318 230.016,53.2 C230.016,53.4880014 230.066666,53.7519988 230.168,53.992 C230.269334,54.2320012 230.407999,54.4399991 230.584,54.616 C230.760001,54.7920009 230.970665,54.9279995 231.216,55.024 C231.461335,55.1200005 231.722665,55.168 232,55.168 C232.544003,55.168 233.050664,54.9813352 233.52,54.608 L233.52,57.072 C232.80533,57.3813349 232.128003,57.536 231.488,57.536 C230.890664,57.536 230.322669,57.4346677 229.784,57.232 C229.245331,57.0293323 228.770669,56.7386686 228.36,56.36 C227.949331,55.9813314 227.621335,55.5280026 227.376,55 C227.130665,54.4719974 227.008,53.8826699 227.008,53.232 C227.008,52.5813301 227.125332,51.9866694 227.36,51.448 C227.594668,50.9093306 227.914665,50.4453353 228.32,50.056 C228.725335,49.6666647 229.207997,49.3626678 229.768,49.144 C230.328003,48.9253322 230.927997,48.816 231.568,48.816 C232.272004,48.816 232.922664,48.9653318 233.52,49.264 L233.52,51.728 Z M238.4,51.488 L238.4,57.28 L235.504,57.28 L235.504,51.488 L234.544,51.488 L234.544,49.072 L235.504,49.072 L235.504,46.608 L238.4,46.608 L238.4,49.072 L240.048,49.072 L240.048,51.488 L238.4,51.488 Z M244.032,49.072 L244.032,57.28 L241.136,57.28 L241.136,49.072 L244.032,49.072 Z M240.944,45.92 C240.944,45.6959989 240.986666,45.4853343 241.072,45.288 C241.157334,45.0906657 241.274666,44.9173341 241.424,44.768 C241.573334,44.6186659 241.746666,44.5013338 241.944,44.416 C242.141334,44.3306662 242.351999,44.288 242.576,44.288 C242.800001,44.288 243.010666,44.3306662 243.208,44.416 C243.405334,44.5013338 243.578666,44.6186659 243.728,44.768 C243.877334,44.9173341 243.994666,45.0906657 244.08,45.288 C244.165334,45.4853343 244.208,45.6959989 244.208,45.92 C244.208,46.1440011 244.165334,46.3546657 244.08,46.552 C243.994666,46.7493343 243.877334,46.9226659 243.728,47.072 C243.578666,47.2213341 243.405334,47.3386662 243.208,47.424 C243.010666,47.5093338 242.800001,47.552 242.576,47.552 C242.351999,47.552 242.141334,47.5093338 241.944,47.424 C241.746666,47.3386662 241.573334,47.2213341 241.424,47.072 C241.274666,46.9226659 241.157334,46.7493343 241.072,46.552 C240.986666,46.3546657 240.944,46.1440011 240.944,45.92 Z M248.752,53.136 C248.752,53.4133347 248.802666,53.6666655 248.904,53.896 C249.005334,54.1253345 249.138666,54.3253325 249.304,54.496 C249.469334,54.6666675 249.666666,54.7999995 249.896,54.896 C250.125334,54.9920005 250.367999,55.04 250.624,55.04 C250.880001,55.04 251.122666,54.9920005 251.352,54.896 C251.581334,54.7999995 251.778666,54.6666675 251.944,54.496 C252.109334,54.3253325 252.242666,54.1253345 252.344,53.896 C252.445334,53.6666655 252.496,53.418668 252.496,53.152 C252.496,52.8959987 252.445334,52.6533345 252.344,52.424 C252.242666,52.1946655 252.109334,51.9946675 251.944,51.824 C251.778666,51.6533325 251.581334,51.5200005 251.352,51.424 C251.122666,51.3279995 250.880001,51.28 250.624,51.28 C250.367999,51.28 250.125334,51.3279995 249.896,51.424 C249.666666,51.5200005 249.469334,51.6533325 249.304,51.824 C249.138666,51.9946675 249.005334,52.1919989 248.904,52.416 C248.802666,52.6400011 248.752,52.8799987 248.752,53.136 Z M245.696,53.104 C245.696,52.495997 245.818665,51.9280026 246.064,51.4 C246.309335,50.8719974 246.650664,50.4133353 247.088,50.024 C247.525336,49.6346647 248.04533,49.3280011 248.648,49.104 C249.25067,48.8799989 249.90933,48.768 250.624,48.768 C251.328004,48.768 251.98133,48.8773322 252.584,49.096 C253.18667,49.3146678 253.709331,49.6186647 254.152,50.008 C254.594669,50.3973353 254.938665,50.8613306 255.184,51.4 C255.429335,51.9386694 255.552,52.5333301 255.552,53.184 C255.552,53.8346699 255.426668,54.4293306 255.176,54.968 C254.925332,55.5066694 254.581336,55.9706647 254.144,56.36 C253.706664,56.7493353 253.181336,57.0506656 252.568,57.264 C251.954664,57.4773344 251.29067,57.584 250.576,57.584 C249.871996,57.584 249.221336,57.4773344 248.624,57.264 C248.026664,57.0506656 247.512002,56.7466686 247.08,56.352 C246.647998,55.9573314 246.309335,55.4853361 246.064,54.936 C245.818665,54.3866639 245.696,53.7760034 245.696,53.104 Z M257.216,49.072 L260.112,49.072 L260.112,50.112 C260.506669,49.6319976 260.906665,49.3093342 261.312,49.144 C261.717335,48.9786658 262.191997,48.896 262.736,48.896 C263.312003,48.896 263.805331,48.9893324 264.216,49.176 C264.626669,49.3626676 264.975999,49.626665 265.264,49.968 C265.498668,50.2453347 265.658666,50.554665 265.744,50.896 C265.829334,51.237335 265.872,51.6266645 265.872,52.064 L265.872,57.28 L262.976,57.28 L262.976,53.136 C262.976,52.7306646 262.946667,52.4026679 262.888,52.152 C262.829333,51.9013321 262.725334,51.7013341 262.576,51.552 C262.447999,51.4239994 262.304001,51.3333336 262.144,51.28 C261.983999,51.2266664 261.813334,51.2 261.632,51.2 C261.141331,51.2 260.765335,51.3466652 260.504,51.64 C260.242665,51.9333348 260.112,52.3519973 260.112,52.896 L260.112,57.28 L257.216,57.28 L257.216,49.072 Z" id="TIP:TryrunningColormatejustonaselection" fill="#FFFFFF" fill-rule="nonzero"></path>
                <circle id="Oval" fill="#4E41FF" cx="39" cy="41" r="27"></circle>
                <g id="lightbulbIcon" transform="translate(22.000000, 24.000000)" fill="#FFFFFF">
                    <g id="Idea-symbol-of-a-lightbulb-3">
                        <path d="M22.4957327,10.0351637 C22.4820042,10.0260221 22.4685462,10.0156127 22.4544795,10.0064711 C22.2384073,9.86440925 22.0162484,9.73515899 21.7895585,9.61291506 C21.7472909,9.58996096 21.7055643,9.56680668 21.6630261,9.54465331 C21.4424227,9.42994953 21.2178969,9.32538827 20.9885695,9.22976843 C20.9418384,9.21021741 20.8948368,9.19200093 20.8477675,9.17325063 C20.6120831,9.07969933 20.3740992,8.99388837 20.1307728,8.92035518 C20.1035862,8.9122812 20.075791,8.90580868 20.048875,8.89773471 C19.0814528,8.61594645 18.0615512,8.49550415 17.0172357,8.5489525 C16.9329709,8.55335649 16.8492472,8.55969556 16.7649823,8.56643499 C16.6201903,8.57764513 16.4764802,8.57784531 16.3312147,8.59586161 C14.7502015,8.79243945 13.2417533,9.41513613 11.9903602,10.3886168 C9.77580545,12.1110418 8.53658537,14.6443336 8.53658537,17.3673304 C8.53658537,20.2631503 9.74780735,22.6851414 12.2392321,24.7666912 C12.5355791,25.0137814 12.7860742,25.96651 12.9677913,26.6626732 C13.2293097,27.6625111 13.5548045,28.8977619 14.3259018,29.6536458 C14.4761718,29.8011792 14.6835877,29.8780488 14.8957375,29.8780488 L20.1044654,29.8780488 C20.3163447,29.8780488 20.5239634,29.8011792 20.6743011,29.6533789 C21.4430314,28.8987628 21.768729,27.6622442 22.0324116,26.6626732 C22.2162928,25.9664433 22.4667202,25.0137814 22.7610384,24.7666912 C25.2521927,22.6851414 26.4634146,20.2631503 26.4634146,17.3673304 C26.4634146,15.0045261 25.5327146,12.7842508 23.8388298,11.1130055 C23.4248773,10.7045026 22.970686,10.3515833 22.4957327,10.0351637 Z M21.2760572,23.036526 C20.4235355,23.7486369 20.1108225,24.9390472 19.8075098,26.0911561 C19.6007026,26.8848075 19.2858254,28.0822241 18.9111649,28.0822241 L16.0911345,28.0822241 C15.7165416,28.0822241 15.4016644,26.8848075 15.1924226,26.0911561 C14.8912064,24.9390472 14.5765998,23.7486369 13.7262421,23.036526 C11.7542023,21.3879011 10.8348639,19.5873389 10.8348639,17.3673304 C10.8348639,15.6097403 11.528865,13.9587801 12.7883735,12.716256 C14.0479497,11.4758004 15.7209374,10.7910476 17.4998986,10.7910476 C19.2812267,10.7910476 20.9544849,11.4758004 22.2137906,12.716256 C23.4733668,13.9587801 24.1649333,15.6097403 24.1649333,17.3673304 C24.1649333,19.5873389 23.248097,21.3879011 21.2760572,23.036526 Z" id="Shape" fill-rule="nonzero"></path>
                        <path d="M14.5121951,31.5853659 C14.5121951,33.4710663 15.8500121,35 17.5,35 C19.1209754,35 20.4373544,33.5236229 20.4835443,31.6838322 C20.4843559,31.6548488 20.4875344,31.6267928 20.4878049,31.5975002 L20.4872639,31.5975002 C20.4872639,31.5935585 20.4878049,31.5893076 20.4878049,31.5853659 L14.5121951,31.5853659 Z" id="Path" fill-rule="nonzero"></path>
                        <path d="M17.9268293,5.12195122 C18.2296124,5.12195122 18.4750127,4.86753143 18.4750127,4.55378374 L18.7804878,0.884558486 C18.7804878,0.396057813 18.3980771,0 17.9268293,0 C17.455298,0 17.0731707,0.396057813 17.0731707,0.884558486 L17.3786459,4.55378374 C17.3786459,4.86753143 17.6240461,5.12195122 17.9268293,5.12195122 Z" id="Path" fill-rule="nonzero"></path>
                        <path d="M8.39612746,7.71532161 L6.39598453,5.32874 C6.37231933,5.30492579 6.34159174,5.2949773 6.31563436,5.27501813 C6.28781846,5.25369105 6.25925915,5.23472673 6.22927497,5.21744122 C6.17141294,5.18492208 6.11386067,5.16110787 6.05116648,5.14506592 C6.02452764,5.13822633 5.99795076,5.13318991 5.97056851,5.12927269 C5.90161729,5.11951073 5.83508215,5.11951073 5.76588313,5.12927269 C5.73850088,5.13312773 5.711924,5.13822633 5.68528516,5.14506592 C5.62259097,5.16110787 5.56497675,5.18492208 5.50742447,5.21744122 C5.47713054,5.23472673 5.44857123,5.25362887 5.42106508,5.27501813 C5.39492185,5.2949773 5.36419426,5.30492579 5.34046711,5.32874 C5.04911259,5.62135009 5.04911259,6.09576891 5.34046711,6.388379 L7.71826201,8.39561209 C7.90535337,8.58357646 8.2090361,8.58357646 8.39612746,8.39561209 C8.58340467,8.20764773 8.58340467,7.90309944 8.39612746,7.71532161 Z" id="Path" fill-rule="nonzero"></path>
                        <path d="M4.55349819,17.3784714 L0.88476608,17.0731707 C0.396052136,17.0731707 0,17.4554165 0,17.926723 C0,18.3983129 0.396052136,18.7804878 0.88476608,18.7804878 L4.55349819,18.4749746 C4.86753508,18.4749746 5.12195122,18.229473 5.12195122,17.926723 C5.12195122,17.623973 4.86753508,17.3784714 4.55349819,17.3784714 Z" id="Path" fill-rule="nonzero"></path>
                        <path d="M29.5787654,5.27501813 C29.5511988,5.25369105 29.522641,5.23472673 29.4926585,5.21768993 C29.4347996,5.18492208 29.3772504,5.16110787 29.3143738,5.14506592 C29.2879842,5.13822633 29.261099,5.13318991 29.2339661,5.12927269 C29.1647708,5.11951073 29.0982393,5.11951073 29.0292918,5.12927269 C29.0019111,5.13312773 28.9750878,5.13822633 28.9486983,5.14506592 C28.8862553,5.16110787 28.8286442,5.18467337 28.771095,5.21719251 C28.7408027,5.23447802 28.7117494,5.25362887 28.6837492,5.27551556 C28.658103,5.29522601 28.627377,5.30517451 28.603899,5.32874 L26.6038649,7.71525944 C26.4165979,7.90303727 26.4165979,8.20758555 26.6038649,8.39561209 C26.7909461,8.58357646 27.0946123,8.58357646 27.2819412,8.39561209 L29.6593589,6.388379 C29.9509454,6.09576891 29.9509454,5.62135009 29.6593589,5.32874 C29.635695,5.30492579 29.6047213,5.2949773 29.5787654,5.27501813 Z" id="Path" fill-rule="nonzero"></path>
                        <path d="M34.1152339,17.0731707 L30.4465018,17.3784714 C30.1324649,17.3784714 29.8780488,17.623973 29.8780488,17.926723 C29.8780488,18.2295438 30.1324649,18.4749746 30.4465018,18.4749746 L34.1152339,18.7804878 C34.6039479,18.7804878 35,18.3983129 35,17.926723 C35,17.4554165 34.6039479,17.0731707 34.1152339,17.0731707 Z" id="Path" fill-rule="nonzero"></path>
                    </g>
                </g>
            </g>
        </g>
    </g>
</svg>