<?xml version="1.0" encoding="UTF-8"?>
<svg width="35px" height="35px" viewBox="0 0 35 35" version="1.1" xmlns="http://www.w3.org/2000/svg" xmlns:xlink="http://www.w3.org/1999/xlink">
    <!-- Generator: Sketch 53.2 (72643) - https://sketchapp.com -->
    <title>Custom Preset</title>
    <desc>Created with Sketch.</desc>
    <g id="Custom-Preset" stroke="none" stroke-width="1" fill="none" fill-rule="evenodd">
        <rect id="Rectangle" fill="#979797" x="0" y="0" width="5" height="5"></rect>
        <rect id="Rectangle-Copy-5" fill="#979797" x="0" y="10" width="5" height="5"></rect>
        <rect id="Rectangle-Copy-15" fill="#979797" x="0" y="20" width="5" height="5"></rect>
        <rect id="Rectangle-Copy-35" fill="#979797" x="0" y="30" width="5" height="5"></rect>
        <rect id="Rectangle-Copy-10" fill="#979797" x="5" y="5" width="5" height="5"></rect>
        <rect id="Rectangle-Copy-16" fill="#979797" x="5" y="15" width="5" height="5"></rect>
        <rect id="Rectangle-Copy-36" fill="#979797" x="5" y="25" width="5" height="5"></rect>
        <rect id="Rectangle-Copy-2" fill="#979797" x="10" y="0" width="5" height="5"></rect>
        <rect id="Rectangle-Copy-6" fill="#979797" x="10" y="10" width="5" height="5"></rect>
        <rect id="Rectangle-Copy-17" fill="#979797" x="10" y="20" width="5" height="5"></rect>
        <rect id="Rectangle-Copy-37" fill="#979797" x="10" y="30" width="5" height="5"></rect>
        <rect id="Rectangle-Copy-11" fill="#979797" x="15" y="5" width="5" height="5"></rect>
        <rect id="Rectangle-Copy-25" fill="#979797" x="25" y="5" width="5" height="5"></rect>
        <rect id="Rectangle-Copy-18" fill="#979797" x="15" y="15" width="5" height="5"></rect>
        <rect id="Rectangle-Copy-38" fill="#979797" x="15" y="25" width="5" height="5"></rect>
        <rect id="Rectangle-Copy-26" fill="#979797" x="25" y="15" width="5" height="5"></rect>
        <rect id="Rectangle-Copy-39" fill="#979797" x="25" y="25" width="5" height="5"></rect>
        <rect id="Rectangle-Copy-4" fill="#979797" x="20" y="0" width="5" height="5"></rect>
        <rect id="Rectangle-Copy-27" fill="#979797" x="30" y="0" width="5" height="5"></rect>
        <rect id="Rectangle-Copy-7" fill="#979797" x="20" y="10" width="5" height="5"></rect>
        <rect id="Rectangle-Copy-28" fill="#979797" x="30" y="10" width="5" height="5"></rect>
        <rect id="Rectangle-Copy-19" fill="#979797" x="20" y="20" width="5" height="5"></rect>
        <rect id="Rectangle-Copy-40" fill="#979797" x="20" y="30" width="5" height="5"></rect>
        <rect id="Rectangle-Copy-29" fill="#979797" x="30" y="20" width="5" height="5"></rect>
        <rect id="Rectangle-Copy-41" fill="#979797" x="30" y="30" width="5" height="5"></rect>
        <rect id="Rectangle-Copy" fill="#FFFFFF" x="5" y="0" width="5" height="5"></rect>
        <rect id="Rectangle-Copy-8" fill="#FFFFFF" x="5" y="10" width="5" height="5"></rect>
        <rect id="Rectangle-Copy-20" fill="#FFFFFF" x="5" y="20" width="5" height="5"></rect>
        <rect id="Rectangle-Copy-42" fill="#FFFFFF" x="5" y="30" width="5" height="5"></rect>
        <rect id="Rectangle-Copy-12" fill="#FFFFFF" x="10" y="5" width="5" height="5"></rect>
        <rect id="Rectangle-Copy-21" fill="#FFFFFF" x="10" y="15" width="5" height="5"></rect>
        <rect id="Rectangle-Copy-43" fill="#FFFFFF" x="10" y="25" width="5" height="5"></rect>
        <rect id="Rectangle-Copy-14" fill="#FFFFFF" x="0" y="5" width="5" height="5"></rect>
        <rect id="Rectangle-Copy-22" fill="#FFFFFF" x="0" y="15" width="5" height="5"></rect>
        <rect id="Rectangle-Copy-44" fill="#FFFFFF" x="0" y="25" width="5" height="5"></rect>
        <rect id="Rectangle-Copy-3" fill="#FFFFFF" x="15" y="0" width="5" height="5"></rect>
        <rect id="Rectangle-Copy-30" fill="#FFFFFF" x="25" y="0" width="5" height="5"></rect>
        <rect id="Rectangle-Copy-9" fill="#FFFFFF" x="15" y="10" width="5" height="5"></rect>
        <rect id="Rectangle-Copy-31" fill="#FFFFFF" x="25" y="10" width="5" height="5"></rect>
        <rect id="Rectangle-Copy-23" fill="#FFFFFF" x="15" y="20" width="5" height="5"></rect>
        <rect id="Rectangle-Copy-45" fill="#FFFFFF" x="15" y="30" width="5" height="5"></rect>
        <rect id="Rectangle-Copy-32" fill="#FFFFFF" x="25" y="20" width="5" height="5"></rect>
        <rect id="Rectangle-Copy-46" fill="#FFFFFF" x="25" y="30" width="5" height="5"></rect>
        <rect id="Rectangle-Copy-13" fill="#FFFFFF" x="20" y="5" width="5" height="5"></rect>
        <rect id="Rectangle-Copy-33" fill="#FFFFFF" x="30" y="5" width="5" height="5"></rect>
        <rect id="Rectangle-Copy-24" fill="#FFFFFF" x="20" y="15" width="5" height="5"></rect>
        <rect id="Rectangle-Copy-47" fill="#FFFFFF" x="20" y="25" width="5" height="5"></rect>
        <rect id="Rectangle-Copy-34" fill="#FFFFFF" x="30" y="15" width="5" height="5"></rect>
        <rect id="Rectangle-Copy-48" fill="#FFFFFF" x="30" y="25" width="5" height="5"></rect>
    </g>
</svg>