<?xml version="1.0" encoding="UTF-8"?>
<svg width="202px" height="68px" viewBox="0 0 202 68" version="1.1" xmlns="http://www.w3.org/2000/svg" xmlns:xlink="http://www.w3.org/1999/xlink">
    <!-- Generator: sketchtool 53.1 (72631) - https://sketchapp.com -->
    <title>D2DEB979-D9B9-4BA0-95D0-C123E012D7F2@1.00x</title>
    <desc>Created with sketchtool.</desc>
    <defs>
        <linearGradient x1="56.3522177%" y1="11.8042527%" x2="42.7121038%" y2="94.6998124%" id="linearGradient-1">
            <stop stop-color="#000000" offset="0%"></stop>
            <stop stop-color="#FFFFFF" offset="47%"></stop>
            <stop stop-color="#000000" offset="100%"></stop>
        </linearGradient>
    </defs>
    <g id="Slice-1" stroke="none" stroke-width="1" fill="none" fill-rule="evenodd">
        <g id="buttonHover" transform="translate(-49.000000, -9.000000)">
            <g id="colormateTagline" transform="translate(49.000000, 9.000000)">
                <g>
                    <g id="Asset-5-Copy">
                        <g id="Group" fill-rule="nonzero">
                            <path d="M27.3074619,66.0643721 C27.3074619,67.7090233 28.5003046,68.3795349 29.9489848,67.5540465 L56.2490863,52.5339535 C57.6945685,51.7084651 58.8746193,49.6874419 58.8714213,48.0427907 L58.797868,22.772093 L27.2371066,40.8 L27.3074619,66.0643721 Z" id="Path" fill="#F17239"></path>
                            <path d="M28.3787817,40.6956279 L24.2214213,41.328186 L26.5431472,66.8455814 L27.7839594,67.5603721 C27.9225775,67.6423211 28.0924527,67.6538012 28.2410537,67.5912624 C28.3896547,67.5287235 28.4990766,67.399701 28.5354822,67.244093 L31.9029442,52.4042791 L28.3787817,40.6956279 Z" id="Path" fill="#F17239"></path>
                            <path d="M58.7594924,17.2909767 L58.7594924,42.2770233 L21.9828426,42.2770233 L29.0183756,23.6165581 L38.6122843,22.0351628 L53.9625381,16.0258605 L57.4803046,15.7095814 C57.4803046,15.7095814 58.7594924,16.0258605 58.7594924,17.2909767" id="Path" fill="#F17239"></path>
                            <path d="M0.857055838,52.0848372 L28.0781726,67.7311628 C28.0239616,67.6982219 27.9716471,67.6623214 27.9214721,67.6236279 L27.8767005,67.5825116 C27.8424265,67.5543759 27.8103552,67.5237147 27.7807614,67.4907907 L27.7327919,67.4370233 C27.703619,67.4041954 27.6768987,67.3693127 27.6528426,67.3326512 C27.6528426,67.3136744 27.6240609,67.2946977 27.611269,67.2725581 C27.5984772,67.2504186 27.5632995,67.1903256 27.5409137,67.1460465 C27.5185279,67.1017674 27.5185279,67.108093 27.508934,67.0859535 C27.4784477,67.0189467 27.4517567,66.9503133 27.4289848,66.8803721 L27.4289848,66.8803721 C27.4060353,66.8075806 27.3868229,66.7336878 27.3714213,66.6589767 C27.3714213,66.6305116 27.3714213,66.6052093 27.3714213,66.579907 C27.3714213,66.5546047 27.3522335,66.4755349 27.3458376,66.4217674 C27.3316066,66.3052627 27.3241324,66.1880476 27.3234518,66.0706977 L27.2403046,36.1823256 L0,20.5296744 L0.0863451777,50.4212093 C0.0871291324,50.5385557 0.0946029241,50.655765 0.108730964,50.7722791 L0.108730964,50.8102326 C0.108730964,50.8513488 0.124720812,50.8893023 0.131116751,50.9272558 C0.13751269,50.9652093 0.131116751,50.9810233 0.131116751,51.0063256 C0.14607183,51.0824833 0.166374813,51.1575177 0.191878173,51.2308837 L0.191878173,51.2308837 C0.2157133,51.3019165 0.243470744,51.3716026 0.275025381,51.4396279 L0.303807107,51.4997209 L0.374162437,51.6230698 C0.390152284,51.6452093 0.402944162,51.6673488 0.41893401,51.6863256 C0.442708243,51.7213679 0.468327297,51.7551508 0.495685279,51.7875349 L0.543654822,51.8444651 L0.639593909,51.936186 L0.684365482,51.9741395 C0.738755736,52.0156688 0.796514749,52.0526934 0.857055838,52.0848372 L0.857055838,52.0848372 Z" id="Path" fill="#E96830"></path>
                            <path d="M31.0203046,0.439627907 C30.7005076,0.246697674 30.2304061,0.272 29.7411168,0.562976744 L1.82284264,16.4971163 C1.74928934,16.5413953 1.67573604,16.5888372 1.60538071,16.6394419 L1.58299492,16.6394419 L1.5542132,16.6615814 C1.4516052,16.7383703 1.35338325,16.8207294 1.26,16.9082791 L1.23121827,16.9367442 C1.13171579,17.0315304 1.03775634,17.1318481 0.949796954,17.2372093 L0.949796954,17.2372093 C0.860253807,17.347907 0.773908629,17.4617674 0.693959391,17.5787907 L0.677969543,17.6009302 C0.601218274,17.7179535 0.530862944,17.8381395 0.463705584,17.9614884 C0.464761764,17.970948 0.464761764,17.9804939 0.463705584,17.9899535 L0.463705584,18.012093 C0.434923858,18.0626977 0.412538071,18.1133023 0.386954315,18.1670698 L0.354974619,18.2334884 L0.354974619,18.2334884 C0.310203046,18.3346977 0.271827411,18.4327442 0.236649746,18.5497674 L0.21106599,18.6225116 C0.179086294,18.7173953 0.150304569,18.8154419 0.127918782,18.9103256 C0.126532353,18.9176417 0.126532353,18.925149 0.127918782,18.9324651 C0.102956378,19.0366291 0.0847970339,19.1422737 0.0735532995,19.2487442 L0.0735532995,19.3214884 C0.0429184746,19.415795 0.0183515688,19.5119253 -2.47135645e-15,19.6093023 L-2.47135645e-15,20.520186 L-2.47135645e-15,25.1410233 L-2.47135645e-15,25.1410233 L-2.47135645e-15,25.2612093 L27.2371066,40.8 L27.2371066,35.9451163 L27.2371066,35.9451163 L27.2371066,35.2714419 C27.2372314,35.1720424 27.2436398,35.072748 27.2562944,34.9741395 C27.2548835,34.9499115 27.2548835,34.9256233 27.2562944,34.9013953 C27.2562944,34.8033488 27.2882741,34.7021395 27.3138579,34.6009302 C27.3138579,34.6009302 27.3138579,34.6009302 27.3138579,34.5787907 C27.3394416,34.483907 27.3682234,34.3890233 27.400203,34.2909767 L27.4225888,34.2213953 C27.4609645,34.120186 27.4993401,34.0189767 27.5441117,33.9051163 C27.5545097,33.8792324 27.5662512,33.8538964 27.5792893,33.8292093 C27.6016751,33.7786047 27.6272589,33.7248372 27.6560406,33.6742326 C27.6633067,33.657784 27.6718606,33.6419218 27.6816244,33.6267907 C27.7487817,33.5034419 27.8191371,33.380093 27.8958883,33.2630698 L27.9118782,33.244093 C27.9906483,33.1245895 28.0760586,33.009498 28.1677157,32.8993488 L28.1677157,32.8993488 C28.2563645,32.7886007 28.3513952,32.6829992 28.452335,32.5830698 L28.4811168,32.5546047 C28.5770558,32.4660465 28.6761929,32.383814 28.7753299,32.307907 L28.8232995,32.2731163 C28.8968528,32.2225116 28.9672081,32.1750698 29.0407614,32.1339535 L56.9494416,16.1966512 C57.3269379,15.9240062 57.8247454,15.8767133 58.2478173,16.0733023 L31.0203046,0.439627907 Z" id="Path" fill="#F19167"></path>
                            <path d="M56.9494416,16.2061395 C57.956802,15.6336744 58.7786802,16.0986047 58.7818782,17.2403721 L58.797868,22.772093 L27.2371066,40.8 L27.2371066,36.1791628 L27.2371066,35.2651163 C27.3066925,33.9982768 27.9825113,32.8400569 29.0567513,32.1466047 L56.9494416,16.2061395 Z" id="Path" fill="#F6A988"></path>
                        </g>
                        <polygon id="Path" fill="#B7B8BC" fill-rule="nonzero" points="50.0610152 34.6388837 42.7472589 32.1434419 38.0590355 40.3002791 37.4514213 50.1934884 39.3542132 52.3726512 43.0094924 52.3726512 48.190203 47.5905116 50.7549746 41.9575814"></polygon>
                        <polygon id="Path" fill="url(#linearGradient-1)" fill-rule="nonzero" opacity="0.33" style="mix-blend-mode: multiply;" points="50.0610152 34.6388837 42.7472589 32.1434419 38.0590355 40.3002791 37.4514213 50.1934884 39.3542132 52.3726512 43.0094924 52.3726512 48.190203 47.5905116 50.7549746 41.9575814"></polygon>
                        <path d="M60.3041117,60.3713488 L60.0418782,60.263814 L50.7677665,55.6872558 L50.7677665,47.3469767 L48.0750761,47.7106977 L48.0750761,57.0377674 L58.0047716,61.9906977 C58.4780711,62.2911628 60.1218274,63.2747907 60.9405076,63.1356279 C61.9030964,62.983814 63.6875635,61.8768372 60.3041117,60.3713488 Z" id="Path" fill="#00DBFF" fill-rule="nonzero"></path>
                        <path d="M55.6798477,63.4677209 L55.7086294,63.4487442 L45.7309645,58.4894884 L45.7309645,50.1492093 L43.0350761,50.5129302 L43.0350761,59.84 L52.8720305,64.7771163 C53.5340102,65.1629767 54.704467,65.7733953 55.3504569,65.6658605 C56.1819289,65.5266977 57.6274112,64.6695814 55.6798477,63.4677209 Z" id="Path" fill="#FFEC00" fill-rule="nonzero"></path>
                        <path d="M53.5915736,64.9795349 L53.5659898,64.9795349 L43.5947208,60.0202791 L43.5947208,51.6673488 L40.9020305,52.027907 L40.9020305,61.3581395 L50.7357868,66.2952558 C51.3977665,66.6811163 52.5682234,67.2915349 53.2142132,67.184 C54.0456853,67.0511628 55.5391371,66.1813953 53.5915736,64.9795349 Z" id="Path" fill="#750BFF" fill-rule="nonzero"></path>
                        <path d="M60.7614213,63.391814 L48.4140609,57.2465116 L48.4140609,48.8967442 L45.7309645,49.2604651 L45.7309645,58.5875349 L58.3917259,64.9542326 C58.3917259,64.9542326 60.4256345,66.3015814 61.3562437,66.1434419 C62.2868528,65.9853023 64.1352792,64.9004651 60.8637563,63.4487442 L60.7614213,63.391814 Z" id="Path" fill="#FF0D0D" fill-rule="nonzero"></path>
                        <path d="M37.0964467,36.770986 C37.2882876,36.8729136 37.4816912,36.9785496 37.6784772,37.0837209 C38.8265482,37.6973023 40.0929442,38.2887442 41.899797,38.0325581 C42.4135016,37.9564435 42.9181358,37.8292885 43.4060406,37.6530233 C43.9339451,37.460138 44.4804588,37.3213032 45.0370051,37.2386977 C45.8416039,37.0827978 46.6757373,37.1939781 47.4098985,37.5549767 L49.4406091,38.6651163 C48.70695,38.3025023 47.8722629,38.1912482 47.0677157,38.3488372 C46.5114874,38.4345478 45.9651801,38.5743895 45.4367513,38.7663256 C44.9488465,38.9425909 44.4442123,39.0697458 43.9305076,39.1458605 C42.1236548,39.3988837 40.8508629,38.8074419 39.7091878,38.1970233 C38.8276001,37.7256654 38.0165664,37.2392204 37.0964467,37.1265102 L37.0964467,36.7709877 Z" id="Combined-Shape" fill="#007285" fill-rule="nonzero"></path>
                        <path d="M36.454818,37.0038631 C37.6494085,36.9160172 38.6189406,37.5004816 39.6995939,38.0736744 C40.844467,38.6809302 42.1140609,39.2597209 43.9209137,39.0225116 C44.4344609,38.9487882 44.9391242,38.8237453 45.4271574,38.6493023 C45.9562062,38.4615052 46.5024149,38.3248663 47.0581218,38.2413023 C50.9916244,37.6941395 50.9372589,41.2870698 50.9340609,41.4736744 L36.9717259,49.8677209 L34.2383937,46.8069201 C34.2762981,46.808503 34.314405,46.8093023 34.3526985,46.8093023 L34.4036467,46.8093023 C35.8908391,46.8093023 37.0964467,45.6036947 37.0964467,44.1165023 L37.0964467,38.748614 C37.0964467,38.0830159 36.8549586,37.4738204 36.454818,37.0038631 Z" id="Combined-Shape" fill="#00D2F5" fill-rule="nonzero"></path>
                        <path d="M37.6688832,41.9464693 C38.8797481,41.7800423 40.6797946,42.0805356 43.0690225,42.8479493 C45.4582505,43.6153629 47.4047304,40.6555039 48.9084623,33.9683721 L51.7271107,36.8387851 L52.0597462,43.232752 L45.6941528,46.935814 L37.6688832,46.935814 L37.6688832,41.9464693 Z" id="Path-3" fill="#3D0685"></path>
                        <path d="M37.0757773,44.2569302 C39.1980848,43.384 41.5384264,43.384 44.096802,44.2569302 C46.6551777,45.1298605 48.6805584,42.3650543 50.1729442,35.9625116 L50.1729442,45.0381395 C46.3567005,48.8946357 44.3313198,50.9683721 44.096802,51.2593488 C43.8622843,51.5503256 41.7196447,52.1122481 37.6688832,52.9451163 C36.647665,50.6257364 36.1370558,49.4660465 36.1370558,49.4660465 C36.1370558,49.4660465 36.449963,47.7296744 37.0757773,44.2569302 Z" id="Path-2" fill="#700BF5"></path>
                        <g id="Group" transform="translate(32.299492, 29.730233)" fill-rule="nonzero">
                            <path d="M6.68375635,21.8390698 L7.5919797,25.1979535 C7.5919797,25.1979535 11.7493401,24.5653953 12.0691371,24.5653953 C12.388934,24.5653953 15.9067005,22.0351628 15.9067005,22.0351628 L17.8254822,20.1374884 L19.744264,16.9746977 L21.3432487,14.4444651 L21.3432487,10.9653953 L20.7036548,7.17004651 L19.744264,6.2212093 L17.8254822,6.85376744 L17.5056853,10.9653953 L17.8254822,14.7607442 L16.5462944,17.2909767 L14.3077157,19.8212093 L9.19096447,22.984 L6.68375635,21.8390698 Z" id="Path" fill="#FFFFFF"></path>
                            <path d="M19.4820305,2.19181395 L17.1858883,0.844465116 L7.5919797,4.32353488 L4.39401015,10.6491163 C4.39401015,10.6491163 2.79502538,16.6584186 2.79502538,16.9746977 C2.79502538,17.2909767 2.47522843,21.4026047 2.47522843,21.4026047 L3.66807107,24.7172093 C3.66807107,24.7172093 7.27218274,27.0956279 7.5919797,26.1467907 C7.91177665,25.1979535 5.99299492,21.8390698 5.99299492,21.8390698 L5.03360406,19.1886512 L4.71380711,17.6072558 C4.71380711,17.6072558 4.0742132,15.0770233 4.71380711,14.7607442 C5.35340102,14.4444651 7.91177665,9.384 7.91177665,9.384 C7.91177665,9.384 9.83055838,6.43627907 10.1503553,6.2212093 C10.4701523,6.00613953 13.0285279,4.95609302 13.3483249,4.63981395 C13.6681218,4.32353488 16.5462944,3.0584186 16.5462944,3.0584186 C16.5462944,3.0584186 18.1452792,3.37469767 18.4650761,3.37469767 C18.7848731,3.37469767 19.4820305,2.19181395 19.4820305,2.19181395 Z" id="Path" fill="#FFFFFF"></path>
                            <path d="M19.526802,15.8139535 L19.6227411,15.6115349 L19.7090863,15.4217674 L19.7666497,15.2826047 C19.846599,15.0991628 19.9201523,14.9125581 19.9937056,14.7291163 L20.0896447,14.4855814 C20.1855838,14.2230698 20.2783249,13.9605581 20.3614721,13.6980465 L18.7337056,12.7492093 L18.692132,12.6859535 C18.6510501,12.6216771 18.6136807,12.5551521 18.580203,12.4866977 C18.580203,12.4550698 18.5450254,12.4266047 18.5322335,12.3949767 C18.4826727,12.2920186 18.4389004,12.1864314 18.4011168,12.0786977 C18.4011168,12.0786977 18.4011168,12.0786977 18.4011168,12.0597209 C18.3641549,11.9478015 18.3342497,11.8337219 18.3115736,11.7181395 C18.3115736,11.6770233 18.2955838,11.6327442 18.2891878,11.5916279 C18.27,11.4967442 18.2572081,11.4050233 18.2444162,11.303814 L18.2444162,11.2026047 C18.2444162,11.0697674 18.2252284,10.9306047 18.2252284,10.7851163 C18.2252284,10.6396279 18.2252284,10.4435349 18.2508122,10.2695814 L18.2508122,10.1493953 C18.27,9.97544186 18.2923858,9.80148837 18.3243655,9.62753488 C18.3243655,9.60539535 18.3243655,9.58325581 18.3403553,9.55795349 C18.3691371,9.39981395 18.4075127,9.24167442 18.4490863,9.08037209 L18.477868,8.96651163 C18.5290355,8.78939535 18.583401,8.61544186 18.6409645,8.44148837 L18.6793401,8.34027907 C18.7369036,8.18635659 18.797665,8.03137984 18.8616244,7.87534884 L18.9,7.78362791 C18.9447716,7.6824186 18.9959391,7.5812093 19.0439086,7.46734884 C19.0918782,7.35348837 19.1334518,7.27125581 19.1846193,7.1732093 C19.2357868,7.07516279 19.318934,6.92651163 19.3892893,6.80632558 L19.4916244,6.62288372 C19.6003553,6.44260465 19.7154822,6.26548837 19.8338071,6.09153488 C19.6197814,5.82626437 19.3701712,5.59110471 19.0918782,5.39255814 C19.0015354,5.32733382 18.9075822,5.2671472 18.8104569,5.21227907 L15.6956345,3.42213953 C16.0893317,3.64937398 16.436448,3.94761401 16.7189848,4.30139535 C16.6006599,4.47534884 16.485533,4.65246512 16.376802,4.83274419 L16.274467,5.01618605 C16.2137056,5.12688372 16.1465482,5.2344186 16.0889848,5.34827907 L16.069797,5.38306977 L15.9290863,5.6772093 C15.8875127,5.76260465 15.8427411,5.848 15.8075635,5.93339535 C15.7987887,5.94857029 15.7913011,5.96443859 15.7851777,5.98083721 L15.746802,6.07255814 C15.6828426,6.22648062 15.6220812,6.38145736 15.5645178,6.53748837 C15.5645178,6.57227907 15.538934,6.60706977 15.5293401,6.63869767 C15.4685787,6.81265116 15.4142132,6.98976744 15.3662437,7.16372093 C15.3662437,7.20167442 15.3470558,7.23962791 15.334264,7.2775814 C15.2926904,7.43572093 15.2575127,7.59386047 15.225533,7.75832558 C15.225533,7.78046512 15.225533,7.80260465 15.225533,7.82474419 C15.1935533,8.00186047 15.1679695,8.17265116 15.1519797,8.34660465 C15.1519797,8.38455814 15.1519797,8.42567442 15.1519797,8.4667907 C15.1519797,8.64074419 15.1263959,8.81469767 15.1263959,8.98548837 C15.1263959,9.15627907 15.1263959,9.26697674 15.1487817,9.39981395 L15.1487817,9.50418605 L15.1487817,9.60539535 C15.1487817,9.66865116 15.1711675,9.72874419 15.1807614,9.78883721 C15.1903553,9.84893023 15.1807614,9.87423256 15.2031472,9.91534884 C15.228731,10.0323721 15.2575127,10.1493953 15.2926904,10.2569302 C15.2916405,10.2642736 15.2916405,10.2717264 15.2926904,10.2790698 C15.3284943,10.3870762 15.3712204,10.4927166 15.4206091,10.5953488 L15.4685787,10.6870698 C15.5037563,10.7566512 15.538934,10.8230698 15.5805076,10.8894884 L15.647665,10.9875349 C15.6860406,11.0413023 15.7276142,11.0982326 15.7691878,11.1488372 L15.8459391,11.2342326 C15.8939086,11.2848372 15.9450761,11.3322791 15.9962437,11.3797209 L16.069797,11.4429767 C16.1471604,11.5062859 16.2295023,11.5633969 16.3160406,11.6137674 L17.1730964,12.1071628 C17.112335,12.2969302 17.0483756,12.4866977 16.9780203,12.6733023 L16.8820812,12.9168372 C16.8117259,13.1002791 16.7349746,13.2868837 16.6550254,13.4703256 L16.5111168,13.7866047 C16.4791371,13.8530233 16.4471574,13.9226047 16.4183756,13.9890233 C16.3448223,14.144 16.2680711,14.3053023 16.1913198,14.4476279 C16.165736,14.4950698 16.1433503,14.5456744 16.1177665,14.5931163 C16.0921827,14.6405581 16.0538071,14.7069767 16.0250254,14.7670698 C15.9194924,14.9631628 15.8107614,15.1592558 15.7052284,15.352186 C15.6572589,15.4344186 15.6092893,15.5166512 15.5581218,15.5957209 C15.4557868,15.7665116 15.3534518,15.9309767 15.2383249,16.0986047 C15.1871574,16.1776744 15.1359898,16.2567442 15.0816244,16.3326512 C14.9537056,16.5255814 14.8225888,16.712186 14.6850761,16.8987907 C14.6530964,16.939907 14.6243147,16.9873488 14.5891371,17.0284651 C14.4228426,17.256186 14.2469543,17.4744186 14.067868,17.6894884 C14.0198985,17.7495814 13.9719289,17.8033488 13.9207614,17.8634419 C13.7896447,18.0184186 13.652132,18.1797209 13.5146193,18.3252093 L13.3195431,18.5307907 C13.1873604,18.6699535 13.0530457,18.8059535 12.916599,18.9387907 C12.8526396,18.9988837 12.7918782,19.0621395 12.7279188,19.1190698 C12.5456345,19.2898605 12.3601523,19.4543256 12.1746701,19.6124651 L12.1235025,19.6567442 C11.9188325,19.8275349 11.7109645,19.9730233 11.4998985,20.143814 C11.3879695,20.2260465 11.2728426,20.3019535 11.1609137,20.3778605 L10.9882234,20.4980465 C10.812335,20.611907 10.6332487,20.7226047 10.4541624,20.8143256 C8.38507614,21.9972093 6.51106599,22.1047442 5.15832487,21.3298605 L8.27314721,23.1168372 C9.62588832,23.8948837 11.4998985,23.7873488 13.5689848,22.6044651 C13.7480711,22.5032558 13.9271574,22.3925581 14.1030457,22.288186 L14.275736,22.168 C14.3684772,22.1047442 14.4644162,22.0446512 14.5571574,21.9750698 L14.6115228,21.9339535 C14.8225888,21.7789767 15.0336548,21.6176744 15.2511168,21.4468837 L15.3022843,21.4026047 C15.4877665,21.2444651 15.6732487,21.0863256 15.855533,20.9092093 L16.0410152,20.7289302 C16.1785279,20.596093 16.3160406,20.460093 16.4471574,20.3209302 L16.6422335,20.1153488 C16.7797462,19.9635349 16.9140609,19.7990698 17.0483756,19.6504186 C17.0995431,19.5934884 17.1475127,19.5397209 17.1954822,19.4796279 C17.3745685,19.2645581 17.5472589,19.0463256 17.7167513,18.8186047 C17.748731,18.7774884 17.7807107,18.7300465 17.8126904,18.6857674 C17.9470051,18.5023256 18.0813198,18.3157209 18.2092386,18.1227907 C18.2636041,18.0468837 18.3115736,17.967814 18.3659391,17.8887442 C18.4714721,17.7211163 18.5770051,17.5566512 18.685736,17.3858605 L18.8328426,17.1423256 C18.9447716,16.9493953 19.0535025,16.7533023 19.1526396,16.5572093 C19.1782234,16.5129302 19.2038071,16.4686512 19.2261929,16.4243721 C19.232405,16.4100362 19.2398965,16.3962763 19.2485787,16.3832558 C19.2741624,16.335814 19.2965482,16.2852093 19.322132,16.2377674 C19.3796954,16.1302326 19.4532487,15.9626047 19.526802,15.8139535 Z" id="Path" fill="#E5E7EC"></path>
                            <path d="M20.1855838,2.53023256 L17.0707614,0.740093023 C15.2830964,-0.284651163 12.807868,-0.142325581 10.076802,1.42009302 C9.87852792,1.53395349 9.68025381,1.65413953 9.4819797,1.78065116 L9.3028934,1.89767442 C9.16218274,1.99255814 9.01827411,2.09060465 8.88076142,2.18865116 L8.77203046,2.26139535 L8.6728934,2.33730233 L8.45862944,2.49860465 C8.37335025,2.56186047 8.28700508,2.62827907 8.19959391,2.69786047 L7.99492386,2.84651163 L7.73908629,3.0584186 L7.53441624,3.23553488 L7.28497462,3.46009302 L7.08350254,3.64353488 L6.83725888,3.88074419 C6.77329949,3.944 6.70614213,4.00409302 6.64218274,4.07051163 L6.39593909,4.32037209 L6.21045685,4.51330233 C6.12730964,4.59869767 6.04736041,4.6904186 5.9642132,4.77897674 L5.79152284,4.97190698 C5.70517766,5.0667907 5.61883249,5.168 5.53568528,5.26604651 L5.38218274,5.44632558 C5.27984772,5.56651163 5.18071066,5.68986047 5.08477157,5.8132093 C5.04959391,5.85116279 5.01761421,5.89227907 4.98563452,5.93339535 C4.85451777,6.09786047 4.72659898,6.24967442 4.5986802,6.43311628 L4.49634518,6.57544186 L4.22771574,6.94865116 L4.09020305,7.14790698 C4.01664975,7.25860465 3.93989848,7.36613953 3.86634518,7.46418605 L3.72243655,7.68874419 L3.52096447,8.00502326 L3.37705584,8.24223256 L3.1915736,8.55851163 L3.04766497,8.80204651 L2.87177665,9.11832558 L2.73746193,9.37134884 L2.63832487,9.55162791 L2.58076142,9.66548837 L2.39847716,10.0228837 C2.35690355,10.1114419 2.31213198,10.1968372 2.27055838,10.2853953 C2.22898477,10.3739535 2.1522335,10.532093 2.09786802,10.6554419 C2.06588832,10.7186977 2.0371066,10.7819535 2.00832487,10.8452093 C2.00221835,10.8626328 1.99473326,10.8795534 1.98593909,10.895814 C1.86761421,11.1614884 1.75568528,11.4271628 1.64695431,11.696 L1.57979695,11.8731163 C1.48705584,12.1103256 1.39751269,12.3475349 1.31436548,12.5847442 L1.26639594,12.723907 C1.17365482,12.9927442 1.08730964,13.2647442 1.00736041,13.5367442 C0.988172589,13.5968372 0.968984772,13.660093 0.952994924,13.7233488 C0.882639594,13.9700465 0.818680203,14.2135814 0.757918782,14.4602791 L0.729137056,14.567814 C0.665177665,14.839814 0.610812183,15.1086512 0.55964467,15.3774884 C0.55964467,15.443907 0.537258883,15.5071628 0.524467005,15.5735814 C0.479695431,15.8266047 0.441319797,16.0796279 0.406142132,16.3326512 C0.406142132,16.3547907 0.406142132,16.3769302 0.406142132,16.395907 C0.370964467,16.6647442 0.34857868,16.9304186 0.329390863,17.196093 C0.329390863,17.2593488 0.329390863,17.3257674 0.329390863,17.3890233 C0.329390863,17.6546977 0.307005076,17.9203721 0.307005076,18.1828837 C0.307005076,18.4453953 0.307005076,18.6414884 0.329390863,18.8628837 C0.329390863,18.9261395 0.329390863,18.9893953 0.329390863,19.055814 C0.342182741,19.2202791 0.358172589,19.3815814 0.377360406,19.5397209 C0.377360406,19.5776744 0.377360406,19.6156279 0.377360406,19.6535814 C0.375588218,19.6830748 0.375588218,19.7126462 0.377360406,19.7421395 C0.377360406,19.7990698 0.377360406,19.856 0.402944162,19.9129302 C0.428527919,19.9698605 0.434923858,20.1153488 0.454111675,20.2133953 C0.473299492,20.3114419 0.476497462,20.324093 0.48928934,20.3810233 C0.502081218,20.4379535 0.534060914,20.5802791 0.556446701,20.6783256 C0.556446701,20.7257674 0.578832487,20.7732093 0.591624365,20.8206512 C0.62680203,20.9471628 0.661979695,21.0736744 0.703553299,21.1970233 C0.702164031,21.2106942 0.702164031,21.2244685 0.703553299,21.2381395 C0.748324873,21.3741395 0.796294416,21.5069767 0.844263959,21.6366512 L0.892233503,21.7505116 C0.930609137,21.8390698 0.965786802,21.9276279 1.00736041,22.016186 C1.04893401,22.1047442 1.04893401,22.1015814 1.0713198,22.1458605 C1.09370558,22.1901395 1.14807107,22.3008372 1.18964467,22.3767442 L1.25680203,22.5032558 L1.39431472,22.727814 L1.46147208,22.832186 C1.52543147,22.9333953 1.5957868,23.0282791 1.66614213,23.1231628 C1.73969543,23.2243721 1.81964467,23.316093 1.89959391,23.407814 L1.97634518,23.4932093 L2.1522335,23.6734884 L2.24817259,23.7620465 L2.42086294,23.9170233 L2.52319797,24.0024186 L2.71827411,24.147907 L2.81101523,24.2143256 C2.90695431,24.2775814 3.00609137,24.344 3.1084264,24.4009302 L6.22324873,26.1910698 C6.12091371,26.132031 6.02177665,26.0687752 5.92583756,26.0013023 L5.83309645,25.9380465 C5.76593909,25.8906047 5.7019797,25.84 5.6380203,25.7893953 L5.53568528,25.7071628 L5.36299492,25.552186 L5.26705584,25.4636279 L5.09116751,25.2833488 L5.01441624,25.1979535 C4.93446701,25.1062326 4.85451777,25.0145116 4.78096447,24.9133023 L4.78096447,24.8943256 C4.71060914,24.8026047 4.64345178,24.7077209 4.57949239,24.6065116 C4.55390863,24.5717209 4.53472081,24.5369302 4.51233503,24.5021395 C4.48994924,24.4673488 4.41959391,24.3534884 4.37482234,24.2775814 C4.33005076,24.2016744 4.33005076,24.192186 4.30446701,24.1510698 C4.27888325,24.1099535 4.22451777,23.9992558 4.18614213,23.920186 L4.12538071,23.7873488 C4.08380711,23.7019535 4.04862944,23.6133953 4.01025381,23.5248372 L3.96228426,23.4109767 C3.91111675,23.2802481 3.86314721,23.1474109 3.81837563,23.0124651 C3.81942159,22.9977236 3.81942159,22.9829276 3.81837563,22.968186 C3.78,22.848 3.74482234,22.7214884 3.70964467,22.5949767 C3.70964467,22.5475349 3.68725888,22.500093 3.67446701,22.4526512 C3.64888325,22.3546047 3.62649746,22.2533953 3.60411168,22.1553488 C3.58172589,22.0573023 3.58172589,22.0414884 3.57213198,21.9877209 C3.56253807,21.9339535 3.53695431,21.7884651 3.52096447,21.6714419 L3.49218274,21.5006512 C3.49218274,21.4342326 3.49218274,21.3646512 3.46979695,21.2950698 C3.45060914,21.1369302 3.43461929,20.9787907 3.42182741,20.8143256 C3.42182741,20.747907 3.42182741,20.6846512 3.42182741,20.6213953 C3.42182741,20.4 3.39944162,20.1722791 3.39944162,19.9413953 C3.39944162,19.7105116 3.39944162,19.4132093 3.42182741,19.1475349 C3.42182741,19.0842791 3.42182741,19.0178605 3.42182741,18.9546047 C3.44101523,18.6889302 3.46340102,18.4232558 3.49538071,18.1544186 L3.49538071,18.0911628 C3.52736041,17.8381395 3.56893401,17.5851163 3.61370558,17.3289302 C3.61370558,17.2656744 3.63609137,17.2024186 3.64888325,17.136 C3.70005076,16.8671628 3.75441624,16.5951628 3.81837563,16.3263256 L3.84715736,16.2156279 C3.90472081,15.972093 3.97187817,15.7285581 4.0422335,15.4818605 C4.05822335,15.4186047 4.07741117,15.3553488 4.09659898,15.292093 C4.17654822,15.0232558 4.25969543,14.7512558 4.35243655,14.4824186 C4.35243655,14.4349767 4.38761421,14.3906977 4.40360406,14.3432558 C4.48675127,14.1060465 4.57629442,13.8688372 4.66583756,13.6316279 C4.69142132,13.5715349 4.71380711,13.5114419 4.73619289,13.4545116 C4.84492386,13.1856744 4.95685279,12.92 5.07517766,12.6543256 L5.18390863,12.4139535 C5.24147208,12.2906047 5.29903553,12.1672558 5.35979695,12.043907 C5.42055838,11.9205581 5.44614213,11.8667907 5.48771574,11.7813953 C5.52928934,11.696 5.60604061,11.544186 5.67,11.424 L5.82670051,11.1266977 L5.96101523,10.8768372 L6.13690355,10.5605581 C6.1848731,10.4783256 6.22964467,10.396093 6.27761421,10.3170233 C6.32558376,10.2379535 6.40233503,10.1082791 6.46629442,10.0007442 L6.61020305,9.76353488 L6.81167513,9.44725581 L6.95558376,9.22269767 C7.02913706,9.112 7.10588832,9.00446512 7.17944162,8.9064186 L7.31375635,8.70716279 L7.58878173,8.32762791 C7.62395939,8.28334884 7.65593909,8.23590698 7.68791878,8.19162791 L8.07167513,7.69190698 L8.17081218,7.56855814 L8.47142132,7.20167442 L8.62172589,7.02772093 L8.88076142,6.72725581 L9.05345178,6.54065116 C9.13340102,6.44893023 9.21654822,6.3572093 9.29969543,6.26865116 L9.48517766,6.07888372 C9.56832487,5.99348837 9.64827411,5.90809302 9.73142132,5.82586047 L9.92329949,5.63925581 L10.1727411,5.40204651 L10.3742132,5.21860465 C10.4541624,5.14269767 10.5373096,5.0667907 10.6236548,4.99404651 L10.8283249,4.81693023 L11.0809645,4.60502326 L11.2920305,4.43739535 L11.551066,4.23497674 L11.762132,4.07683721 L11.97,3.92818605 C12.1107107,3.82697674 12.2514213,3.73209302 12.3953299,3.6372093 L12.5744162,3.52018605 C12.7694924,3.39367442 12.9677665,3.27348837 13.1692386,3.15646512 C15.5581218,1.79330233 17.7519289,1.51181395 19.4596447,2.15069767 C19.7022375,2.23758885 19.9374908,2.34334587 20.163198,2.46697674 L20.1855838,2.53023256 Z" id="Path" fill="#DBDDE4"></path>
                            <path d="M13.1916244,3.1975814 C18.6281726,0.101209302 23.0317766,2.58716279 23.0509645,8.75460465 C23.0701523,14.9220465 18.6825381,22.4336744 13.2555838,25.5173953 C7.82862944,28.6011163 3.41543147,26.127814 3.39944162,19.9603721 C3.38345178,13.7929302 7.76467005,6.29711628 13.1916244,3.1975814 Z M13.5625888,22.6424186 C16.6070558,20.9028837 19.219797,17.3289302 20.3614721,13.6917209 C19.0822843,13.6094884 18.2188325,12.5562791 18.2124365,10.7787907 C18.2124365,9.25116279 18.8520305,7.52744186 19.8306091,6.09786047 C18.5066497,4.46586047 16.172132,4.20018605 13.5146193,5.73097674 C9.40203046,8.07776744 6.08253807,13.7644651 6.09532995,18.435907 C6.10812183,23.1073488 9.45319797,24.9892093 13.5625888,22.6424186 L13.5625888,22.6424186 Z" id="Shape" fill="#FFFFFF"></path>
                        </g>
                        <g id="Group" transform="translate(49.248731, 22.139535)" fill-rule="nonzero">
                            <path d="M1.71091371,0.379534884 L2.80142132,1.01209302 C2.57506206,0.907999437 2.30943849,0.933422174 2.10746193,1.07851163 L1.02015228,0.445953488 C1.22113726,0.301426125 1.48554359,0.276002732 1.71091371,0.379534884 L1.71091371,0.379534884 Z" id="Path" fill="#7683BF"></path>
                            <g transform="translate(0.959391, 0.000000)" fill="#7683BF" id="Path">
                                <polyline points="1.14807107 1.07218605 0.0607614213 0.439627907 0.0607614213 0.439627907 1.15126904 1.07218605 1.15126904 1.07218605"></polyline>
                                <path d="M1.15766497,1.06902326 L0.0671573604,0.436465116 C0.106750876,0.41264167 0.148505416,0.392523484 0.191878173,0.376372093 L1.27918782,1.00893023 C1.23714163,1.02576131 1.19650732,1.04585497 1.15766497,1.06902326"></path>
                                <path d="M1.27918782,1.00893023 L0.191878173,0.376372093 C0.223653135,0.361498758 0.256867902,0.349842522 0.291015228,0.341581395 L1.37832487,0.974139535 L1.27918782,1.01209302"></path>
                                <polyline points="1.37832487 0.970976744 0.291015228 0.338418605 0.374162437 0.31627907 1.46467005 0.948837209 1.37832487 0.967813953"></polyline>
                                <path d="M1.46467005,0.948837209 L0.374162437,0.31627907 L0.450913706,0.31627907 L1.54142132,0.948837209 C1.51593033,0.94578992 1.49016104,0.94578992 1.46467005,0.948837209"></path>
                                <path d="M1.54142132,0.948837209 L0.450913706,0.31627907 C0.475325892,0.313096643 0.500054819,0.313096643 0.524467005,0.31627907 L1.61497462,0.948837209 C1.59056005,0.945690844 1.56583589,0.945690844 1.54142132,0.948837209"></path>
                                <polyline points="1.61497462 0.948837209 0.524467005 0.31627907 0.594822335 0.31627907 1.68532995 0.948837209 1.61497462 0.948837209"></polyline>
                                <path d="M1.68532995,0.948837209 L0.594822335,0.31627907 C0.618753695,0.320715669 0.642282398,0.327061999 0.665177665,0.335255814 L1.75248731,0.967813953 C1.73104442,0.95859041 1.70846319,0.952209601 1.68532995,0.948837209"></path>
                                <path d="M1.75248731,0.967813953 L0.665177665,0.335255814 C0.688589512,0.342175576 0.711122327,0.351726267 0.732335025,0.36372093 L1.81964467,0.99627907 L1.75248731,0.970976744"></path>
                                <polyline points="1.81964467 0.993116279 0.732335025 0.36055814 0.751522843 0.36055814 1.84203046 0.993116279 1.81964467 0.993116279"></polyline>
                            </g>
                            <path d="M1.41989848,3.35572093 L0.329390863,2.72316279 C0.131309106,2.58150553 0.023193197,2.34722816 0.0447715736,2.1064186 C0.0821334733,1.42866099 0.444565094,0.809315489 1.02015228,0.439627907 L2.10746193,1.07218605 C1.53768404,1.44365957 1.18128072,2.06167933 1.14807107,2.73581395 C1.11977502,2.97570028 1.2234852,3.21221309 1.41989848,3.35572093 L1.41989848,3.35572093 Z" id="Path" fill="#7683BF"></path>
                            <g transform="translate(0.000000, 0.316279)" fill="#7683BF" id="Path">
                                <path d="M1.41989848,3.03944186 L0.329390863,2.40688372 C0.131309106,2.26522646 0.023193197,2.03094909 0.0447715736,1.79013953 L0.0447715736,1.79013953 L1.13527919,2.42269767 L1.13527919,2.42269767 C1.10495684,2.6693244 1.21434603,2.91243873 1.41989848,3.05525581"></path>
                                <path d="M1.13527919,2.41637209 L0.0447715736,1.78381395 C0.0415912827,1.73536883 0.0415912827,1.68677071 0.0447715736,1.63832558 L1.13208122,2.27088372 C1.13208122,2.31832558 1.13208122,2.36893023 1.13208122,2.41637209"></path>
                                <path d="M1.14167513,2.27088372 L0.0543654822,1.63832558 C0.0576292786,1.59679212 0.0640432651,1.55555982 0.0735532995,1.51497674 L1.16086294,2.14753488 L1.14167513,2.27088372"></path>
                                <path d="M1.16086294,2.14753488 L0.0735532995,1.51497674 C0.0735532995,1.47702326 0.0735532995,1.43906977 0.0959390863,1.40427907 L1.1864467,2.03683721 C1.17605733,2.07329134 1.16751874,2.11023675 1.16086294,2.14753488"></path>
                                <path d="M1.1864467,2.03683721 L0.0959390863,1.40427907 C0.0959390863,1.36948837 0.115126904,1.33469767 0.127918782,1.29674419 L1.21522843,1.92930233 C1.21522843,1.96409302 1.19284264,2.00204651 1.1864467,2.03683721"></path>
                                <path d="M1.21522843,1.92930233 L0.127918782,1.29674419 C0.127918782,1.26511628 0.150304569,1.23032558 0.163096447,1.19553488 L1.25040609,1.82809302 C1.25040609,1.86288372 1.22482234,1.89451163 1.21522843,1.92930233"></path>
                                <path d="M1.25040609,1.82809302 L0.163096447,1.19553488 C0.163096447,1.16074419 0.188680203,1.12595349 0.204670051,1.09116279 L1.2919797,1.72372093 C1.2919797,1.75851163 1.26319797,1.79330233 1.25040609,1.82809302"></path>
                                <path d="M1.27918782,1.72372093 L0.191878173,1.09116279 C0.191878173,1.05637209 0.223857868,1.0215814 0.239847716,0.986790698 L1.32715736,1.61934884 L1.27918782,1.72372093"></path>
                                <path d="M1.33994924,1.61934884 L0.252639594,0.986790698 L0.310203046,0.876093023 L1.40071066,1.50865116 C1.3785639,1.54450291 1.35828366,1.5814503 1.33994924,1.61934884"></path>
                                <path d="M1.40071066,1.50865116 L0.310203046,0.876093023 C0.332588832,0.834976744 0.358172589,0.793860465 0.383756345,0.755906977 L1.47106599,1.38846512 C1.44548223,1.4264186 1.42309645,1.46753488 1.40071066,1.50865116"></path>
                                <path d="M1.47106599,1.38846512 L0.383756345,0.755906977 C0.414201421,0.706743757 0.447294783,0.65923345 0.482893401,0.613581395 L1.57020305,1.24613953 C1.53460443,1.29179159 1.50151107,1.3393019 1.47106599,1.38846512"></path>
                                <path d="M1.57020305,1.24613953 L0.482893401,0.613581395 C0.548706295,0.523906579 0.622558415,0.440281394 0.703553299,0.36372093 L1.79086294,0.99627907 C1.71161617,1.07447489 1.63788961,1.15795789 1.57020305,1.24613953"></path>
                                <polyline points="1.79086294 0.99627907 0.703553299 0.36372093 0.786700508 0.287813953 1.87401015 0.920372093 1.79086294 0.99627907"></polyline>
                                <path d="M1.87401015,0.920372093 L0.786700508,0.287813953 C0.858944358,0.22563901 0.937129433,0.170558181 1.02015228,0.123348837 L2.10746193,0.755906977 C2.02494216,0.803887812 1.94682685,0.858919493 1.87401015,0.920372093"></path>
                            </g>
                            <path d="M2.10746193,1.07218605 C2.64472081,0.755906977 3.06685279,1.01209302 3.08604061,1.62251163 C3.05181263,2.29635241 2.69565348,2.91394877 2.12664975,3.28613953 C1.58939086,3.6024186 1.14807107,3.34939535 1.14807107,2.73581395 C1.18128072,2.06167933 1.53768404,1.44365957 2.10746193,1.07218605 L2.10746193,1.07218605 Z" id="Path" fill="#9BADDD"></path>
                        </g>
                        <g id="Group" transform="translate(52.126904, 20.241860)" fill-rule="nonzero">
                            <path d="M1.99553299,0.161302326 L3.08604061,0.793860465 C2.85992485,0.68837033 2.59354802,0.713865161 2.39208122,0.86027907 L1.3015736,0.22772093 C1.5030404,0.0813070215 1.76941724,0.05581219 1.99553299,0.161302326 L1.99553299,0.161302326 Z" id="Path" fill="#7683BF"></path>
                            <g transform="translate(1.279188, 0.000000)" fill="#7683BF" id="Path">
                                <polyline points="1.1128934 0.987096774 0.0223857868 0.255913978 0.0223857868 0.255913978 1.10969543 0.987096774 1.10969543 0.987096774"></polyline>
                                <path d="M1.11928934,0.979784946 L0.0319796954,0.248602151 L0.153502538,0.179139785 L1.24401015,0.910322581 C1.20121674,0.930497555 1.15956269,0.953696484 1.11928934,0.979784946"></path>
                                <polyline points="1.24401015 0.910322581 0.153502538 0.179139785 0.252639594 0.138924731 1.34314721 0.870107527 1.24401015 0.910322581"></polyline>
                                <path d="M1.34314721,0.870107527 L0.252639594,0.138924731 C0.280663587,0.128150152 0.309606591,0.120797353 0.338984772,0.116989247 L1.42629442,0.848172043 L1.34314721,0.870107527"></path>
                                <path d="M1.42629442,0.848172043 L0.338984772,0.116989247 C0.364475757,0.113466843 0.390245055,0.113466843 0.415736041,0.116989247 L1.50624365,0.848172043 L1.42629442,0.848172043"></path>
                                <polyline points="1.50624365 0.833548387 0.415736041 0.102365591 0.48928934 0.102365591 1.57659898 0.833548387 1.50624365 0.833548387"></polyline>
                                <path d="M1.57659898,0.833548387 L0.48928934,0.102365591 C0.512715316,0.100587068 0.536218695,0.100587068 0.55964467,0.102365591 L1.64695431,0.833548387 C1.62353591,0.831525578 1.60001739,0.831525578 1.57659898,0.833548387"></path>
                                <polyline points="1.64695431 0.844516129 0.55964467 0.113333333 0.62680203 0.131612903 1.71730964 0.862795699 1.64695431 0.862795699"></polyline>
                                <path d="M1.71730964,0.862795699 L0.62680203,0.131612903 L0.69715736,0.164516129 L1.78446701,0.895698925 C1.76325431,0.881834126 1.74072149,0.870794348 1.71730964,0.862795699"></path>
                                <polyline points="1.78446701 0.895698925 0.69715736 0.164516129 0.716345178 0.164516129 1.80685279 0.895698925 1.78446701 0.895698925"></polyline>
                            </g>
                            <path d="M1.70451777,3.13432558 L0.614010152,2.50176744 C0.409096663,2.35864618 0.300840631,2.11531623 0.332588832,1.8692093 C0.364772477,1.19477946 0.721422537,0.576331843 1.2919797,0.205581395 L2.38248731,0.838139535 C1.81114572,1.208161 1.45424631,1.82704099 1.42309645,2.50176744 C1.3906128,2.74797917 1.49902929,2.99166977 1.70451777,3.13432558 L1.70451777,3.13432558 Z" id="Path" fill="#7683BF"></path>
                            <g fill="#7683BF" id="Path">
                                <path d="M1.70451777,3.13432558 L0.614010152,2.50176744 C0.409096663,2.35864618 0.300840631,2.11531623 0.332588832,1.8692093 L0.332588832,1.8692093 L1.41989848,2.50176744 L1.41989848,2.50176744 C1.38810808,2.74860977 1.49782064,2.99244277 1.70451777,3.13432558"></path>
                                <path d="M1.41989848,2.51125581 L0.319796954,1.89767442 C0.316678286,1.84922734 0.316678286,1.80063313 0.319796954,1.75218605 L1.4071066,2.38474419 C1.4071066,2.43534884 1.4071066,2.4827907 1.4071066,2.53023256"></path>
                                <path d="M1.42629442,2.36576744 L0.338984772,1.7332093 C0.342248568,1.69167584 0.348662554,1.65044354 0.358172589,1.60986047 L1.44548223,2.2424186 L1.42629442,2.36576744"></path>
                                <path d="M1.44548223,2.2424186 L0.358172589,1.60986047 C0.358172589,1.57190698 0.358172589,1.53711628 0.380558376,1.49916279 L1.47106599,2.13172093 C1.47106599,2.16967442 1.45187817,2.20446512 1.44548223,2.2424186"></path>
                                <path d="M1.47106599,2.13172093 L0.380558376,1.49916279 C0.380558376,1.46437209 0.399746193,1.4295814 0.412538071,1.3947907 L1.49984772,2.02734884 L1.47106599,2.13488372"></path>
                                <path d="M1.49984772,2.02418605 L0.412538071,1.39162791 C0.412538071,1.35683721 0.434923858,1.32204651 0.447715736,1.28725581 L1.53502538,1.91981395 C1.53502538,1.95460465 1.50944162,1.98939535 1.49984772,2.02102326"></path>
                                <path d="M1.53502538,1.92297674 L0.447715736,1.2904186 C0.447715736,1.25562791 0.473299492,1.22083721 0.48928934,1.18604651 L1.57659898,1.81860465 L1.53502538,1.92297674"></path>
                                <polyline points="1.57659898 1.81860465 0.48928934 1.18604651 0.537258883 1.08167442 1.62456853 1.71423256 1.57659898 1.81860465"></polyline>
                                <path d="M1.62456853,1.71423256 L0.537258883,1.08167442 L0.594822335,0.970976744 L1.68532995,1.60353488 C1.66318319,1.63938664 1.64290295,1.67633402 1.62456853,1.71423256"></path>
                                <path d="M1.68532995,1.60353488 L0.594822335,0.970976744 C0.617208122,0.929860465 0.642791878,0.891906977 0.668375635,0.850790698 L1.75568528,1.48334884 C1.73010152,1.52130233 1.70771574,1.5624186 1.68532995,1.60353488"></path>
                                <polyline points="1.75568528 1.48334884 0.668375635 0.850790698 0.76751269 0.708465116 1.85482234 1.34102326 1.75568528 1.48334884"></polyline>
                                <path d="M1.85482234,1.34102326 L0.76751269,0.708465116 C0.833191689,0.620596706 0.905913699,0.538097894 0.984974619,0.461767442 L2.07548223,1.09432558 C1.99538582,1.17059848 1.92159649,1.25309492 1.85482234,1.34102326"></path>
                                <path d="M2.07548223,1.09432558 L0.984974619,0.461767442 L1.06812183,0.385860465 L2.15862944,1.0184186 C2.12870058,1.04124174 2.10087598,1.06664345 2.07548223,1.09432558"></path>
                                <path d="M2.15862944,1.0184186 L1.06812183,0.385860465 C1.14070655,0.324114475 1.21884928,0.269063476 1.3015736,0.221395349 L2.39208122,0.853953488 C2.30885407,0.900847176 2.23063841,0.955949551 2.15862944,1.0184186"></path>
                            </g>
                            <ellipse id="Oval" fill="#9BADDD" transform="translate(2.394986, 1.956873) rotate(-59.840000) translate(-2.394986, -1.956873) " cx="2.39498591" cy="1.9568728" rx="1.36382379" ry="1"></ellipse>
                        </g>
                        <ellipse id="Oval" fill="#B9EFEF" fill-rule="nonzero" cx="56.9494416" cy="29.8061395" rx="3.79279188" ry="3.75106977"></ellipse>
                        <path d="M57.6082234,27.5352558 L58.5228426,26.7572093 C59.3910167,27.3340208 60.0004989,28.2200585 60.2241624,29.2305116 L59.9875127,29.4013023 C59.4396592,28.5230781 58.5976861,27.8627292 57.6082234,27.5352558 L57.6082234,27.5352558 Z" id="Path" fill="#FFFFFF" fill-rule="nonzero"></path>
                        <ellipse id="Oval" fill="#B9EFEF" fill-rule="nonzero" cx="55.0658376" cy="36.5492093" rx="1.58619289" ry="1.56874419"></ellipse>
                        <path d="M55.3408629,35.6003721 L55.7278173,35.284093 C56.0914175,35.5250597 56.3468996,35.8955693 56.4409645,36.3183256 L56.3418274,36.387907 C56.1116766,36.0176029 55.7574464,35.7389031 55.3408629,35.6003721 Z" id="Path" fill="#FFFFFF" fill-rule="nonzero"></path>
                        <ellipse id="Oval" fill="#B9EFEF" fill-rule="nonzero" cx="58.5804061" cy="39.8037209" rx="1.89" ry="1.8692093"></ellipse>
                        <path d="M58.906599,38.6714419 L59.3671066,38.2855814 C59.799231,38.5724768 60.1027924,39.0131801 60.2145685,39.515907 L60.0962437,39.6013023 C59.8225807,39.1626498 59.4013617,38.833413 58.906599,38.6714419 L58.906599,38.6714419 Z" id="Path" fill="#FFFFFF" fill-rule="nonzero"></path>
                    </g>
                    <path d="M83.464,23.952 C82.3759946,22.6239934 81.032008,21.96 79.432,21.96 C78.7279965,21.96 78.076003,22.0879987 77.476,22.344 C76.875997,22.6000013 76.3600022,22.9479978 75.928,23.388 C75.4959978,23.8280022 75.1560012,24.351997 74.908,24.96 C74.6599988,25.568003 74.536,26.2239965 74.536,26.928 C74.536,27.6480036 74.6599988,28.311997 74.908,28.92 C75.1560012,29.528003 75.4999978,30.0559978 75.94,30.504 C76.3800022,30.9520022 76.895997,31.3039987 77.488,31.56 C78.080003,31.8160013 78.7199966,31.944 79.408,31.944 C80.9120075,31.944 82.263994,31.3040064 83.464,30.024 L83.464,35.592 L82.984,35.76 C82.2639964,36.0160013 81.5920031,36.2039994 80.968,36.324 C80.3439969,36.4440006 79.728003,36.504 79.12,36.504 C77.8719938,36.504 76.6760057,36.2680024 75.532,35.796 C74.3879943,35.3239976 73.3800044,34.6600043 72.508,33.804 C71.6359956,32.9479957 70.9360026,31.9320059 70.408,30.756 C69.8799974,29.5799941 69.616,28.296007 69.616,26.904 C69.616,25.511993 69.8759974,24.2360058 70.396,23.076 C70.9160026,21.9159942 71.6119956,20.9160042 72.484,20.076 C73.3560044,19.2359958 74.3679942,18.5800024 75.52,18.108 C76.6720058,17.6359976 77.8799937,17.4 79.144,17.4 C79.8640036,17.4 80.5719965,17.4759992 81.268,17.628 C81.9640035,17.7800008 82.6959962,18.0159984 83.464,18.336 L83.464,23.952 Z M90.136,29.784 C90.136,30.2000021 90.2119992,30.5799983 90.364,30.924 C90.5160008,31.2680017 90.7159988,31.5679987 90.964,31.824 C91.2120012,32.0800013 91.5079983,32.2799993 91.852,32.424 C92.1960017,32.5680007 92.5599981,32.64 92.944,32.64 C93.3280019,32.64 93.6919983,32.5680007 94.036,32.424 C94.3800017,32.2799993 94.6759988,32.0800013 94.924,31.824 C95.1720012,31.5679987 95.3719992,31.2680017 95.524,30.924 C95.6760008,30.5799983 95.752,30.208002 95.752,29.808 C95.752,29.4239981 95.6760008,29.0600017 95.524,28.716 C95.3719992,28.3719983 95.1720012,28.0720013 94.924,27.816 C94.6759988,27.5599987 94.3800017,27.3600007 94.036,27.216 C93.6919983,27.0719993 93.3280019,27 92.944,27 C92.5599981,27 92.1960017,27.0719993 91.852,27.216 C91.5079983,27.3600007 91.2120012,27.5599987 90.964,27.816 C90.7159988,28.0720013 90.5160008,28.3679983 90.364,28.704 C90.2119992,29.0400017 90.136,29.3999981 90.136,29.784 Z M85.552,29.736 C85.552,28.8239954 85.7359982,27.972004 86.104,27.18 C86.4720018,26.387996 86.9839967,25.7000029 87.64,25.116 C88.2960033,24.5319971 89.0759955,24.0720017 89.98,23.736 C90.8840045,23.3999983 91.8719946,23.232 92.944,23.232 C94.0000053,23.232 94.9799955,23.3959984 95.884,23.724 C96.7880045,24.0520016 97.5719967,24.5079971 98.236,25.092 C98.9000033,25.6760029 99.4159982,26.371996 99.784,27.18 C100.152002,27.988004 100.336,28.8799951 100.336,29.856 C100.336,30.8320049 100.148002,31.723996 99.772,32.532 C99.3959981,33.340004 98.8800033,34.0359971 98.224,34.62 C97.5679967,35.2040029 96.7800046,35.6559984 95.86,35.976 C94.9399954,36.2960016 93.9440054,36.456 92.872,36.456 C91.8159947,36.456 90.8400045,36.2960016 89.944,35.976 C89.0479955,35.6559984 88.2760032,35.200003 87.628,34.608 C86.9799968,34.015997 86.4720018,33.3080041 86.104,32.484 C85.7359982,31.6599959 85.552,30.744005 85.552,29.736 Z M107.176,16.08 L107.176,36 L102.832,36 L102.832,16.08 L107.176,16.08 Z M114.256,29.784 C114.256,30.2000021 114.331999,30.5799983 114.484,30.924 C114.636001,31.2680017 114.835999,31.5679987 115.084,31.824 C115.332001,32.0800013 115.627998,32.2799993 115.972,32.424 C116.316002,32.5680007 116.679998,32.64 117.064,32.64 C117.448002,32.64 117.811998,32.5680007 118.156,32.424 C118.500002,32.2799993 118.795999,32.0800013 119.044,31.824 C119.292001,31.5679987 119.491999,31.2680017 119.644,30.924 C119.796001,30.5799983 119.872,30.208002 119.872,29.808 C119.872,29.4239981 119.796001,29.0600017 119.644,28.716 C119.491999,28.3719983 119.292001,28.0720013 119.044,27.816 C118.795999,27.5599987 118.500002,27.3600007 118.156,27.216 C117.811998,27.0719993 117.448002,27 117.064,27 C116.679998,27 116.316002,27.0719993 115.972,27.216 C115.627998,27.3600007 115.332001,27.5599987 115.084,27.816 C114.835999,28.0720013 114.636001,28.3679983 114.484,28.704 C114.331999,29.0400017 114.256,29.3999981 114.256,29.784 Z M109.672,29.736 C109.672,28.8239954 109.855998,27.972004 110.224,27.18 C110.592002,26.387996 111.103997,25.7000029 111.76,25.116 C112.416003,24.5319971 113.195995,24.0720017 114.1,23.736 C115.004005,23.3999983 115.991995,23.232 117.064,23.232 C118.120005,23.232 119.099995,23.3959984 120.004,23.724 C120.908005,24.0520016 121.691997,24.5079971 122.356,25.092 C123.020003,25.6760029 123.535998,26.371996 123.904,27.18 C124.272002,27.988004 124.456,28.8799951 124.456,29.856 C124.456,30.8320049 124.268002,31.723996 123.892,32.532 C123.515998,33.340004 123.000003,34.0359971 122.344,34.62 C121.687997,35.2040029 120.900005,35.6559984 119.98,35.976 C119.059995,36.2960016 118.064005,36.456 116.992,36.456 C115.935995,36.456 114.960004,36.2960016 114.064,35.976 C113.167996,35.6559984 112.396003,35.200003 111.748,34.608 C111.099997,34.015997 110.592002,33.3080041 110.224,32.484 C109.855998,31.6599959 109.672,30.744005 109.672,29.736 Z M126.952,23.688 L131.296,23.688 L131.296,25.704 C131.760002,24.9679963 132.327997,24.404002 133,24.012 C133.672003,23.619998 134.455996,23.424 135.352,23.424 L135.724,23.424 C135.860001,23.424 136.015999,23.4399998 136.192,23.472 L136.192,27.624 C135.615997,27.3359986 134.992003,27.192 134.32,27.192 C133.311995,27.192 132.556003,27.491997 132.052,28.092 C131.547997,28.692003 131.296,29.5679942 131.296,30.72 L131.296,36 L126.952,36 L126.952,23.688 Z M138.136,23.688 L142.48,23.688 L142.48,25.2 C143.664006,24.0639943 144.991993,23.496 146.464,23.496 C148.288009,23.496 149.679995,24.2639923 150.64,25.8 C151.616005,24.2479922 153.007991,23.472 154.816,23.472 C155.392003,23.472 155.935997,23.5559992 156.448,23.724 C156.960003,23.8920008 157.399998,24.1559982 157.768,24.516 C158.136002,24.8760018 158.427999,25.3439971 158.644,25.92 C158.860001,26.4960029 158.968,27.1919959 158.968,28.008 L158.968,36 L154.624,36 L154.624,29.928 C154.624,29.3039969 154.58,28.792002 154.492,28.392 C154.404,27.991998 154.276001,27.6800011 154.108,27.456 C153.939999,27.2319989 153.744001,27.0800004 153.52,27 C153.295999,26.9199996 153.056001,26.88 152.8,26.88 C151.407993,26.88 150.712,27.8959898 150.712,29.928 L150.712,36 L146.368,36 L146.368,29.928 C146.368,29.3039969 146.328,28.788002 146.248,28.38 C146.168,27.971998 146.052001,27.6480012 145.9,27.408 C145.747999,27.1679988 145.552001,27.0040004 145.312,26.916 C145.071999,26.8279996 144.792002,26.784 144.472,26.784 C144.199999,26.784 143.944001,26.8239996 143.704,26.904 C143.463999,26.9840004 143.252001,27.1399988 143.068,27.372 C142.883999,27.6040012 142.740001,27.923998 142.636,28.332 C142.531999,28.740002 142.48,29.2719967 142.48,29.928 L142.48,36 L138.136,36 L138.136,23.688 Z M165.976,29.808 C165.976,30.208002 166.047999,30.5799983 166.192,30.924 C166.336001,31.2680017 166.531999,31.5679987 166.78,31.824 C167.028001,32.0800013 167.323998,32.2799993 167.668,32.424 C168.012002,32.5680007 168.383998,32.64 168.784,32.64 C169.168002,32.64 169.531998,32.5680007 169.876,32.424 C170.220002,32.2799993 170.515999,32.0800013 170.764,31.824 C171.012001,31.5679987 171.211999,31.2720017 171.364,30.936 C171.516001,30.5999983 171.592,30.2400019 171.592,29.856 C171.592,29.4719981 171.516001,29.1080017 171.364,28.764 C171.211999,28.4199983 171.012001,28.1200013 170.764,27.864 C170.515999,27.6079987 170.220002,27.4080007 169.876,27.264 C169.531998,27.1199993 169.168002,27.048 168.784,27.048 C168.383998,27.048 168.012002,27.1199993 167.668,27.264 C167.323998,27.4080007 167.028001,27.6079987 166.78,27.864 C166.531999,28.1200013 166.336001,28.4119984 166.192,28.74 C166.047999,29.0680016 165.976,29.4239981 165.976,29.808 Z M171.448,23.688 L175.816,23.688 L175.816,36 L171.448,36 L171.448,34.632 C170.519995,35.8000058 169.264008,36.384 167.68,36.384 C166.783996,36.384 165.960004,36.2200016 165.208,35.892 C164.455996,35.5639984 163.800003,35.104003 163.24,34.512 C162.679997,33.919997 162.244002,33.224004 161.932,32.424 C161.619998,31.623996 161.464,30.7520047 161.464,29.808 C161.464,28.9279956 161.615998,28.092004 161.92,27.3 C162.224002,26.507996 162.647997,25.816003 163.192,25.224 C163.736003,24.631997 164.383996,24.1640017 165.136,23.82 C165.888004,23.4759983 166.719995,23.304 167.632,23.304 C169.168008,23.304 170.439995,23.8399946 171.448,24.912 L171.448,23.688 Z M183.616,27.312 L183.616,36 L179.272,36 L179.272,27.312 L177.832,27.312 L177.832,23.688 L179.272,23.688 L179.272,19.992 L183.616,19.992 L183.616,23.688 L186.088,23.688 L186.088,27.312 L183.616,27.312 Z M196.96,28.056 C196.815999,27.447997 196.520002,26.9600018 196.072,26.592 C195.623998,26.2239982 195.080003,26.04 194.44,26.04 C193.767997,26.04 193.220002,26.2159982 192.796,26.568 C192.371998,26.9200018 192.104001,27.4159968 191.992,28.056 L196.96,28.056 Z M191.872,30.576 C191.872,32.4480094 192.751991,33.384 194.512,33.384 C195.456005,33.384 196.167998,33.0000038 196.648,32.232 L200.848,32.232 C199.999996,35.0480141 197.880017,36.456 194.488,36.456 C193.447995,36.456 192.496004,36.3000016 191.632,35.988 C190.767996,35.6759984 190.028003,35.2320029 189.412,34.656 C188.795997,34.0799971 188.320002,33.392004 187.984,32.592 C187.647998,31.791996 187.48,30.896005 187.48,29.904 C187.48,28.8799949 187.639998,27.9560041 187.96,27.132 C188.280002,26.3079959 188.735997,25.6080029 189.328,25.032 C189.920003,24.4559971 190.635996,24.0120016 191.476,23.7 C192.316004,23.3879984 193.263995,23.232 194.32,23.232 C195.360005,23.232 196.295996,23.3879984 197.128,23.7 C197.960004,24.0120016 198.663997,24.463997 199.24,25.056 C199.816003,25.648003 200.255998,26.3719957 200.56,27.228 C200.864002,28.0840043 201.016,29.0479946 201.016,30.12 L201.016,30.576 L191.872,30.576 Z" id="Colormate" fill="#4D4F59" fill-rule="nonzero"></path>
                    <path d="M77.315918,48.4765625 L76.0444336,49.1533203 C75.8439118,48.743162 75.5955418,48.5380859 75.2993164,48.5380859 C75.1580397,48.5380859 75.0372726,48.5847977 74.9370117,48.6782227 C74.8367508,48.7716476 74.7866211,48.8912753 74.7866211,49.0371094 C74.7866211,49.292319 75.0828421,49.5452461 75.675293,49.7958984 C76.4910523,50.1468117 77.0402004,50.4703761 77.3227539,50.7666016 C77.6053074,51.062827 77.746582,51.461586 77.746582,51.9628906 C77.746582,52.605472 77.5096052,53.143227 77.0356445,53.5761719 C76.5753558,53.9863302 76.0193717,54.1914062 75.3676758,54.1914062 C74.2511337,54.1914062 73.4604515,53.6468153 72.9956055,52.5576172 L74.3081055,51.9492188 C74.490398,52.2682308 74.6293941,52.4710282 74.7250977,52.5576172 C74.9119475,52.7307951 75.1352526,52.8173828 75.3950195,52.8173828 C75.9145534,52.8173828 76.1743164,52.580406 76.1743164,52.1064453 C76.1743164,51.8330064 75.9737976,51.5778007 75.5727539,51.3408203 C75.4178052,51.263346 75.2628588,51.1881514 75.1079102,51.1152344 C74.9529615,51.0423173 74.7957365,50.9671228 74.6362305,50.8896484 C74.1896137,50.6708973 73.8751637,50.4521495 73.6928711,50.2333984 C73.4604481,49.9554023 73.3442383,49.5976584 73.3442383,49.1601562 C73.3442383,48.5813773 73.5424785,48.1028665 73.9389648,47.7246094 C74.3445658,47.3463523 74.8367484,47.1572266 75.4155273,47.1572266 C76.2677451,47.1572266 76.9012024,47.5970008 77.315918,48.4765625 Z M78.8129883,50.6230469 C78.8129883,49.6614535 79.1570604,48.8434279 79.8452148,48.1689453 C80.5333693,47.4944628 81.3719026,47.1572266 82.3608398,47.1572266 C83.3543344,47.1572266 84.1974249,47.4967414 84.8901367,48.1757812 C85.5737339,48.8548211 85.9155273,49.6887971 85.9155273,50.6777344 C85.9155273,51.6757862 85.5714553,52.5120409 84.8833008,53.1865234 C84.190589,53.8564487 83.3406626,54.1914062 82.3334961,54.1914062 C81.3354442,54.1914062 80.4991896,53.8496128 79.824707,53.1660156 C79.1502245,52.4915331 78.8129883,51.6438853 78.8129883,50.6230469 Z M80.3852539,50.6503906 C80.3852539,51.3157585 80.5629865,51.8421205 80.918457,52.2294922 C81.2830422,52.6214212 81.7638317,52.8173828 82.3608398,52.8173828 C82.9624054,52.8173828 83.4431948,52.6236999 83.8032227,52.2363281 C84.1632505,51.8489564 84.3432617,51.331709 84.3432617,50.6845703 C84.3432617,50.0374317 84.1632505,49.5201842 83.8032227,49.1328125 C83.4386375,48.7408835 82.957848,48.5449219 82.3608398,48.5449219 C81.7729463,48.5449219 81.2967141,48.7408835 80.9321289,49.1328125 C80.5675437,49.5247415 80.3852539,50.0305959 80.3852539,50.6503906 Z M87.5424805,47.3417969 L89.0805664,47.3417969 L89.0805664,47.9365234 C89.3631199,47.640298 89.6137684,47.4375005 89.8325195,47.328125 C90.0558279,47.2141921 90.3201482,47.1572266 90.6254883,47.1572266 C91.0310893,47.1572266 91.4549132,47.2893867 91.8969727,47.5537109 L91.1928711,48.9619141 C90.901203,48.7522776 90.6163751,48.6474609 90.3383789,48.6474609 C89.499833,48.6474609 89.0805664,49.2809181 89.0805664,50.5478516 L89.0805664,54 L87.5424805,54 L87.5424805,47.3417969 Z M94.8706055,48.7773438 L94.8706055,54 L93.3325195,54 L93.3325195,48.7773438 L92.6762695,48.7773438 L92.6762695,47.3417969 L93.3325195,47.3417969 L93.3325195,44.9013672 L94.8706055,44.9013672 L94.8706055,47.3417969 L96.0668945,47.3417969 L96.0668945,48.7773438 L94.8706055,48.7773438 Z M97.3520508,53.234375 C97.3520508,52.9791654 97.4454743,52.758139 97.6323242,52.5712891 C97.8191741,52.3844392 98.0424792,52.2910156 98.3022461,52.2910156 C98.562013,52.2910156 98.7853181,52.3844392 98.972168,52.5712891 C99.1590179,52.758139 99.2524414,52.981444 99.2524414,53.2412109 C99.2524414,53.5055352 99.1590179,53.7311189 98.972168,53.9179688 C98.7898754,54.1002613 98.5665703,54.1914062 98.3022461,54.1914062 C98.0333645,54.1914062 97.8077809,54.1002613 97.6254883,53.9179688 C97.4431957,53.7356762 97.3520508,53.5078139 97.3520508,53.234375 Z M106.614746,47.6289062 L106.614746,49.6728516 C106.263833,49.244464 105.949383,48.9505216 105.671387,48.7910156 C105.397948,48.6269523 105.076662,48.5449219 104.70752,48.5449219 C104.128741,48.5449219 103.647951,48.7477193 103.265137,49.1533203 C102.882322,49.5589213 102.690918,50.0670542 102.690918,50.6777344 C102.690918,51.3020865 102.875486,51.8147766 103.244629,52.2158203 C103.618329,52.616864 104.094561,52.8173828 104.67334,52.8173828 C105.042482,52.8173828 105.368325,52.737631 105.650879,52.578125 C105.924318,52.4231763 106.245604,52.1223981 106.614746,51.6757812 L106.614746,53.7060547 C105.990394,54.029624 105.366051,54.1914062 104.741699,54.1914062 C103.711746,54.1914062 102.850427,53.8587273 102.157715,53.1933594 C101.465003,52.5234342 101.118652,51.6917367 101.118652,50.6982422 C101.118652,49.7047476 101.46956,48.8662144 102.171387,48.1826172 C102.873213,47.49902 103.734533,47.1572266 104.755371,47.1572266 C105.411624,47.1572266 106.03141,47.3144516 106.614746,47.6289062 Z M109.643066,42.4541016 L109.643066,54 L108.10498,54 L108.10498,42.4541016 L109.643066,42.4541016 Z M117.654785,51.0332031 L112.883301,51.0332031 C112.924317,51.5800809 113.102049,52.0152979 113.416504,52.3388672 C113.730959,52.6578792 114.134275,52.8173828 114.626465,52.8173828 C115.009279,52.8173828 115.326008,52.7262379 115.57666,52.5439453 C115.822755,52.3616527 116.103026,52.0244165 116.41748,51.5322266 L117.716309,52.2568359 C117.515787,52.5986345 117.303875,52.8914376 117.080566,53.1352539 C116.857258,53.3790702 116.618003,53.5795891 116.362793,53.7368164 C116.107583,53.8940438 115.83187,54.0091142 115.535645,54.0820312 C115.239419,54.1549483 114.918133,54.1914062 114.571777,54.1914062 C113.578283,54.1914062 112.780765,53.872399 112.179199,53.234375 C111.577634,52.5917937 111.276855,51.7395886 111.276855,50.6777344 C111.276855,49.6249947 111.568519,48.7727897 112.151855,48.1210938 C112.739749,47.4785124 113.519038,47.1572266 114.489746,47.1572266 C115.469569,47.1572266 116.244301,47.4693979 116.813965,48.09375 C117.379072,48.7135448 117.661621,49.5725857 117.661621,50.6708984 L117.654785,51.0332031 Z M116.075684,49.7753906 C115.86149,48.955074 115.344242,48.5449219 114.523926,48.5449219 C114.337076,48.5449219 114.161622,48.5734047 113.997559,48.6303711 C113.833495,48.6873375 113.684245,48.769368 113.549805,48.8764648 C113.415364,48.9835617 113.300293,49.1123039 113.20459,49.2626953 C113.108886,49.4130867 113.03597,49.5839834 112.98584,49.7753906 L116.075684,49.7753906 Z M124.244629,47.3417969 L125.789551,47.3417969 L125.789551,54 L124.244629,54 L124.244629,53.3027344 C123.611162,53.8951853 122.929854,54.1914062 122.200684,54.1914062 C121.280106,54.1914062 120.519046,53.8587273 119.91748,53.1933594 C119.320472,52.5143195 119.021973,51.6666717 119.021973,50.6503906 C119.021973,49.6523388 119.320472,48.8206413 119.91748,48.1552734 C120.514489,47.4899055 121.261877,47.1572266 122.159668,47.1572266 C122.934411,47.1572266 123.629391,47.4762338 124.244629,48.1142578 L124.244629,47.3417969 Z M120.594238,50.6503906 C120.594238,51.2884146 120.765135,51.8079407 121.106934,52.2089844 C121.457847,52.6145854 121.8999,52.8173828 122.433105,52.8173828 C123.00277,52.8173828 123.463052,52.6214212 123.813965,52.2294922 C124.164878,51.8238912 124.340332,51.3089224 124.340332,50.6845703 C124.340332,50.0602182 124.164878,49.5452494 123.813965,49.1396484 C123.463052,48.7431621 123.007327,48.5449219 122.446777,48.5449219 C121.918129,48.5449219 121.476076,48.7454407 121.120605,49.1464844 C120.769692,49.5520854 120.594238,50.0533824 120.594238,50.6503906 Z M127.730957,47.3417969 L129.275879,47.3417969 L129.275879,47.9570312 C129.813642,47.4238255 130.419756,47.1572266 131.094238,47.1572266 C131.868982,47.1572266 132.472817,47.4010392 132.905762,47.8886719 C133.279462,48.3033875 133.466309,48.9801385 133.466309,49.9189453 L133.466309,54 L131.921387,54 L131.921387,50.28125 C131.921387,49.6249967 131.830242,49.1715507 131.647949,48.9208984 C131.470214,48.6656888 131.146649,48.5380859 130.677246,48.5380859 C130.166827,48.5380859 129.804526,48.706704 129.590332,49.0439453 C129.380696,49.3766293 129.275879,49.9576781 129.275879,50.7871094 L129.275879,54 L127.730957,54 L127.730957,47.3417969 Z M135.646973,53.234375 C135.646973,52.9791654 135.740396,52.758139 135.927246,52.5712891 C136.114096,52.3844392 136.337401,52.2910156 136.597168,52.2910156 C136.856935,52.2910156 137.08024,52.3844392 137.26709,52.5712891 C137.45394,52.758139 137.547363,52.981444 137.547363,53.2412109 C137.547363,53.5055352 137.45394,53.7311189 137.26709,53.9179688 C137.084797,54.1002613 136.861492,54.1914062 136.597168,54.1914062 C136.328286,54.1914062 136.102703,54.1002613 135.92041,53.9179688 C135.738118,53.7356762 135.646973,53.5078139 135.646973,53.234375 Z M143.597168,48.4765625 L142.325684,49.1533203 C142.125162,48.743162 141.876792,48.5380859 141.580566,48.5380859 C141.43929,48.5380859 141.318523,48.5847977 141.218262,48.6782227 C141.118001,48.7716476 141.067871,48.8912753 141.067871,49.0371094 C141.067871,49.292319 141.364092,49.5452461 141.956543,49.7958984 C142.772302,50.1468117 143.32145,50.4703761 143.604004,50.7666016 C143.886557,51.062827 144.027832,51.461586 144.027832,51.9628906 C144.027832,52.605472 143.790855,53.143227 143.316895,53.5761719 C142.856606,53.9863302 142.300622,54.1914062 141.648926,54.1914062 C140.532384,54.1914062 139.741702,53.6468153 139.276855,52.5576172 L140.589355,51.9492188 C140.771648,52.2682308 140.910644,52.4710282 141.006348,52.5576172 C141.193198,52.7307951 141.416503,52.8173828 141.67627,52.8173828 C142.195803,52.8173828 142.455566,52.580406 142.455566,52.1064453 C142.455566,51.8330064 142.255048,51.5778007 141.854004,51.3408203 C141.699055,51.263346 141.544109,51.1881514 141.38916,51.1152344 C141.234211,51.0423173 141.076986,50.9671228 140.91748,50.8896484 C140.470864,50.6708973 140.156414,50.4521495 139.974121,50.2333984 C139.741698,49.9554023 139.625488,49.5976584 139.625488,49.1601562 C139.625488,48.5813773 139.823728,48.1028665 140.220215,47.7246094 C140.625816,47.3463523 141.117998,47.1572266 141.696777,47.1572266 C142.548995,47.1572266 143.182452,47.5970008 143.597168,48.4765625 Z M151.472168,51.0332031 L146.700684,51.0332031 C146.741699,51.5800809 146.919432,52.0152979 147.233887,52.3388672 C147.548341,52.6578792 147.951658,52.8173828 148.443848,52.8173828 C148.826662,52.8173828 149.143391,52.7262379 149.394043,52.5439453 C149.640138,52.3616527 149.920409,52.0244165 150.234863,51.5322266 L151.533691,52.2568359 C151.33317,52.5986345 151.121258,52.8914376 150.897949,53.1352539 C150.674641,53.3790702 150.435385,53.5795891 150.180176,53.7368164 C149.924966,53.8940438 149.649253,54.0091142 149.353027,54.0820312 C149.056802,54.1549483 148.735516,54.1914062 148.38916,54.1914062 C147.395666,54.1914062 146.598148,53.872399 145.996582,53.234375 C145.395017,52.5917937 145.094238,51.7395886 145.094238,50.6777344 C145.094238,49.6249947 145.385902,48.7727897 145.969238,48.1210938 C146.557132,47.4785124 147.336421,47.1572266 148.307129,47.1572266 C149.286952,47.1572266 150.061683,47.4693979 150.631348,48.09375 C151.196455,48.7135448 151.479004,49.5725857 151.479004,50.6708984 L151.472168,51.0332031 Z M149.893066,49.7753906 C149.678873,48.955074 149.161625,48.5449219 148.341309,48.5449219 C148.154459,48.5449219 147.979005,48.5734047 147.814941,48.6303711 C147.650878,48.6873375 147.501628,48.769368 147.367188,48.8764648 C147.232747,48.9835617 147.117676,49.1123039 147.021973,49.2626953 C146.926269,49.4130867 146.853353,49.5839834 146.803223,49.7753906 L149.893066,49.7753906 Z M154.691895,57.6230469 L153.153809,57.6230469 L153.153809,47.3417969 L154.691895,47.3417969 L154.691895,48.0664062 C155.298017,47.4602834 155.986162,47.1572266 156.756348,47.1572266 C157.672368,47.1572266 158.426592,47.4944628 159.019043,48.1689453 C159.620608,48.8388705 159.921387,49.6842397 159.921387,50.7050781 C159.921387,51.70313 159.622887,52.5348274 159.025879,53.2001953 C158.433428,53.8610059 157.68604,54.1914062 156.783691,54.1914062 C156.004391,54.1914062 155.307132,53.8792349 154.691895,53.2548828 L154.691895,57.6230469 Z M158.349121,50.7119141 C158.349121,50.07389 158.175946,49.554364 157.82959,49.1533203 C157.478677,48.7477193 157.036624,48.5449219 156.503418,48.5449219 C155.938311,48.5449219 155.480308,48.7408835 155.129395,49.1328125 C154.778481,49.5247415 154.603027,50.0397104 154.603027,50.6777344 C154.603027,51.3020865 154.778481,51.8170553 155.129395,52.2226562 C155.47575,52.6191426 155.931475,52.8173828 156.496582,52.8173828 C157.029788,52.8173828 157.469562,52.616864 157.815918,52.2158203 C158.171388,51.8147766 158.349121,51.3134796 158.349121,50.7119141 Z M166.456543,47.3417969 L168.001465,47.3417969 L168.001465,54 L166.456543,54 L166.456543,53.3027344 C165.823076,53.8951853 165.141768,54.1914062 164.412598,54.1914062 C163.49202,54.1914062 162.73096,53.8587273 162.129395,53.1933594 C161.532386,52.5143195 161.233887,51.6666717 161.233887,50.6503906 C161.233887,49.6523388 161.532386,48.8206413 162.129395,48.1552734 C162.726403,47.4899055 163.473791,47.1572266 164.371582,47.1572266 C165.146325,47.1572266 165.841306,47.4762338 166.456543,48.1142578 L166.456543,47.3417969 Z M162.806152,50.6503906 C162.806152,51.2884146 162.977049,51.8079407 163.318848,52.2089844 C163.669761,52.6145854 164.111814,52.8173828 164.64502,52.8173828 C165.214684,52.8173828 165.674966,52.6214212 166.025879,52.2294922 C166.376792,51.8238912 166.552246,51.3089224 166.552246,50.6845703 C166.552246,50.0602182 166.376792,49.5452494 166.025879,49.1396484 C165.674966,48.7431621 165.219241,48.5449219 164.658691,48.5449219 C164.130043,48.5449219 163.68799,48.7454407 163.33252,49.1464844 C162.981606,49.5520854 162.806152,50.0533824 162.806152,50.6503906 Z M169.942871,47.3417969 L171.480957,47.3417969 L171.480957,47.9365234 C171.763511,47.640298 172.014159,47.4375005 172.23291,47.328125 C172.456219,47.2141921 172.720539,47.1572266 173.025879,47.1572266 C173.43148,47.1572266 173.855304,47.2893867 174.297363,47.5537109 L173.593262,48.9619141 C173.301594,48.7522776 173.016766,48.6474609 172.73877,48.6474609 C171.900224,48.6474609 171.480957,49.2809181 171.480957,50.5478516 L171.480957,54 L169.942871,54 L169.942871,47.3417969 Z M179.991699,47.3417969 L181.536621,47.3417969 L181.536621,54 L179.991699,54 L179.991699,53.3027344 C179.358233,53.8951853 178.676924,54.1914062 177.947754,54.1914062 C177.027176,54.1914062 176.266116,53.8587273 175.664551,53.1933594 C175.067543,52.5143195 174.769043,51.6666717 174.769043,50.6503906 C174.769043,49.6523388 175.067543,48.8206413 175.664551,48.1552734 C176.261559,47.4899055 177.008947,47.1572266 177.906738,47.1572266 C178.681482,47.1572266 179.376462,47.4762338 179.991699,48.1142578 L179.991699,47.3417969 Z M176.341309,50.6503906 C176.341309,51.2884146 176.512205,51.8079407 176.854004,52.2089844 C177.204917,52.6145854 177.64697,52.8173828 178.180176,52.8173828 C178.74984,52.8173828 179.210122,52.6214212 179.561035,52.2294922 C179.911948,51.8238912 180.087402,51.3089224 180.087402,50.6845703 C180.087402,50.0602182 179.911948,49.5452494 179.561035,49.1396484 C179.210122,48.7431621 178.754397,48.5449219 178.193848,48.5449219 C177.665199,48.5449219 177.223146,48.7454407 176.867676,49.1464844 C176.516763,49.5520854 176.341309,50.0533824 176.341309,50.6503906 Z M185.063965,48.7773438 L185.063965,54 L183.525879,54 L183.525879,48.7773438 L182.869629,48.7773438 L182.869629,47.3417969 L183.525879,47.3417969 L183.525879,44.9013672 L185.063965,44.9013672 L185.063965,47.3417969 L186.260254,47.3417969 L186.260254,48.7773438 L185.063965,48.7773438 Z M193.492676,51.0332031 L188.721191,51.0332031 C188.762207,51.5800809 188.93994,52.0152979 189.254395,52.3388672 C189.568849,52.6578792 189.972166,52.8173828 190.464355,52.8173828 C190.84717,52.8173828 191.163898,52.7262379 191.414551,52.5439453 C191.660646,52.3616527 191.940916,52.0244165 192.255371,51.5322266 L193.554199,52.2568359 C193.353677,52.5986345 193.141765,52.8914376 192.918457,53.1352539 C192.695149,53.3790702 192.455893,53.5795891 192.200684,53.7368164 C191.945474,53.8940438 191.669761,54.0091142 191.373535,54.0820312 C191.07731,54.1549483 190.756024,54.1914062 190.409668,54.1914062 C189.416173,54.1914062 188.618655,53.872399 188.01709,53.234375 C187.415524,52.5917937 187.114746,51.7395886 187.114746,50.6777344 C187.114746,49.6249947 187.40641,48.7727897 187.989746,48.1210938 C188.57764,47.4785124 189.356929,47.1572266 190.327637,47.1572266 C191.307459,47.1572266 192.082191,47.4693979 192.651855,48.09375 C193.216962,48.7135448 193.499512,49.5725857 193.499512,50.6708984 L193.492676,51.0332031 Z M191.913574,49.7753906 C191.69938,48.955074 191.182133,48.5449219 190.361816,48.5449219 C190.174967,48.5449219 189.999513,48.5734047 189.835449,48.6303711 C189.671386,48.6873375 189.522136,48.769368 189.387695,48.8764648 C189.253255,48.9835617 189.138184,49.1123039 189.04248,49.2626953 C188.946777,49.4130867 188.873861,49.5839834 188.82373,49.7753906 L191.913574,49.7753906 Z M195.413574,53.234375 C195.413574,52.9791654 195.506998,52.758139 195.693848,52.5712891 C195.880698,52.3844392 196.104003,52.2910156 196.36377,52.2910156 C196.623536,52.2910156 196.846842,52.3844392 197.033691,52.5712891 C197.220541,52.758139 197.313965,52.981444 197.313965,53.2412109 C197.313965,53.5055352 197.220541,53.7311189 197.033691,53.9179688 C196.851399,54.1002613 196.628094,54.1914062 196.36377,54.1914062 C196.094888,54.1914062 195.869304,54.1002613 195.687012,53.9179688 C195.504719,53.7356762 195.413574,53.5078139 195.413574,53.234375 Z" id="sort.clean.separate." fill-opacity="0.65" fill="#4D4F59" fill-rule="nonzero"></path>
                </g>
            </g>
        </g>
    </g>
</svg>