<?xml version="1.0" encoding="UTF-8"?>
<svg width="200px" height="68px" viewBox="0 0 200 68" version="1.1" xmlns="http://www.w3.org/2000/svg" xmlns:xlink="http://www.w3.org/1999/xlink">
    <!-- Generator: sketchtool 53.1 (72631) - https://sketchapp.com -->
    <title>19CA4219-603A-46A4-80F1-3497A2069E9A@1.00x</title>
    <desc>Created with sketchtool.</desc>
    <defs>
        <linearGradient x1="49.9997943%" y1="1.22394817%" x2="49.9997943%" y2="96.0618045%" id="linearGradient-1">
            <stop stop-color="#BE0031" offset="0%"></stop>
            <stop stop-color="#BF0635" offset="12.82%"></stop>
            <stop stop-color="#C2173F" offset="30.15%"></stop>
            <stop stop-color="#C73450" offset="100%"></stop>
        </linearGradient>
    </defs>
    <g id="Slice-1" stroke="none" stroke-width="1" fill="none" fill-rule="evenodd">
        <g id="loader" transform="translate(-60.000000, -413.000000)">
            <g id="text2Loader" transform="translate(60.000000, 413.000000)">
                <path d="M15.928,4.304 C15.586665,4.02666528 15.245335,3.821334 14.904,3.688 C14.562665,3.554666 14.2320016,3.488 13.912,3.488 C13.5066646,3.488 13.1760013,3.58399904 12.92,3.776 C12.6639987,3.96800096 12.536,4.21866512 12.536,4.528 C12.536,4.7413344 12.5999994,4.91733264 12.728,5.056 C12.8560006,5.19466736 13.023999,5.31466616 13.232,5.416 C13.440001,5.51733384 13.6746654,5.60533296 13.936,5.68 C14.1973346,5.75466704 14.4559987,5.83466624 14.712,5.92 C15.7360051,6.26133504 16.485331,6.71733048 16.96,7.288 C17.434669,7.85866952 17.672,8.60266208 17.672,9.52 C17.672,10.1386698 17.568001,10.6986642 17.36,11.2 C17.151999,11.7013358 16.848002,12.1306649 16.448,12.488 C16.047998,12.8453351 15.5573362,13.1226657 14.976,13.32 C14.3946638,13.5173343 13.7360037,13.616 13,13.616 C11.474659,13.616 10.0613398,13.1626712 8.76,12.256 L10.104,9.728 C10.5733357,10.1440021 11.037331,10.4533323 11.496,10.656 C11.954669,10.8586677 12.4079978,10.96 12.856,10.96 C13.3680026,10.96 13.7493321,10.8426678 14,10.608 C14.2506679,10.3733322 14.376,10.1066682 14.376,9.808 C14.376,9.62666576 14.3440003,9.469334 14.28,9.336 C14.2159997,9.202666 14.1093341,9.08000056 13.96,8.968 C13.8106659,8.85599944 13.6160012,8.75200048 13.376,8.656 C13.1359988,8.55999952 12.845335,8.45333392 12.504,8.336 C12.0986646,8.20799936 11.7013353,8.06666744 11.312,7.912 C10.9226647,7.75733256 10.5760015,7.55200128 10.272,7.296 C9.96799848,7.03999872 9.7226676,6.71733528 9.536,6.328 C9.3493324,5.93866472 9.256,5.44533632 9.256,4.848 C9.256,4.25066368 9.35466568,3.70933576 9.552,3.224 C9.74933432,2.73866424 10.0266649,2.3226684 10.384,1.976 C10.7413351,1.6293316 11.1786641,1.36000096 11.696,1.168 C12.2133359,0.97599904 12.7919968,0.88 13.432,0.88 C14.0293363,0.88 14.6533301,0.96266584 15.304,1.128 C15.9546699,1.29333416 16.5786637,1.5359984 17.176,1.856 L15.928,4.304 Z M22.104,9.136 C22.104,9.41333472 22.1546662,9.66666552 22.256,9.896 C22.3573338,10.1253345 22.4906658,10.3253325 22.656,10.496 C22.8213342,10.6666675 23.0186655,10.7999995 23.248,10.896 C23.4773345,10.9920005 23.7199987,11.04 23.976,11.04 C24.2320013,11.04 24.4746655,10.9920005 24.704,10.896 C24.9333345,10.7999995 25.1306658,10.6666675 25.296,10.496 C25.4613342,10.3253325 25.5946662,10.1253345 25.696,9.896 C25.7973338,9.66666552 25.848,9.418668 25.848,9.152 C25.848,8.89599872 25.7973338,8.65333448 25.696,8.424 C25.5946662,8.19466552 25.4613342,7.99466752 25.296,7.824 C25.1306658,7.65333248 24.9333345,7.52000048 24.704,7.424 C24.4746655,7.32799952 24.2320013,7.28 23.976,7.28 C23.7199987,7.28 23.4773345,7.32799952 23.248,7.424 C23.0186655,7.52000048 22.8213342,7.65333248 22.656,7.824 C22.4906658,7.99466752 22.3573338,8.19199888 22.256,8.416 C22.1546662,8.64000112 22.104,8.87999872 22.104,9.136 Z M19.048,9.104 C19.048,8.49599696 19.1706654,7.92800264 19.416,7.4 C19.6613346,6.87199736 20.0026645,6.41333528 20.44,6.024 C20.8773355,5.63466472 21.3973303,5.32800112 22,5.104 C22.6026697,4.87999888 23.2613298,4.768 23.976,4.768 C24.6800035,4.768 25.3333303,4.87733224 25.936,5.096 C26.5386697,5.31466776 27.0613311,5.61866472 27.504,6.008 C27.9466689,6.39733528 28.2906654,6.86133064 28.536,7.4 C28.7813346,7.93866936 28.904,8.53333008 28.904,9.184 C28.904,9.83466992 28.7786679,10.4293306 28.528,10.968 C28.2773321,11.5066694 27.9333355,11.9706647 27.496,12.36 C27.0586645,12.7493353 26.5333364,13.0506656 25.92,13.264 C25.3066636,13.4773344 24.6426702,13.584 23.928,13.584 C23.2239965,13.584 22.5733363,13.4773344 21.976,13.264 C21.3786637,13.0506656 20.8640022,12.7466686 20.432,12.352 C19.9999978,11.9573314 19.6613346,11.4853361 19.416,10.936 C19.1706654,10.3866639 19.048,9.77600336 19.048,9.104 Z M30.568,5.072 L33.464,5.072 L33.464,6.416 C33.7733349,5.92533088 34.1519978,5.54933464 34.6,5.288 C35.0480022,5.02666536 35.5706637,4.896 36.168,4.896 L36.416,4.896 C36.5066671,4.896 36.6106661,4.90666656 36.728,4.928 L36.728,7.696 C36.3439981,7.50399904 35.9280022,7.408 35.48,7.408 C34.8079966,7.408 34.3040017,7.607998 33.968,8.008 C33.6319983,8.408002 33.464,8.99199616 33.464,9.76 L33.464,13.28 L30.568,13.28 L30.568,5.072 Z M41.24,7.488 L41.24,13.28 L38.344,13.28 L38.344,7.488 L37.384,7.488 L37.384,5.072 L38.344,5.072 L38.344,2.608 L41.24,2.608 L41.24,5.072 L42.888,5.072 L42.888,7.488 L41.24,7.488 Z M46.872,5.072 L46.872,13.28 L43.976,13.28 L43.976,5.072 L46.872,5.072 Z M43.784,1.92 C43.784,1.69599888 43.8266662,1.48533432 43.912,1.288 C43.9973338,1.09066568 44.1146659,0.91733408 44.264,0.768 C44.4133341,0.61866592 44.5866657,0.50133376 44.784,0.416 C44.9813343,0.33066624 45.1919989,0.288 45.416,0.288 C45.6400011,0.288 45.8506657,0.33066624 46.048,0.416 C46.2453343,0.50133376 46.4186659,0.61866592 46.568,0.768 C46.7173341,0.91733408 46.8346662,1.09066568 46.92,1.288 C47.0053338,1.48533432 47.048,1.69599888 47.048,1.92 C47.048,2.14400112 47.0053338,2.35466568 46.92,2.552 C46.8346662,2.74933432 46.7173341,2.92266592 46.568,3.072 C46.4186659,3.22133408 46.2453343,3.33866624 46.048,3.424 C45.8506657,3.50933376 45.6400011,3.552 45.416,3.552 C45.1919989,3.552 44.9813343,3.50933376 44.784,3.424 C44.5866657,3.33866624 44.4133341,3.22133408 44.264,3.072 C44.1146659,2.92266592 43.9973338,2.74933432 43.912,2.552 C43.8266662,2.35466568 43.784,2.14400112 43.784,1.92 Z M48.856,5.072 L51.752,5.072 L51.752,6.112 C52.1466686,5.6319976 52.5466646,5.30933416 52.952,5.144 C53.3573354,4.97866584 53.8319973,4.896 54.376,4.896 C54.9520029,4.896 55.4453313,4.9893324 55.856,5.176 C56.2666687,5.3626676 56.6159986,5.62666496 56.904,5.968 C57.1386678,6.24533472 57.2986662,6.55466496 57.384,6.896 C57.4693338,7.23733504 57.512,7.62666448 57.512,8.064 L57.512,13.28 L54.616,13.28 L54.616,9.136 C54.616,8.73066464 54.586667,8.40266792 54.528,8.152 C54.469333,7.90133208 54.3653341,7.70133408 54.216,7.552 C54.0879994,7.42399936 53.9440008,7.3333336 53.784,7.28 C53.6239992,7.2266664 53.4533342,7.2 53.272,7.2 C52.7813309,7.2 52.4053346,7.3466652 52.144,7.64 C51.8826654,7.9333348 51.752,8.35199728 51.752,8.896 L51.752,13.28 L48.856,13.28 L48.856,5.072 Z M62.168,9.136 C62.168,9.402668 62.2159995,9.65066552 62.312,9.88 C62.4080005,10.1093345 62.5386658,10.3093325 62.704,10.48 C62.8693342,10.6506675 63.0666655,10.7839995 63.296,10.88 C63.5253345,10.9760005 63.773332,11.024 64.04,11.024 C64.2960013,11.024 64.5386655,10.9760005 64.768,10.88 C64.9973345,10.7839995 65.1946658,10.6506675 65.36,10.48 C65.5253342,10.3093325 65.6586662,10.1093345 65.76,9.88 C65.8613338,9.65066552 65.912,9.40800128 65.912,9.152 C65.912,8.885332 65.8613338,8.64000112 65.76,8.416 C65.6586662,8.19199888 65.5226675,7.99466752 65.352,7.824 C65.1813325,7.65333248 64.9813345,7.52000048 64.752,7.424 C64.5226655,7.32799952 64.2853346,7.28 64.04,7.28 C63.7839987,7.28 63.5440011,7.33066616 63.32,7.432 C63.0959989,7.53333384 62.8986675,7.66666584 62.728,7.832 C62.5573325,7.99733416 62.4213338,8.19199888 62.32,8.416 C62.2186662,8.64000112 62.168,8.87999872 62.168,9.136 Z M68.664,5.072 L68.664,12.72 C68.664,13.178669 68.6373336,13.5893315 68.584,13.952 C68.5306664,14.3146685 68.4560005,14.6346653 68.36,14.912 C68.2319994,15.2640018 68.0320014,15.5919985 67.76,15.896 C67.4879986,16.2000015 67.1600019,16.4639989 66.776,16.688 C66.3919981,16.9120011 65.9573358,17.0879994 65.472,17.216 C64.9866642,17.3440006 64.4613362,17.408 63.896,17.408 C63.2559968,17.408 62.669336,17.3280008 62.136,17.168 C61.602664,17.0079992 61.136002,16.7866681 60.736,16.504 C60.335998,16.2213319 60.0080013,15.8906686 59.752,15.512 C59.4959987,15.1333314 59.3253338,14.7200022 59.24,14.272 L62.504,14.272 C62.7066677,14.8160027 63.1653298,15.088 63.88,15.088 C64.488003,15.088 64.954665,14.917335 65.28,14.576 C65.605335,14.234665 65.768,13.760003 65.768,13.152 L65.768,12.368 C65.5546656,12.5706677 65.3493343,12.738666 65.152,12.872 C64.9546657,13.005334 64.7546677,13.1146662 64.552,13.2 C64.3493323,13.2853338 64.1360011,13.3466665 63.912,13.384 C63.6879989,13.4213335 63.442668,13.44 63.176,13.44 C62.5893304,13.44 62.0506691,13.3386677 61.56,13.136 C61.0693309,12.9333323 60.6453351,12.6506685 60.288,12.288 C59.9306649,11.9253315 59.6533343,11.4906692 59.456,10.984 C59.2586657,10.4773308 59.16,9.91466976 59.16,9.296 C59.16,8.66666352 59.2666656,8.08266936 59.48,7.544 C59.6933344,7.00533064 59.9839982,6.536002 60.352,6.136 C60.7200018,5.735998 61.1573308,5.42133448 61.664,5.192 C62.1706692,4.96266552 62.7226637,4.848 63.32,4.848 C64.2906715,4.848 65.1066634,5.21066304 65.768,5.936 L65.768,5.072 L68.664,5.072 Z M71.528,10.224 L74.248,10.224 L71.304,15.52 L69.448,15.52 L71.528,10.224 Z M87.704,7.728 C87.2026642,7.38666496 86.6960026,7.216 86.184,7.216 C85.9066653,7.216 85.6480012,7.26399952 85.408,7.36 C85.1679988,7.45600048 84.9573342,7.59199912 84.776,7.768 C84.5946658,7.94400088 84.4533338,8.1519988 84.352,8.392 C84.2506662,8.6320012 84.2,8.90133184 84.2,9.2 C84.2,9.48800144 84.2506662,9.7519988 84.352,9.992 C84.4533338,10.2320012 84.5919991,10.4399991 84.768,10.616 C84.9440009,10.7920009 85.1546654,10.9279995 85.4,11.024 C85.6453346,11.1200005 85.9066653,11.168 86.184,11.168 C86.7280027,11.168 87.2346643,10.9813352 87.704,10.608 L87.704,13.072 C86.9893298,13.3813349 86.3120032,13.536 85.672,13.536 C85.0746637,13.536 84.5066694,13.4346677 83.968,13.232 C83.4293306,13.0293323 82.9546687,12.7386686 82.544,12.36 C82.1333313,11.9813314 81.8053346,11.5280026 81.56,11 C81.3146654,10.4719974 81.192,9.88266992 81.192,9.232 C81.192,8.58133008 81.3093322,7.98666936 81.544,7.448 C81.7786678,6.90933064 82.0986646,6.44533528 82.504,6.056 C82.9093354,5.66666472 83.3919972,5.36266776 83.952,5.144 C84.5120028,4.92533224 85.1119968,4.816 85.752,4.816 C86.4560035,4.816 87.1066637,4.96533184 87.704,5.264 L87.704,7.728 Z M92.248,-3.41060513e-13 L92.248,13.28 L89.352,13.28 L89.352,-3.41060513e-13 L92.248,-3.41060513e-13 Z M100.232,7.984 C100.136,7.57866464 99.9386682,7.25333456 99.64,7.008 C99.3413318,6.76266544 98.9786688,6.64 98.552,6.64 C98.1039978,6.64 97.7386681,6.75733216 97.456,6.992 C97.1733319,7.22666784 96.994667,7.5573312 96.92,7.984 L100.232,7.984 Z M96.84,9.664 C96.84,10.9120062 97.4266608,11.536 98.6,11.536 C99.2293365,11.536 99.7039984,11.2800026 100.024,10.768 L102.824,10.768 C102.258664,12.6453427 100.845345,13.584 98.584,13.584 C97.8906632,13.584 97.2560029,13.480001 96.68,13.272 C96.1039971,13.063999 95.6106687,12.7680019 95.2,12.384 C94.7893313,11.9999981 94.4720011,11.541336 94.248,11.008 C94.0239989,10.474664 93.912,9.87733664 93.912,9.216 C93.912,8.53332992 94.0186656,7.91733608 94.232,7.368 C94.4453344,6.81866392 94.7493314,6.35200192 95.144,5.968 C95.5386686,5.58399808 96.0159972,5.28800104 96.576,5.08 C97.1360028,4.87199896 97.7679965,4.768 98.472,4.768 C99.1653368,4.768 99.7893306,4.87199896 100.344,5.08 C100.898669,5.28800104 101.367998,5.58933136 101.752,5.984 C102.136002,6.37866864 102.429332,6.86133048 102.632,7.432 C102.834668,8.00266952 102.936,8.64532976 102.936,9.36 L102.936,9.664 L96.84,9.664 Z M107.272,9.152 C107.272,9.418668 107.32,9.66666552 107.416,9.896 C107.512,10.1253345 107.642666,10.3253325 107.808,10.496 C107.973334,10.6666675 108.170666,10.7999995 108.4,10.896 C108.629334,10.9920005 108.877332,11.04 109.144,11.04 C109.400001,11.04 109.642666,10.9920005 109.872,10.896 C110.101334,10.7999995 110.298666,10.6666675 110.464,10.496 C110.629334,10.3253325 110.762666,10.1280011 110.864,9.904 C110.965334,9.67999888 111.016,9.44000128 111.016,9.184 C111.016,8.92799872 110.965334,8.68533448 110.864,8.456 C110.762666,8.22666552 110.629334,8.02666752 110.464,7.856 C110.298666,7.68533248 110.101334,7.55200048 109.872,7.456 C109.642666,7.35999952 109.400001,7.312 109.144,7.312 C108.877332,7.312 108.629334,7.35999952 108.4,7.456 C108.170666,7.55200048 107.973334,7.68533248 107.808,7.856 C107.642666,8.02666752 107.512,8.22133224 107.416,8.44 C107.32,8.65866776 107.272,8.89599872 107.272,9.152 Z M110.92,5.072 L113.832,5.072 L113.832,13.28 L110.92,13.28 L110.92,12.368 C110.30133,13.1466706 109.464005,13.536 108.408,13.536 C107.810664,13.536 107.261336,13.4266678 106.76,13.208 C106.258664,12.9893322 105.821335,12.6826686 105.448,12.288 C105.074665,11.8933314 104.784001,11.429336 104.576,10.896 C104.367999,10.362664 104.264,9.78133648 104.264,9.152 C104.264,8.5653304 104.365332,8.00800264 104.568,7.48 C104.770668,6.95199736 105.053332,6.49066864 105.416,6.096 C105.778668,5.70133136 106.210664,5.38933448 106.712,5.16 C107.213336,4.93066552 107.767997,4.816 108.376,4.816 C109.400005,4.816 110.247997,5.17332976 110.92,5.888 L110.92,5.072 Z M115.8,5.072 L118.696,5.072 L118.696,6.112 C119.090669,5.6319976 119.490665,5.30933416 119.896,5.144 C120.301335,4.97866584 120.775997,4.896 121.32,4.896 C121.896003,4.896 122.389331,4.9893324 122.8,5.176 C123.210669,5.3626676 123.559999,5.62666496 123.848,5.968 C124.082668,6.24533472 124.242666,6.55466496 124.328,6.896 C124.413334,7.23733504 124.456,7.62666448 124.456,8.064 L124.456,13.28 L121.56,13.28 L121.56,9.136 C121.56,8.73066464 121.530667,8.40266792 121.472,8.152 C121.413333,7.90133208 121.309334,7.70133408 121.16,7.552 C121.031999,7.42399936 120.888001,7.3333336 120.728,7.28 C120.567999,7.2266664 120.397334,7.2 120.216,7.2 C119.725331,7.2 119.349335,7.3466652 119.088,7.64 C118.826665,7.9333348 118.696,8.35199728 118.696,8.896 L118.696,13.28 L115.8,13.28 L115.8,5.072 Z M129.32,5.072 L129.32,13.28 L126.424,13.28 L126.424,5.072 L129.32,5.072 Z M126.232,1.92 C126.232,1.69599888 126.274666,1.48533432 126.36,1.288 C126.445334,1.09066568 126.562666,0.91733408 126.712,0.768 C126.861334,0.61866592 127.034666,0.50133376 127.232,0.416 C127.429334,0.33066624 127.639999,0.288 127.864,0.288 C128.088001,0.288 128.298666,0.33066624 128.496,0.416 C128.693334,0.50133376 128.866666,0.61866592 129.016,0.768 C129.165334,0.91733408 129.282666,1.09066568 129.368,1.288 C129.453334,1.48533432 129.496,1.69599888 129.496,1.92 C129.496,2.14400112 129.453334,2.35466568 129.368,2.552 C129.282666,2.74933432 129.165334,2.92266592 129.016,3.072 C128.866666,3.22133408 128.693334,3.33866624 128.496,3.424 C128.298666,3.50933376 128.088001,3.552 127.864,3.552 C127.639999,3.552 127.429334,3.50933376 127.232,3.424 C127.034666,3.33866624 126.861334,3.22133408 126.712,3.072 C126.562666,2.92266592 126.445334,2.74933432 126.36,2.552 C126.274666,2.35466568 126.232,2.14400112 126.232,1.92 Z M131.304,5.072 L134.2,5.072 L134.2,6.112 C134.594669,5.6319976 134.994665,5.30933416 135.4,5.144 C135.805335,4.97866584 136.279997,4.896 136.824,4.896 C137.400003,4.896 137.893331,4.9893324 138.304,5.176 C138.714669,5.3626676 139.063999,5.62666496 139.352,5.968 C139.586668,6.24533472 139.746666,6.55466496 139.832,6.896 C139.917334,7.23733504 139.96,7.62666448 139.96,8.064 L139.96,13.28 L137.064,13.28 L137.064,9.136 C137.064,8.73066464 137.034667,8.40266792 136.976,8.152 C136.917333,7.90133208 136.813334,7.70133408 136.664,7.552 C136.535999,7.42399936 136.392001,7.3333336 136.232,7.28 C136.071999,7.2266664 135.901334,7.2 135.72,7.2 C135.229331,7.2 134.853335,7.3466652 134.592,7.64 C134.330665,7.9333348 134.2,8.35199728 134.2,8.896 L134.2,13.28 L131.304,13.28 L131.304,5.072 Z M144.616,9.136 C144.616,9.402668 144.664,9.65066552 144.76,9.88 C144.856,10.1093345 144.986666,10.3093325 145.152,10.48 C145.317334,10.6506675 145.514666,10.7839995 145.744,10.88 C145.973334,10.9760005 146.221332,11.024 146.488,11.024 C146.744001,11.024 146.986666,10.9760005 147.216,10.88 C147.445334,10.7839995 147.642666,10.6506675 147.808,10.48 C147.973334,10.3093325 148.106666,10.1093345 148.208,9.88 C148.309334,9.65066552 148.36,9.40800128 148.36,9.152 C148.36,8.885332 148.309334,8.64000112 148.208,8.416 C148.106666,8.19199888 147.970668,7.99466752 147.8,7.824 C147.629332,7.65333248 147.429334,7.52000048 147.2,7.424 C146.970666,7.32799952 146.733335,7.28 146.488,7.28 C146.231999,7.28 145.992001,7.33066616 145.768,7.432 C145.543999,7.53333384 145.346668,7.66666584 145.176,7.832 C145.005332,7.99733416 144.869334,8.19199888 144.768,8.416 C144.666666,8.64000112 144.616,8.87999872 144.616,9.136 Z M151.112,5.072 L151.112,12.72 C151.112,13.178669 151.085334,13.5893315 151.032,13.952 C150.978666,14.3146685 150.904,14.6346653 150.808,14.912 C150.679999,15.2640018 150.480001,15.5919985 150.208,15.896 C149.935999,16.2000015 149.608002,16.4639989 149.224,16.688 C148.839998,16.9120011 148.405336,17.0879994 147.92,17.216 C147.434664,17.3440006 146.909336,17.408 146.344,17.408 C145.703997,17.408 145.117336,17.3280008 144.584,17.168 C144.050664,17.0079992 143.584002,16.7866681 143.184,16.504 C142.783998,16.2213319 142.456001,15.8906686 142.2,15.512 C141.943999,15.1333314 141.773334,14.7200022 141.688,14.272 L144.952,14.272 C145.154668,14.8160027 145.61333,15.088 146.328,15.088 C146.936003,15.088 147.402665,14.917335 147.728,14.576 C148.053335,14.234665 148.216,13.760003 148.216,13.152 L148.216,12.368 C148.002666,12.5706677 147.797334,12.738666 147.6,12.872 C147.402666,13.005334 147.202668,13.1146662 147,13.2 C146.797332,13.2853338 146.584001,13.3466665 146.36,13.384 C146.135999,13.4213335 145.890668,13.44 145.624,13.44 C145.03733,13.44 144.498669,13.3386677 144.008,13.136 C143.517331,12.9333323 143.093335,12.6506685 142.736,12.288 C142.378665,11.9253315 142.101334,11.4906692 141.904,10.984 C141.706666,10.4773308 141.608,9.91466976 141.608,9.296 C141.608,8.66666352 141.714666,8.08266936 141.928,7.544 C142.141334,7.00533064 142.431998,6.536002 142.8,6.136 C143.168002,5.735998 143.605331,5.42133448 144.112,5.192 C144.618669,4.96266552 145.170664,4.848 145.768,4.848 C146.738672,4.848 147.554663,5.21066304 148.216,5.936 L148.216,5.072 L151.112,5.072 Z M161.208,9.152 C161.208,9.418668 161.256,9.66666552 161.352,9.896 C161.448,10.1253345 161.578666,10.3253325 161.744,10.496 C161.909334,10.6666675 162.106666,10.7999995 162.336,10.896 C162.565334,10.9920005 162.813332,11.04 163.08,11.04 C163.336001,11.04 163.578666,10.9920005 163.808,10.896 C164.037334,10.7999995 164.234666,10.6666675 164.4,10.496 C164.565334,10.3253325 164.698666,10.1280011 164.8,9.904 C164.901334,9.67999888 164.952,9.44000128 164.952,9.184 C164.952,8.92799872 164.901334,8.68533448 164.8,8.456 C164.698666,8.22666552 164.565334,8.02666752 164.4,7.856 C164.234666,7.68533248 164.037334,7.55200048 163.808,7.456 C163.578666,7.35999952 163.336001,7.312 163.08,7.312 C162.813332,7.312 162.565334,7.35999952 162.336,7.456 C162.106666,7.55200048 161.909334,7.68533248 161.744,7.856 C161.578666,8.02666752 161.448,8.22133224 161.352,8.44 C161.256,8.65866776 161.208,8.89599872 161.208,9.152 Z M164.856,5.072 L167.768,5.072 L167.768,13.28 L164.856,13.28 L164.856,12.368 C164.23733,13.1466706 163.400005,13.536 162.344,13.536 C161.746664,13.536 161.197336,13.4266678 160.696,13.208 C160.194664,12.9893322 159.757335,12.6826686 159.384,12.288 C159.010665,11.8933314 158.720001,11.429336 158.512,10.896 C158.303999,10.362664 158.2,9.78133648 158.2,9.152 C158.2,8.5653304 158.301332,8.00800264 158.504,7.48 C158.706668,6.95199736 158.989332,6.49066864 159.352,6.096 C159.714668,5.70133136 160.146664,5.38933448 160.648,5.16 C161.149336,4.93066552 161.703997,4.816 162.312,4.816 C163.336005,4.816 164.183997,5.17332976 164.856,5.888 L164.856,5.072 Z M169.736,5.072 L172.632,5.072 L172.632,6.112 C173.026669,5.6319976 173.426665,5.30933416 173.832,5.144 C174.237335,4.97866584 174.711997,4.896 175.256,4.896 C175.832003,4.896 176.325331,4.9893324 176.736,5.176 C177.146669,5.3626676 177.495999,5.62666496 177.784,5.968 C178.018668,6.24533472 178.178666,6.55466496 178.264,6.896 C178.349334,7.23733504 178.392,7.62666448 178.392,8.064 L178.392,13.28 L175.496,13.28 L175.496,9.136 C175.496,8.73066464 175.466667,8.40266792 175.408,8.152 C175.349333,7.90133208 175.245334,7.70133408 175.096,7.552 C174.967999,7.42399936 174.824001,7.3333336 174.664,7.28 C174.503999,7.2266664 174.333334,7.2 174.152,7.2 C173.661331,7.2 173.285335,7.3466652 173.024,7.64 C172.762665,7.9333348 172.632,8.35199728 172.632,8.896 L172.632,13.28 L169.736,13.28 L169.736,5.072 Z M183.048,9.152 C183.048,9.418668 183.096,9.66666552 183.192,9.896 C183.288,10.1253345 183.418666,10.3253325 183.584,10.496 C183.749334,10.6666675 183.946666,10.7999995 184.176,10.896 C184.405334,10.9920005 184.653332,11.04 184.92,11.04 C185.176001,11.04 185.418666,10.9920005 185.648,10.896 C185.877334,10.7999995 186.074666,10.6666675 186.24,10.496 C186.405334,10.3253325 186.538666,10.1280011 186.64,9.904 C186.741334,9.67999888 186.792,9.44000128 186.792,9.184 C186.792,8.92799872 186.741334,8.68533448 186.64,8.456 C186.538666,8.22666552 186.405334,8.02666752 186.24,7.856 C186.074666,7.68533248 185.877334,7.55200048 185.648,7.456 C185.418666,7.35999952 185.176001,7.312 184.92,7.312 C184.663999,7.312 184.421334,7.35999952 184.192,7.456 C183.962666,7.55200048 183.765334,7.68533248 183.6,7.856 C183.434666,8.02666752 183.301334,8.22133224 183.2,8.44 C183.098666,8.65866776 183.048,8.89599872 183.048,9.152 Z M186.696,-3.41060513e-13 L189.608,-3.41060513e-13 L189.608,13.28 L186.696,13.28 L186.696,12.368 C186.07733,13.1466706 185.240005,13.536 184.184,13.536 C183.586664,13.536 183.037336,13.4240011 182.536,13.2 C182.034664,12.9759989 181.597335,12.6666686 181.224,12.272 C180.850665,11.8773314 180.560001,11.413336 180.352,10.88 C180.143999,10.346664 180.04,9.77066976 180.04,9.152 C180.04,8.5653304 180.138666,8.00800264 180.336,7.48 C180.533334,6.95199736 180.813332,6.49066864 181.176,6.096 C181.538668,5.70133136 181.973331,5.38933448 182.48,5.16 C182.986669,4.93066552 183.543997,4.816 184.152,4.816 C185.176005,4.816 186.023997,5.17332976 186.696,5.888 L186.696,-3.41060513e-13 Z M5.952,32.184 C5.418664,31.9066653 4.89600256,31.768 4.384,31.768 C4.117332,31.768 3.90133416,31.8213328 3.736,31.928 C3.57066584,32.0346672 3.488,32.1786658 3.488,32.36 C3.488,32.4560005 3.5013332,32.533333 3.528,32.592 C3.5546668,32.650667 3.61333288,32.7066664 3.704,32.76 C3.79466712,32.8133336 3.92799912,32.8613331 4.104,32.904 C4.28000088,32.9466669 4.51199856,32.9999997 4.8,33.064 C5.600004,33.2240008 6.19733136,33.5093313 6.592,33.92 C6.98666864,34.3306687 7.184,34.8559968 7.184,35.496 C7.184,35.9760024 7.08800096,36.4079981 6.896,36.792 C6.70399904,37.1760019 6.43733504,37.4986654 6.096,37.76 C5.75466496,38.0213346 5.3440024,38.2239993 4.864,38.368 C4.3839976,38.5120007 3.85600288,38.584 3.28,38.584 C2.17066112,38.584 1.07733872,38.2693365 -2.98427949e-13,37.64 L1.056,35.592 C1.86667072,36.1466694 2.63466304,36.424 3.36,36.424 C3.626668,36.424 3.84533248,36.3653339 4.016,36.248 C4.18666752,36.1306661 4.272,35.9813342 4.272,35.8 C4.272,35.6933328 4.2586668,35.6053337 4.232,35.536 C4.2053332,35.4666663 4.14933376,35.402667 4.064,35.344 C3.97866624,35.285333 3.85333416,35.2320002 3.688,35.184 C3.52266584,35.1359998 3.306668,35.0853336 3.04,35.032 C2.14399552,34.8506658 1.51733512,34.5813351 1.16,34.224 C0.80266488,33.8666649 0.624,33.3733365 0.624,32.744 C0.624,32.285331 0.70933248,31.8720018 0.88,31.504 C1.05066752,31.1359982 1.2959984,30.8240013 1.616,30.568 C1.9360016,30.3119987 2.3226644,30.1146674 2.776,29.976 C3.2293356,29.8373326 3.73333056,29.768 4.288,29.768 C5.1946712,29.768 6.0746624,29.9439982 6.928,30.296 L5.952,32.184 Z M14.656,32.984 C14.5599995,32.5786646 14.3626682,32.2533346 14.064,32.008 C13.7653318,31.7626654 13.4026688,31.64 12.976,31.64 C12.5279978,31.64 12.1626681,31.7573322 11.88,31.992 C11.5973319,32.2266678 11.418667,32.5573312 11.344,32.984 L14.656,32.984 Z M11.264,34.664 C11.264,35.9120062 11.8506608,36.536 13.024,36.536 C13.6533365,36.536 14.1279984,36.2800026 14.448,35.768 L17.248,35.768 C16.6826638,37.6453427 15.2693446,38.584 13.008,38.584 C12.3146632,38.584 11.6800029,38.480001 11.104,38.272 C10.5279971,38.063999 10.0346687,37.7680019 9.624,37.384 C9.21333128,36.9999981 8.89600112,36.541336 8.672,36.008 C8.44799888,35.474664 8.336,34.8773366 8.336,34.216 C8.336,33.5333299 8.4426656,32.9173361 8.656,32.368 C8.8693344,31.8186639 9.17333136,31.3520019 9.568,30.968 C9.96266864,30.5839981 10.4399972,30.288001 11,30.08 C11.5600028,29.871999 12.1919965,29.768 12.896,29.768 C13.5893368,29.768 14.2133306,29.871999 14.768,30.08 C15.3226694,30.288001 15.7919981,30.5893314 16.176,30.984 C16.5600019,31.3786686 16.8533323,31.8613305 17.056,32.432 C17.2586677,33.0026695 17.36,33.6453298 17.36,34.36 L17.36,34.664 L11.264,34.664 Z M25.552,34.2 C25.552,33.9439987 25.5066671,33.7013345 25.416,33.472 C25.3253329,33.2426655 25.1946675,33.0426675 25.024,32.872 C24.8533325,32.7013325 24.6533345,32.5653338 24.424,32.464 C24.1946655,32.3626662 23.946668,32.312 23.68,32.312 C23.4239987,32.312 23.1840011,32.3599995 22.96,32.456 C22.7359989,32.5520005 22.5413342,32.6853325 22.376,32.856 C22.2106658,33.0266675 22.0773338,33.2266655 21.976,33.456 C21.8746662,33.6853345 21.824,33.9279987 21.824,34.184 C21.824,34.4400013 21.8719995,34.6799989 21.968,34.904 C22.0640005,35.1280011 22.1973325,35.3226658 22.368,35.488 C22.5386675,35.6533342 22.7386655,35.7866662 22.968,35.888 C23.1973345,35.9893338 23.4399987,36.04 23.696,36.04 C23.9520013,36.04 24.1919989,35.9920005 24.416,35.896 C24.6400011,35.7999995 24.8346658,35.6666675 25,35.496 C25.1653342,35.3253325 25.2986662,35.1280011 25.4,34.904 C25.5013338,34.6799989 25.552,34.4453346 25.552,34.2 Z M21.904,42.376 L19.008,42.376 L19.008,30.072 L21.904,30.072 L21.904,30.984 C22.5226698,30.2053294 23.365328,29.816 24.432,29.816 C25.0186696,29.816 25.5653308,29.9306655 26.072,30.16 C26.5786692,30.3893345 27.0186648,30.7013314 27.392,31.096 C27.7653352,31.4906686 28.055999,31.954664 28.264,32.488 C28.472001,33.021336 28.576,33.591997 28.576,34.2 C28.576,34.808003 28.472001,35.3733307 28.264,35.896 C28.055999,36.4186693 27.7680018,36.8773314 27.4,37.272 C27.0319982,37.6666686 26.5973358,37.9759989 26.096,38.2 C25.5946642,38.4240011 25.0506696,38.536 24.464,38.536 C23.4399949,38.536 22.5866701,38.1840035 21.904,37.48 L21.904,42.376 Z M32.912,34.152 C32.912,34.418668 32.9599995,34.6666655 33.056,34.896 C33.1520005,35.1253345 33.2826658,35.3253325 33.448,35.496 C33.6133342,35.6666675 33.8106655,35.7999995 34.04,35.896 C34.2693345,35.9920005 34.517332,36.04 34.784,36.04 C35.0400013,36.04 35.2826655,35.9920005 35.512,35.896 C35.7413345,35.7999995 35.9386658,35.6666675 36.104,35.496 C36.2693342,35.3253325 36.4026662,35.1280011 36.504,34.904 C36.6053338,34.6799989 36.656,34.4400013 36.656,34.184 C36.656,33.9279987 36.6053338,33.6853345 36.504,33.456 C36.4026662,33.2266655 36.2693342,33.0266675 36.104,32.856 C35.9386658,32.6853325 35.7413345,32.5520005 35.512,32.456 C35.2826655,32.3599995 35.0400013,32.312 34.784,32.312 C34.517332,32.312 34.2693345,32.3599995 34.04,32.456 C33.8106655,32.5520005 33.6133342,32.6853325 33.448,32.856 C33.2826658,33.0266675 33.1520005,33.2213322 33.056,33.44 C32.9599995,33.6586678 32.912,33.8959987 32.912,34.152 Z M36.56,30.072 L39.472,30.072 L39.472,38.28 L36.56,38.28 L36.56,37.368 C35.9413302,38.1466706 35.1040053,38.536 34.048,38.536 C33.4506637,38.536 32.9013358,38.4266678 32.4,38.208 C31.8986642,37.9893322 31.4613352,37.6826686 31.088,37.288 C30.7146648,36.8933314 30.424001,36.429336 30.216,35.896 C30.007999,35.362664 29.904,34.7813365 29.904,34.152 C29.904,33.5653304 30.0053323,33.0080026 30.208,32.48 C30.4106677,31.9519974 30.6933315,31.4906686 31.056,31.096 C31.4186685,30.7013314 31.8506642,30.3893345 32.352,30.16 C32.8533358,29.9306655 33.407997,29.816 34.016,29.816 C35.0400051,29.816 35.8879966,30.1733298 36.56,30.888 L36.56,30.072 Z M41.44,30.072 L44.336,30.072 L44.336,31.416 C44.6453349,30.9253309 45.0239978,30.5493346 45.472,30.288 C45.9200022,30.0266654 46.4426637,29.896 47.04,29.896 L47.288,29.896 C47.3786671,29.896 47.4826661,29.9066666 47.6,29.928 L47.6,32.696 C47.2159981,32.503999 46.8000022,32.408 46.352,32.408 C45.6799966,32.408 45.1760017,32.607998 44.84,33.008 C44.5039983,33.408002 44.336,33.9919962 44.336,34.76 L44.336,38.28 L41.44,38.28 L41.44,30.072 Z M51.568,34.152 C51.568,34.418668 51.6159995,34.6666655 51.712,34.896 C51.8080005,35.1253345 51.9386658,35.3253325 52.104,35.496 C52.2693342,35.6666675 52.4666655,35.7999995 52.696,35.896 C52.9253345,35.9920005 53.173332,36.04 53.44,36.04 C53.6960013,36.04 53.9386655,35.9920005 54.168,35.896 C54.3973345,35.7999995 54.5946658,35.6666675 54.76,35.496 C54.9253342,35.3253325 55.0586662,35.1280011 55.16,34.904 C55.2613338,34.6799989 55.312,34.4400013 55.312,34.184 C55.312,33.9279987 55.2613338,33.6853345 55.16,33.456 C55.0586662,33.2266655 54.9253342,33.0266675 54.76,32.856 C54.5946658,32.6853325 54.3973345,32.5520005 54.168,32.456 C53.9386655,32.3599995 53.6960013,32.312 53.44,32.312 C53.173332,32.312 52.9253345,32.3599995 52.696,32.456 C52.4666655,32.5520005 52.2693342,32.6853325 52.104,32.856 C51.9386658,33.0266675 51.8080005,33.2213322 51.712,33.44 C51.6159995,33.6586678 51.568,33.8959987 51.568,34.152 Z M55.216,30.072 L58.128,30.072 L58.128,38.28 L55.216,38.28 L55.216,37.368 C54.5973302,38.1466706 53.7600053,38.536 52.704,38.536 C52.1066637,38.536 51.5573358,38.4266678 51.056,38.208 C50.5546642,37.9893322 50.1173352,37.6826686 49.744,37.288 C49.3706648,36.8933314 49.080001,36.429336 48.872,35.896 C48.663999,35.362664 48.56,34.7813365 48.56,34.152 C48.56,33.5653304 48.6613323,33.0080026 48.864,32.48 C49.0666677,31.9519974 49.3493315,31.4906686 49.712,31.096 C50.0746685,30.7013314 50.5066642,30.3893345 51.008,30.16 C51.5093358,29.9306655 52.063997,29.816 52.672,29.816 C53.6960051,29.816 54.5439966,30.1733298 55.216,30.888 L55.216,30.072 Z M63.328,32.488 L63.328,38.28 L60.432,38.28 L60.432,32.488 L59.472,32.488 L59.472,30.072 L60.432,30.072 L60.432,27.608 L63.328,27.608 L63.328,30.072 L64.976,30.072 L64.976,32.488 L63.328,32.488 Z M68.96,30.072 L68.96,38.28 L66.064,38.28 L66.064,30.072 L68.96,30.072 Z M65.872,26.92 C65.872,26.6959989 65.9146662,26.4853343 66,26.288 C66.0853338,26.0906657 66.2026659,25.9173341 66.352,25.768 C66.5013341,25.6186659 66.6746657,25.5013338 66.872,25.416 C67.0693343,25.3306662 67.2799989,25.288 67.504,25.288 C67.7280011,25.288 67.9386657,25.3306662 68.136,25.416 C68.3333343,25.5013338 68.5066659,25.6186659 68.656,25.768 C68.8053341,25.9173341 68.9226662,26.0906657 69.008,26.288 C69.0933338,26.4853343 69.136,26.6959989 69.136,26.92 C69.136,27.1440011 69.0933338,27.3546657 69.008,27.552 C68.9226662,27.7493343 68.8053341,27.9226659 68.656,28.072 C68.5066659,28.2213341 68.3333343,28.3386662 68.136,28.424 C67.9386657,28.5093338 67.7280011,28.552 67.504,28.552 C67.2799989,28.552 67.0693343,28.5093338 66.872,28.424 C66.6746657,28.3386662 66.5013341,28.2213341 66.352,28.072 C66.2026659,27.9226659 66.0853338,27.7493343 66,27.552 C65.9146662,27.3546657 65.872,27.1440011 65.872,26.92 Z M70.944,30.072 L73.84,30.072 L73.84,31.112 C74.2346686,30.6319976 74.6346646,30.3093342 75.04,30.144 C75.4453354,29.9786658 75.9199973,29.896 76.464,29.896 C77.0400029,29.896 77.5333313,29.9893324 77.944,30.176 C78.3546687,30.3626676 78.7039986,30.626665 78.992,30.968 C79.2266678,31.2453347 79.3866662,31.554665 79.472,31.896 C79.5573338,32.237335 79.6,32.6266645 79.6,33.064 L79.6,38.28 L76.704,38.28 L76.704,34.136 C76.704,33.7306646 76.674667,33.4026679 76.616,33.152 C76.557333,32.9013321 76.4533341,32.7013341 76.304,32.552 C76.1759994,32.4239994 76.0320008,32.3333336 75.872,32.28 C75.7119992,32.2266664 75.5413342,32.2 75.36,32.2 C74.8693309,32.2 74.4933346,32.3466652 74.232,32.64 C73.9706654,32.9333348 73.84,33.3519973 73.84,33.896 L73.84,38.28 L70.944,38.28 L70.944,30.072 Z M84.256,34.136 C84.256,34.402668 84.3039995,34.6506655 84.4,34.88 C84.4960005,35.1093345 84.6266658,35.3093325 84.792,35.48 C84.9573342,35.6506675 85.1546655,35.7839995 85.384,35.88 C85.6133345,35.9760005 85.861332,36.024 86.128,36.024 C86.3840013,36.024 86.6266655,35.9760005 86.856,35.88 C87.0853345,35.7839995 87.2826658,35.6506675 87.448,35.48 C87.6133342,35.3093325 87.7466662,35.1093345 87.848,34.88 C87.9493338,34.6506655 88,34.4080013 88,34.152 C88,33.885332 87.9493338,33.6400011 87.848,33.416 C87.7466662,33.1919989 87.6106675,32.9946675 87.44,32.824 C87.2693325,32.6533325 87.0693345,32.5200005 86.84,32.424 C86.6106655,32.3279995 86.3733346,32.28 86.128,32.28 C85.8719987,32.28 85.6320011,32.3306662 85.408,32.432 C85.1839989,32.5333338 84.9866675,32.6666658 84.816,32.832 C84.6453325,32.9973342 84.5093338,33.1919989 84.408,33.416 C84.3066662,33.6400011 84.256,33.8799987 84.256,34.136 Z M90.752,30.072 L90.752,37.72 C90.752,38.178669 90.7253336,38.5893315 90.672,38.952 C90.6186664,39.3146685 90.5440005,39.6346653 90.448,39.912 C90.3199994,40.2640018 90.1200014,40.5919985 89.848,40.896 C89.5759986,41.2000015 89.2480019,41.4639989 88.864,41.688 C88.4799981,41.9120011 88.0453358,42.0879994 87.56,42.216 C87.0746642,42.3440006 86.5493362,42.408 85.984,42.408 C85.3439968,42.408 84.757336,42.3280008 84.224,42.168 C83.690664,42.0079992 83.224002,41.7866681 82.824,41.504 C82.423998,41.2213319 82.0960013,40.8906686 81.84,40.512 C81.5839987,40.1333314 81.4133338,39.7200022 81.328,39.272 L84.592,39.272 C84.7946677,39.8160027 85.2533298,40.088 85.968,40.088 C86.576003,40.088 87.042665,39.917335 87.368,39.576 C87.693335,39.234665 87.856,38.760003 87.856,38.152 L87.856,37.368 C87.6426656,37.5706677 87.4373343,37.738666 87.24,37.872 C87.0426657,38.005334 86.8426677,38.1146662 86.64,38.2 C86.4373323,38.2853338 86.2240011,38.3466665 86,38.384 C85.7759989,38.4213335 85.530668,38.44 85.264,38.44 C84.6773304,38.44 84.1386691,38.3386677 83.648,38.136 C83.1573309,37.9333323 82.7333351,37.6506685 82.376,37.288 C82.0186649,36.9253315 81.7413343,36.4906692 81.544,35.984 C81.3466657,35.4773308 81.248,34.9146698 81.248,34.296 C81.248,33.6666635 81.3546656,33.0826694 81.568,32.544 C81.7813344,32.0053306 82.0719982,31.536002 82.44,31.136 C82.8080018,30.735998 83.2453308,30.4213345 83.752,30.192 C84.2586692,29.9626655 84.8106637,29.848 85.408,29.848 C86.3786715,29.848 87.1946634,30.210663 87.856,30.936 L87.856,30.072 L90.752,30.072 Z M101.136,37.16 L97.168,30.072 L100.528,30.072 L102.72,34.28 L104.848,30.072 L108.176,30.072 L101.584,42.376 L98.336,42.376 L101.136,37.16 Z M111.904,34.136 C111.904,34.4133347 111.954666,34.6666655 112.056,34.896 C112.157334,35.1253345 112.290666,35.3253325 112.456,35.496 C112.621334,35.6666675 112.818666,35.7999995 113.048,35.896 C113.277334,35.9920005 113.519999,36.04 113.776,36.04 C114.032001,36.04 114.274666,35.9920005 114.504,35.896 C114.733334,35.7999995 114.930666,35.6666675 115.096,35.496 C115.261334,35.3253325 115.394666,35.1253345 115.496,34.896 C115.597334,34.6666655 115.648,34.418668 115.648,34.152 C115.648,33.8959987 115.597334,33.6533345 115.496,33.424 C115.394666,33.1946655 115.261334,32.9946675 115.096,32.824 C114.930666,32.6533325 114.733334,32.5200005 114.504,32.424 C114.274666,32.3279995 114.032001,32.28 113.776,32.28 C113.519999,32.28 113.277334,32.3279995 113.048,32.424 C112.818666,32.5200005 112.621334,32.6533325 112.456,32.824 C112.290666,32.9946675 112.157334,33.1919989 112.056,33.416 C111.954666,33.6400011 111.904,33.8799987 111.904,34.136 Z M108.848,34.104 C108.848,33.495997 108.970665,32.9280026 109.216,32.4 C109.461335,31.8719974 109.802664,31.4133353 110.24,31.024 C110.677336,30.6346647 111.19733,30.3280011 111.8,30.104 C112.40267,29.8799989 113.06133,29.768 113.776,29.768 C114.480004,29.768 115.13333,29.8773322 115.736,30.096 C116.33867,30.3146678 116.861331,30.6186647 117.304,31.008 C117.746669,31.3973353 118.090665,31.8613306 118.336,32.4 C118.581335,32.9386694 118.704,33.5333301 118.704,34.184 C118.704,34.8346699 118.578668,35.4293306 118.328,35.968 C118.077332,36.5066694 117.733336,36.9706647 117.296,37.36 C116.858664,37.7493353 116.333336,38.0506656 115.72,38.264 C115.106664,38.4773344 114.44267,38.584 113.728,38.584 C113.023996,38.584 112.373336,38.4773344 111.776,38.264 C111.178664,38.0506656 110.664002,37.7466686 110.232,37.352 C109.799998,36.9573314 109.461335,36.4853361 109.216,35.936 C108.970665,35.3866639 108.848,34.7760034 108.848,34.104 Z M123.264,30.072 L123.264,34.696 C123.264,35.7093384 123.754662,36.216 124.736,36.216 C125.717338,36.216 126.208,35.7093384 126.208,34.696 L126.208,30.072 L129.104,30.072 L129.104,35.256 C129.104,36.3653389 128.73867,37.1973306 128.008,37.752 C127.27733,38.3066694 126.186674,38.584 124.736,38.584 C123.285326,38.584 122.19467,38.3066694 121.464,37.752 C120.73333,37.1973306 120.368,36.3653389 120.368,35.256 L120.368,30.072 L123.264,30.072 Z M131.072,30.072 L133.968,30.072 L133.968,31.416 C134.277335,30.9253309 134.655998,30.5493346 135.104,30.288 C135.552002,30.0266654 136.074664,29.896 136.672,29.896 L136.92,29.896 C137.010667,29.896 137.114666,29.9066666 137.232,29.928 L137.232,32.696 C136.847998,32.503999 136.432002,32.408 135.984,32.408 C135.311997,32.408 134.808002,32.607998 134.472,33.008 C134.135998,33.408002 133.968,33.9919962 133.968,34.76 L133.968,38.28 L131.072,38.28 L131.072,30.072 Z M150.144,32.728 C149.642664,32.386665 149.136003,32.216 148.624,32.216 C148.346665,32.216 148.088001,32.2639995 147.848,32.36 C147.607999,32.4560005 147.397334,32.5919991 147.216,32.768 C147.034666,32.9440009 146.893334,33.1519988 146.792,33.392 C146.690666,33.6320012 146.64,33.9013318 146.64,34.2 C146.64,34.4880014 146.690666,34.7519988 146.792,34.992 C146.893334,35.2320012 147.031999,35.4399991 147.208,35.616 C147.384001,35.7920009 147.594665,35.9279995 147.84,36.024 C148.085335,36.1200005 148.346665,36.168 148.624,36.168 C149.168003,36.168 149.674664,35.9813352 150.144,35.608 L150.144,38.072 C149.42933,38.3813349 148.752003,38.536 148.112,38.536 C147.514664,38.536 146.946669,38.4346677 146.408,38.232 C145.869331,38.0293323 145.394669,37.7386686 144.984,37.36 C144.573331,36.9813314 144.245335,36.5280026 144,36 C143.754665,35.4719974 143.632,34.8826699 143.632,34.232 C143.632,33.5813301 143.749332,32.9866694 143.984,32.448 C144.218668,31.9093306 144.538665,31.4453353 144.944,31.056 C145.349335,30.6666647 145.831997,30.3626678 146.392,30.144 C146.952003,29.9253322 147.551997,29.816 148.192,29.816 C148.896004,29.816 149.546664,29.9653318 150.144,30.264 L150.144,32.728 Z M154.528,34.136 C154.528,34.4133347 154.578666,34.6666655 154.68,34.896 C154.781334,35.1253345 154.914666,35.3253325 155.08,35.496 C155.245334,35.6666675 155.442666,35.7999995 155.672,35.896 C155.901334,35.9920005 156.143999,36.04 156.4,36.04 C156.656001,36.04 156.898666,35.9920005 157.128,35.896 C157.357334,35.7999995 157.554666,35.6666675 157.72,35.496 C157.885334,35.3253325 158.018666,35.1253345 158.12,34.896 C158.221334,34.6666655 158.272,34.418668 158.272,34.152 C158.272,33.8959987 158.221334,33.6533345 158.12,33.424 C158.018666,33.1946655 157.885334,32.9946675 157.72,32.824 C157.554666,32.6533325 157.357334,32.5200005 157.128,32.424 C156.898666,32.3279995 156.656001,32.28 156.4,32.28 C156.143999,32.28 155.901334,32.3279995 155.672,32.424 C155.442666,32.5200005 155.245334,32.6533325 155.08,32.824 C154.914666,32.9946675 154.781334,33.1919989 154.68,33.416 C154.578666,33.6400011 154.528,33.8799987 154.528,34.136 Z M151.472,34.104 C151.472,33.495997 151.594665,32.9280026 151.84,32.4 C152.085335,31.8719974 152.426664,31.4133353 152.864,31.024 C153.301336,30.6346647 153.82133,30.3280011 154.424,30.104 C155.02667,29.8799989 155.68533,29.768 156.4,29.768 C157.104004,29.768 157.75733,29.8773322 158.36,30.096 C158.96267,30.3146678 159.485331,30.6186647 159.928,31.008 C160.370669,31.3973353 160.714665,31.8613306 160.96,32.4 C161.205335,32.9386694 161.328,33.5333301 161.328,34.184 C161.328,34.8346699 161.202668,35.4293306 160.952,35.968 C160.701332,36.5066694 160.357336,36.9706647 159.92,37.36 C159.482664,37.7493353 158.957336,38.0506656 158.344,38.264 C157.730664,38.4773344 157.06667,38.584 156.352,38.584 C155.647996,38.584 154.997336,38.4773344 154.4,38.264 C153.802664,38.0506656 153.288002,37.7466686 152.856,37.352 C152.423998,36.9573314 152.085335,36.4853361 151.84,35.936 C151.594665,35.3866639 151.472,34.7760034 151.472,34.104 Z M165.888,25 L165.888,38.28 L162.992,38.28 L162.992,25 L165.888,25 Z M170.608,34.136 C170.608,34.4133347 170.658666,34.6666655 170.76,34.896 C170.861334,35.1253345 170.994666,35.3253325 171.16,35.496 C171.325334,35.6666675 171.522666,35.7999995 171.752,35.896 C171.981334,35.9920005 172.223999,36.04 172.48,36.04 C172.736001,36.04 172.978666,35.9920005 173.208,35.896 C173.437334,35.7999995 173.634666,35.6666675 173.8,35.496 C173.965334,35.3253325 174.098666,35.1253345 174.2,34.896 C174.301334,34.6666655 174.352,34.418668 174.352,34.152 C174.352,33.8959987 174.301334,33.6533345 174.2,33.424 C174.098666,33.1946655 173.965334,32.9946675 173.8,32.824 C173.634666,32.6533325 173.437334,32.5200005 173.208,32.424 C172.978666,32.3279995 172.736001,32.28 172.48,32.28 C172.223999,32.28 171.981334,32.3279995 171.752,32.424 C171.522666,32.5200005 171.325334,32.6533325 171.16,32.824 C170.994666,32.9946675 170.861334,33.1919989 170.76,33.416 C170.658666,33.6400011 170.608,33.8799987 170.608,34.136 Z M167.552,34.104 C167.552,33.495997 167.674665,32.9280026 167.92,32.4 C168.165335,31.8719974 168.506664,31.4133353 168.944,31.024 C169.381336,30.6346647 169.90133,30.3280011 170.504,30.104 C171.10667,29.8799989 171.76533,29.768 172.48,29.768 C173.184004,29.768 173.83733,29.8773322 174.44,30.096 C175.04267,30.3146678 175.565331,30.6186647 176.008,31.008 C176.450669,31.3973353 176.794665,31.8613306 177.04,32.4 C177.285335,32.9386694 177.408,33.5333301 177.408,34.184 C177.408,34.8346699 177.282668,35.4293306 177.032,35.968 C176.781332,36.5066694 176.437336,36.9706647 176,37.36 C175.562664,37.7493353 175.037336,38.0506656 174.424,38.264 C173.810664,38.4773344 173.14667,38.584 172.432,38.584 C171.727996,38.584 171.077336,38.4773344 170.48,38.264 C169.882664,38.0506656 169.368002,37.7466686 168.936,37.352 C168.503998,36.9573314 168.165335,36.4853361 167.92,35.936 C167.674665,35.3866639 167.552,34.7760034 167.552,34.104 Z M179.072,30.072 L181.968,30.072 L181.968,31.416 C182.277335,30.9253309 182.655998,30.5493346 183.104,30.288 C183.552002,30.0266654 184.074664,29.896 184.672,29.896 L184.92,29.896 C185.010667,29.896 185.114666,29.9066666 185.232,29.928 L185.232,32.696 C184.847998,32.503999 184.432002,32.408 183.984,32.408 C183.311997,32.408 182.808002,32.607998 182.472,33.008 C182.135998,33.408002 181.968,33.9919962 181.968,34.76 L181.968,38.28 L179.072,38.28 L179.072,30.072 Z M191.952,32.184 C191.418664,31.9066653 190.896003,31.768 190.384,31.768 C190.117332,31.768 189.901334,31.8213328 189.736,31.928 C189.570666,32.0346672 189.488,32.1786658 189.488,32.36 C189.488,32.4560005 189.501333,32.533333 189.528,32.592 C189.554667,32.650667 189.613333,32.7066664 189.704,32.76 C189.794667,32.8133336 189.927999,32.8613331 190.104,32.904 C190.280001,32.9466669 190.511999,32.9999997 190.8,33.064 C191.600004,33.2240008 192.197331,33.5093313 192.592,33.92 C192.986669,34.3306687 193.184,34.8559968 193.184,35.496 C193.184,35.9760024 193.088001,36.4079981 192.896,36.792 C192.703999,37.1760019 192.437335,37.4986654 192.096,37.76 C191.754665,38.0213346 191.344002,38.2239993 190.864,38.368 C190.383998,38.5120007 189.856003,38.584 189.28,38.584 C188.170661,38.584 187.077339,38.2693365 186,37.64 L187.056,35.592 C187.866671,36.1466694 188.634663,36.424 189.36,36.424 C189.626668,36.424 189.845332,36.3653339 190.016,36.248 C190.186668,36.1306661 190.272,35.9813342 190.272,35.8 C190.272,35.6933328 190.258667,35.6053337 190.232,35.536 C190.205333,35.4666663 190.149334,35.402667 190.064,35.344 C189.978666,35.285333 189.853334,35.2320002 189.688,35.184 C189.522666,35.1359998 189.306668,35.0853336 189.04,35.032 C188.143996,34.8506658 187.517335,34.5813351 187.16,34.224 C186.802665,33.8666649 186.624,33.3733365 186.624,32.744 C186.624,32.285331 186.709332,31.8720018 186.88,31.504 C187.050668,31.1359982 187.295998,30.8240013 187.616,30.568 C187.936002,30.3119987 188.322664,30.1146674 188.776,29.976 C189.229336,29.8373326 189.733331,29.768 190.288,29.768 C191.194671,29.768 192.074662,29.9439982 192.928,30.296 L191.952,32.184 Z M194.512,36.744 C194.512,36.4879987 194.56,36.2453345 194.656,36.016 C194.752,35.7866655 194.885332,35.5866675 195.056,35.416 C195.226668,35.2453325 195.426666,35.1120005 195.656,35.016 C195.885334,34.9199995 196.127999,34.872 196.384,34.872 C196.640001,34.872 196.882666,34.9199995 197.112,35.016 C197.341334,35.1120005 197.541332,35.2453325 197.712,35.416 C197.882668,35.5866675 198.016,35.7866655 198.112,36.016 C198.208,36.2453345 198.256,36.4879987 198.256,36.744 C198.256,37.0000013 198.208,37.2426655 198.112,37.472 C198.016,37.7013345 197.882668,37.9013325 197.712,38.072 C197.541332,38.2426675 197.341334,38.3759995 197.112,38.472 C196.882666,38.5680005 196.640001,38.616 196.384,38.616 C196.127999,38.616 195.885334,38.5680005 195.656,38.472 C195.426666,38.3759995 195.226668,38.2426675 195.056,38.072 C194.885332,37.9013325 194.752,37.7013345 194.656,37.472 C194.56,37.2426655 194.512,37.0000013 194.512,36.744 Z M3.348,60.624 L4.068,60.624 C4.61200272,60.624 5.0973312,60.5386675 5.524,60.368 C5.9506688,60.1973325 6.3106652,59.9626682 6.604,59.664 C6.8973348,59.3653318 7.12133256,59.0106687 7.276,58.6 C7.43066744,58.1893313 7.508,57.7386691 7.508,57.248 C7.508,56.7679976 7.4280008,56.3200021 7.268,55.904 C7.1079992,55.4879979 6.8813348,55.1306682 6.588,54.832 C6.2946652,54.5333318 5.9346688,54.2986675 5.508,54.128 C5.0813312,53.9573325 4.601336,53.872 4.068,53.872 L3.348,53.872 L3.348,60.624 Z M0.212,51.216 L4.852,51.216 C5.67333744,51.216 6.4439964,51.3813317 7.164,51.712 C7.8840036,52.0426683 8.51333064,52.4826639 9.052,53.032 C9.59066936,53.5813361 10.0146651,54.2213297 10.324,54.952 C10.6333349,55.6826703 10.788,56.447996 10.788,57.248 C10.788,58.0373373 10.6360015,58.7973297 10.332,59.528 C10.0279985,60.2586703 9.60666936,60.9013306 9.068,61.456 C8.52933064,62.0106694 7.9000036,62.4533317 7.18,62.784 C6.4599964,63.1146683 5.68400416,63.28 4.852,63.28 L0.212,63.28 L0.212,51.216 Z M15.204,59.152 C15.204,59.418668 15.2519995,59.6666655 15.348,59.896 C15.4440005,60.1253345 15.5746658,60.3253325 15.74,60.496 C15.9053342,60.6666675 16.1026655,60.7999995 16.332,60.896 C16.5613345,60.9920005 16.809332,61.04 17.076,61.04 C17.3320013,61.04 17.5746655,60.9920005 17.804,60.896 C18.0333345,60.7999995 18.2306658,60.6666675 18.396,60.496 C18.5613342,60.3253325 18.6946662,60.1280011 18.796,59.904 C18.8973338,59.6799989 18.948,59.4400013 18.948,59.184 C18.948,58.9279987 18.8973338,58.6853345 18.796,58.456 C18.6946662,58.2266655 18.5613342,58.0266675 18.396,57.856 C18.2306658,57.6853325 18.0333345,57.5520005 17.804,57.456 C17.5746655,57.3599995 17.3320013,57.312 17.076,57.312 C16.809332,57.312 16.5613345,57.3599995 16.332,57.456 C16.1026655,57.5520005 15.9053342,57.6853325 15.74,57.856 C15.5746658,58.0266675 15.4440005,58.2213322 15.348,58.44 C15.2519995,58.6586678 15.204,58.8959987 15.204,59.152 Z M18.852,55.072 L21.764,55.072 L21.764,63.28 L18.852,63.28 L18.852,62.368 C18.2333302,63.1466706 17.3960053,63.536 16.34,63.536 C15.7426637,63.536 15.1933358,63.4266678 14.692,63.208 C14.1906642,62.9893322 13.7533352,62.6826686 13.38,62.288 C13.0066648,61.8933314 12.716001,61.429336 12.508,60.896 C12.299999,60.362664 12.196,59.7813365 12.196,59.152 C12.196,58.5653304 12.2973323,58.0080026 12.5,57.48 C12.7026677,56.9519974 12.9853315,56.4906686 13.348,56.096 C13.7106685,55.7013314 14.1426642,55.3893345 14.644,55.16 C15.1453358,54.9306655 15.699997,54.816 16.308,54.816 C17.3320051,54.816 18.1799966,55.1733298 18.852,55.888 L18.852,55.072 Z M23.732,55.072 L26.628,55.072 L26.628,56.08 C27.4173373,55.3226629 28.3026618,54.944 29.284,54.944 C30.5000061,54.944 31.4279968,55.4559949 32.068,56.48 C32.7186699,55.4453282 33.6466606,54.928 34.852,54.928 C35.2360019,54.928 35.598665,54.9839994 35.94,55.096 C36.281335,55.2080006 36.5746654,55.3839988 36.82,55.624 C37.0653346,55.8640012 37.2599993,56.1759981 37.404,56.56 C37.5480007,56.9440019 37.62,57.4079973 37.62,57.952 L37.62,63.28 L34.724,63.28 L34.724,59.232 C34.724,58.8159979 34.694667,58.474668 34.636,58.208 C34.577333,57.941332 34.4920006,57.7333341 34.38,57.584 C34.2679994,57.4346659 34.1373341,57.3333336 33.988,57.28 C33.8386659,57.2266664 33.6786675,57.2 33.508,57.2 C32.5799954,57.2 32.116,57.8773266 32.116,59.232 L32.116,63.28 L29.22,63.28 L29.22,59.232 C29.22,58.8159979 29.1933336,58.4720014 29.14,58.2 C29.0866664,57.9279986 29.0093338,57.7120008 28.908,57.552 C28.8066662,57.3919992 28.6760008,57.282667 28.516,57.224 C28.3559992,57.165333 28.1693344,57.136 27.956,57.136 C27.7746658,57.136 27.6040008,57.1626664 27.444,57.216 C27.2839992,57.2693336 27.1426673,57.3733326 27.02,57.528 C26.8973327,57.6826674 26.8013337,57.8959986 26.732,58.168 C26.6626663,58.4400014 26.628,58.7946645 26.628,59.232 L26.628,63.28 L23.732,63.28 L23.732,55.072 Z M39.604,55.072 L42.5,55.072 L42.5,56.112 C42.8946686,55.6319976 43.2946646,55.3093342 43.7,55.144 C44.1053354,54.9786658 44.5799973,54.896 45.124,54.896 C45.7000029,54.896 46.1933313,54.9893324 46.604,55.176 C47.0146687,55.3626676 47.3639986,55.626665 47.652,55.968 C47.8866678,56.2453347 48.0466662,56.554665 48.132,56.896 C48.2173338,57.237335 48.26,57.6266645 48.26,58.064 L48.26,63.28 L45.364,63.28 L45.364,59.136 C45.364,58.7306646 45.334667,58.4026679 45.276,58.152 C45.217333,57.9013321 45.1133341,57.7013341 44.964,57.552 C44.8359994,57.4239994 44.6920008,57.3333336 44.532,57.28 C44.3719992,57.2266664 44.2013342,57.2 44.02,57.2 C43.5293309,57.2 43.1533346,57.3466652 42.892,57.64 C42.6306654,57.9333348 42.5,58.3519973 42.5,58.896 L42.5,63.28 L39.604,63.28 L39.604,55.072 Z M50.228,55.072 L53.124,55.072 L53.124,56.112 C53.5186686,55.6319976 53.9186646,55.3093342 54.324,55.144 C54.7293354,54.9786658 55.2039973,54.896 55.748,54.896 C56.3240029,54.896 56.8173313,54.9893324 57.228,55.176 C57.6386687,55.3626676 57.9879986,55.626665 58.276,55.968 C58.5106678,56.2453347 58.6706662,56.554665 58.756,56.896 C58.8413338,57.237335 58.884,57.6266645 58.884,58.064 L58.884,63.28 L55.988,63.28 L55.988,59.136 C55.988,58.7306646 55.958667,58.4026679 55.9,58.152 C55.841333,57.9013321 55.7373341,57.7013341 55.588,57.552 C55.4599994,57.4239994 55.3160008,57.3333336 55.156,57.28 C54.9959992,57.2266664 54.8253342,57.2 54.644,57.2 C54.1533309,57.2 53.7773346,57.3466652 53.516,57.64 C53.2546654,57.9333348 53.124,58.3519973 53.124,58.896 L53.124,63.28 L50.228,63.28 L50.228,55.072 Z M60.852,55.072 L63.748,55.072 L63.748,56.112 C64.1426686,55.6319976 64.5426646,55.3093342 64.948,55.144 C65.3533354,54.9786658 65.8279973,54.896 66.372,54.896 C66.9480029,54.896 67.4413313,54.9893324 67.852,55.176 C68.2626687,55.3626676 68.6119986,55.626665 68.9,55.968 C69.1346678,56.2453347 69.2946662,56.554665 69.38,56.896 C69.4653338,57.237335 69.508,57.6266645 69.508,58.064 L69.508,63.28 L66.612,63.28 L66.612,59.136 C66.612,58.7306646 66.582667,58.4026679 66.524,58.152 C66.465333,57.9013321 66.3613341,57.7013341 66.212,57.552 C66.0839994,57.4239994 65.9400008,57.3333336 65.78,57.28 C65.6199992,57.2266664 65.4493342,57.2 65.268,57.2 C64.7773309,57.2 64.4013346,57.3466652 64.14,57.64 C63.8786654,57.9333348 63.748,58.3519973 63.748,58.896 L63.748,63.28 L60.852,63.28 L60.852,55.072 Z M72.372,60.224 L75.092,60.224 L72.148,65.52 L70.292,65.52 L72.372,60.224 Z M85.332,62.16 L81.364,55.072 L84.724,55.072 L86.916,59.28 L89.044,55.072 L92.372,55.072 L85.78,67.376 L82.532,67.376 L85.332,62.16 Z M96.1,59.136 C96.1,59.4133347 96.1506662,59.6666655 96.252,59.896 C96.3533338,60.1253345 96.4866658,60.3253325 96.652,60.496 C96.8173342,60.6666675 97.0146655,60.7999995 97.244,60.896 C97.4733345,60.9920005 97.7159987,61.04 97.972,61.04 C98.2280013,61.04 98.4706655,60.9920005 98.7,60.896 C98.9293345,60.7999995 99.1266658,60.6666675 99.292,60.496 C99.4573342,60.3253325 99.5906662,60.1253345 99.692,59.896 C99.7933338,59.6666655 99.844,59.418668 99.844,59.152 C99.844,58.8959987 99.7933338,58.6533345 99.692,58.424 C99.5906662,58.1946655 99.4573342,57.9946675 99.292,57.824 C99.1266658,57.6533325 98.9293345,57.5200005 98.7,57.424 C98.4706655,57.3279995 98.2280013,57.28 97.972,57.28 C97.7159987,57.28 97.4733345,57.3279995 97.244,57.424 C97.0146655,57.5200005 96.8173342,57.6533325 96.652,57.824 C96.4866658,57.9946675 96.3533338,58.1919989 96.252,58.416 C96.1506662,58.6400011 96.1,58.8799987 96.1,59.136 Z M93.044,59.104 C93.044,58.495997 93.1666654,57.9280026 93.412,57.4 C93.6573346,56.8719974 93.9986645,56.4133353 94.436,56.024 C94.8733355,55.6346647 95.3933303,55.3280011 95.996,55.104 C96.5986697,54.8799989 97.2573298,54.768 97.972,54.768 C98.6760035,54.768 99.3293303,54.8773322 99.932,55.096 C100.53467,55.3146678 101.057331,55.6186647 101.5,56.008 C101.942669,56.3973353 102.286665,56.8613306 102.532,57.4 C102.777335,57.9386694 102.9,58.5333301 102.9,59.184 C102.9,59.8346699 102.774668,60.4293306 102.524,60.968 C102.273332,61.5066694 101.929336,61.9706647 101.492,62.36 C101.054664,62.7493353 100.529336,63.0506656 99.916,63.264 C99.3026636,63.4773344 98.6386702,63.584 97.924,63.584 C97.2199965,63.584 96.5693363,63.4773344 95.972,63.264 C95.3746637,63.0506656 94.8600022,62.7466686 94.428,62.352 C93.9959978,61.9573314 93.6573346,61.4853361 93.412,60.936 C93.1666654,60.3866639 93.044,59.7760034 93.044,59.104 Z M107.46,55.072 L107.46,59.696 C107.46,60.7093384 107.950662,61.216 108.932,61.216 C109.913338,61.216 110.404,60.7093384 110.404,59.696 L110.404,55.072 L113.3,55.072 L113.3,60.256 C113.3,61.3653389 112.93467,62.1973306 112.204,62.752 C111.47333,63.3066694 110.382674,63.584 108.932,63.584 C107.481326,63.584 106.39067,63.3066694 105.66,62.752 C104.92933,62.1973306 104.564,61.3653389 104.564,60.256 L104.564,55.072 L107.46,55.072 Z M120.708,55.072 L123.604,55.072 L123.604,56.08 C124.393337,55.3226629 125.278662,54.944 126.26,54.944 C127.476006,54.944 128.403997,55.4559949 129.044,56.48 C129.69467,55.4453282 130.622661,54.928 131.828,54.928 C132.212002,54.928 132.574665,54.9839994 132.916,55.096 C133.257335,55.2080006 133.550665,55.3839988 133.796,55.624 C134.041335,55.8640012 134.235999,56.1759981 134.38,56.56 C134.524001,56.9440019 134.596,57.4079973 134.596,57.952 L134.596,63.28 L131.7,63.28 L131.7,59.232 C131.7,58.8159979 131.670667,58.474668 131.612,58.208 C131.553333,57.941332 131.468001,57.7333341 131.356,57.584 C131.243999,57.4346659 131.113334,57.3333336 130.964,57.28 C130.814666,57.2266664 130.654668,57.2 130.484,57.2 C129.555995,57.2 129.092,57.8773266 129.092,59.232 L129.092,63.28 L126.196,63.28 L126.196,59.232 C126.196,58.8159979 126.169334,58.4720014 126.116,58.2 C126.062666,57.9279986 125.985334,57.7120008 125.884,57.552 C125.782666,57.3919992 125.652001,57.282667 125.492,57.224 C125.331999,57.165333 125.145334,57.136 124.932,57.136 C124.750666,57.136 124.580001,57.1626664 124.42,57.216 C124.259999,57.2693336 124.118667,57.3733326 123.996,57.528 C123.873333,57.6826674 123.777334,57.8959986 123.708,58.168 C123.638666,58.4400014 123.604,58.7946645 123.604,59.232 L123.604,63.28 L120.708,63.28 L120.708,55.072 Z M142.58,57.984 C142.484,57.5786646 142.286668,57.2533346 141.988,57.008 C141.689332,56.7626654 141.326669,56.64 140.9,56.64 C140.451998,56.64 140.086668,56.7573322 139.804,56.992 C139.521332,57.2266678 139.342667,57.5573312 139.268,57.984 L142.58,57.984 Z M139.188,59.664 C139.188,60.9120062 139.774661,61.536 140.948,61.536 C141.577336,61.536 142.051998,61.2800026 142.372,60.768 L145.172,60.768 C144.606664,62.6453427 143.193345,63.584 140.932,63.584 C140.238663,63.584 139.604003,63.480001 139.028,63.272 C138.451997,63.063999 137.958669,62.7680019 137.548,62.384 C137.137331,61.9999981 136.820001,61.541336 136.596,61.008 C136.371999,60.474664 136.26,59.8773366 136.26,59.216 C136.26,58.5333299 136.366666,57.9173361 136.58,57.368 C136.793334,56.8186639 137.097331,56.3520019 137.492,55.968 C137.886669,55.5839981 138.363997,55.288001 138.924,55.08 C139.484003,54.871999 140.115996,54.768 140.82,54.768 C141.513337,54.768 142.137331,54.871999 142.692,55.08 C143.246669,55.288001 143.715998,55.5893314 144.1,55.984 C144.484002,56.3786686 144.777332,56.8613305 144.98,57.432 C145.182668,58.0026695 145.284,58.6453298 145.284,59.36 L145.284,59.664 L139.188,59.664 Z M152.372,57.184 C151.838664,56.9066653 151.316003,56.768 150.804,56.768 C150.537332,56.768 150.321334,56.8213328 150.156,56.928 C149.990666,57.0346672 149.908,57.1786658 149.908,57.36 C149.908,57.4560005 149.921333,57.533333 149.948,57.592 C149.974667,57.650667 150.033333,57.7066664 150.124,57.76 C150.214667,57.8133336 150.347999,57.8613331 150.524,57.904 C150.700001,57.9466669 150.931999,57.9999997 151.22,58.064 C152.020004,58.2240008 152.617331,58.5093313 153.012,58.92 C153.406669,59.3306687 153.604,59.8559968 153.604,60.496 C153.604,60.9760024 153.508001,61.4079981 153.316,61.792 C153.123999,62.1760019 152.857335,62.4986654 152.516,62.76 C152.174665,63.0213346 151.764002,63.2239993 151.284,63.368 C150.803998,63.5120007 150.276003,63.584 149.7,63.584 C148.590661,63.584 147.497339,63.2693365 146.42,62.64 L147.476,60.592 C148.286671,61.1466694 149.054663,61.424 149.78,61.424 C150.046668,61.424 150.265332,61.3653339 150.436,61.248 C150.606668,61.1306661 150.692,60.9813342 150.692,60.8 C150.692,60.6933328 150.678667,60.6053337 150.652,60.536 C150.625333,60.4666663 150.569334,60.402667 150.484,60.344 C150.398666,60.285333 150.273334,60.2320002 150.108,60.184 C149.942666,60.1359998 149.726668,60.0853336 149.46,60.032 C148.563996,59.8506658 147.937335,59.5813351 147.58,59.224 C147.222665,58.8666649 147.044,58.3733365 147.044,57.744 C147.044,57.285331 147.129332,56.8720018 147.3,56.504 C147.470668,56.1359982 147.715998,55.8240013 148.036,55.568 C148.356002,55.3119987 148.742664,55.1146674 149.196,54.976 C149.649336,54.8373326 150.153331,54.768 150.708,54.768 C151.614671,54.768 152.494662,54.9439982 153.348,55.296 L152.372,57.184 Z M160.516,57.184 C159.982664,56.9066653 159.460003,56.768 158.948,56.768 C158.681332,56.768 158.465334,56.8213328 158.3,56.928 C158.134666,57.0346672 158.052,57.1786658 158.052,57.36 C158.052,57.4560005 158.065333,57.533333 158.092,57.592 C158.118667,57.650667 158.177333,57.7066664 158.268,57.76 C158.358667,57.8133336 158.491999,57.8613331 158.668,57.904 C158.844001,57.9466669 159.075999,57.9999997 159.364,58.064 C160.164004,58.2240008 160.761331,58.5093313 161.156,58.92 C161.550669,59.3306687 161.748,59.8559968 161.748,60.496 C161.748,60.9760024 161.652001,61.4079981 161.46,61.792 C161.267999,62.1760019 161.001335,62.4986654 160.66,62.76 C160.318665,63.0213346 159.908002,63.2239993 159.428,63.368 C158.947998,63.5120007 158.420003,63.584 157.844,63.584 C156.734661,63.584 155.641339,63.2693365 154.564,62.64 L155.62,60.592 C156.430671,61.1466694 157.198663,61.424 157.924,61.424 C158.190668,61.424 158.409332,61.3653339 158.58,61.248 C158.750668,61.1306661 158.836,60.9813342 158.836,60.8 C158.836,60.6933328 158.822667,60.6053337 158.796,60.536 C158.769333,60.4666663 158.713334,60.402667 158.628,60.344 C158.542666,60.285333 158.417334,60.2320002 158.252,60.184 C158.086666,60.1359998 157.870668,60.0853336 157.604,60.032 C156.707996,59.8506658 156.081335,59.5813351 155.724,59.224 C155.366665,58.8666649 155.188,58.3733365 155.188,57.744 C155.188,57.285331 155.273332,56.8720018 155.444,56.504 C155.614668,56.1359982 155.859998,55.8240013 156.18,55.568 C156.500002,55.3119987 156.886664,55.1146674 157.34,54.976 C157.793336,54.8373326 158.297331,54.768 158.852,54.768 C159.758671,54.768 160.638662,54.9439982 161.492,55.296 L160.516,57.184 Z M166.196,62.16 L162.228,55.072 L165.588,55.072 L167.78,59.28 L169.908,55.072 L173.236,55.072 L166.644,67.376 L163.396,67.376 L166.196,62.16 Z" id="Sorting,cleaningandseparatingyourcolors.Damnnn,youmessy" fill="#FFFFFF" fill-rule="nonzero"></path>
                <g id="smiley2" transform="translate(178.812000, 46.280000)">
                    <g id="laugh-tongue-emoji-emoticon-by-Vexels">
                        <ellipse id="Oval" fill="#FFD600" fill-rule="nonzero" cx="10.5" cy="10.0941464" rx="10.4948592" ry="10.0941464"></ellipse>
                        <path d="M15.1102146,5.92396636 C16.9317958,5.92396636 18.4084849,7.34425364 18.4084849,9.09613091 C18.4084849,10.8481609 16.9318157,12.2683145 15.1102146,12.2683145 C13.2887722,12.2683145 11.812103,10.8481609 11.812103,9.09613091 C11.812103,7.34427273 13.2887921,5.92396636 15.1102146,5.92396636 Z" id="Path" fill="#FFFFFF" fill-rule="nonzero"></path>
                        <path d="M10.2481786,17.7620482 C10.2481786,17.7620482 6.7862949,17.9225073 4.31829868,14.1674209 C4.18382325,13.8222573 3.55566919,13.4337382 4.99139036,13.60632 C6.42756805,13.7790355 11.812103,14.4694773 15.6262628,13.6495418 C15.6262628,13.6495418 17.1967968,13.2179345 16.3442722,14.5127182 C15.4916285,15.8077882 13.755,17.9903564 10.2481786,17.7620482 Z" id="Path" fill="#4D4F59" fill-rule="nonzero"></path>
                        <path d="M7.45920794,14.6984345 L7.50414556,18.2806718 C7.50414556,18.2806718 7.86317013,21 10.3760841,21 C12.8888393,21 13.247844,19.0576909 13.247844,17.8924391 C13.247844,16.7271682 13.247844,14.9145436 13.247844,14.7848782 C13.247844,14.6553845 13.247844,14.3965118 12.7991427,14.3965118 C12.3505406,14.3965118 10.9146805,14.3965118 10.9146805,14.3965118 L10.4661181,15.4754918 L9.97230057,14.4397336 L7.95302552,14.4397336 C7.95302552,14.4394091 7.59388185,14.3531182 7.45920794,14.6984345 Z" id="Path" fill="url(#linearGradient-1)" fill-rule="nonzero"></path>
                        <path d="M4.40787618,10.4558236 C4.40787618,10.4558236 6.78613611,9.80829818 7.99764556,10.2830891 C9.20949244,10.7578991 9.10979206,9.70694455 7.72851607,9.24717818 C6.5617656,8.85881182 5.17066446,9.03137455 4.36291871,9.67876636 C3.55537146,10.1103927 3.95915501,10.4990455 4.40787618,10.4558236 Z" id="Path" fill="#4D4F59" fill-rule="nonzero"></path>
                        <path d="M15.1100756,8.06879182 C15.7173885,8.06879182 16.2096578,8.54228455 16.2096578,9.12623727 C16.2096578,9.71020909 15.7173686,10.1836827 15.1100756,10.1836827 C14.5029414,10.1836827 14.0106522,9.71020909 14.0106522,9.12623727 C14.0106522,8.54228455 14.5029414,8.06879182 15.1100756,8.06879182 Z" id="Path" fill="#4D4F59" fill-rule="nonzero"></path>
                    </g>
                </g>
            </g>
        </g>
    </g>
</svg>